<?xml version="1.0" encoding="UTF-8"?>
<svg id="Layer_2" data-name="Layer 2" xmlns="http://www.w3.org/2000/svg" viewBox="0 0 101.09 145.33">
  <defs>
    <style>
      .cls-1 {
        fill-rule: evenodd;
      }

      .cls-1, .cls-2 {
        fill: #391910;
      }
    </style>
  </defs>
  <g id="Layer_1-2" data-name="Layer 1">
    <g>
      <g>
        <path class="cls-2" d="m32.37,113.88c-1.16,3.96-2.49,9.09-6.09,9.09-1.68,0-2.94-1.14-2.94-2.8,0-1.8,1.37-3.35,2.98-3.35.43,0,.86.1.86.49,0,.29-.29.49-.55.41-.1-.04-.22-.04-.35-.04-1.12,0-2.08,1.27-2.08,2.45,0,1.25.96,1.98,2.1,1.98,2.74,0,3.92-4,5.23-8.46.55-1.86,1.06-3.6,1.66-4.74.39-.8,1.29-1.55,1.92-1.55.2,0,.43.14.45.35.04.33-.18.47-.37.51-.53.06-1,.65-1.25,1.08-.55,1.08-1.06,2.78-1.57,4.58Zm2.04,2.04c-.63,0-1.27-.14-1.9-.39-.18-.06-.29-.22-.29-.41,0-.27.2-.41.41-.41.06,0,.1,0,.16.02.57.21,1.14.33,1.68.33,2.35,0,3.9-2.45,3.9-4.74s-1.72-3.35-4.11-3.35c-3.51,0-5.5,3.06-5.5,6.82,0,.22-.18.43-.43.43s-.43-.2-.43-.43c0-4.35,2.35-7.7,6.56-7.7,2.78,0,4.76,1.72,4.76,4.23,0,2.9-1.94,5.6-4.82,5.6Z"/>
        <path class="cls-2" d="m47.61,117.27s-.02.1-.04.16c-1.39,3.08-2.35,4.29-3.74,4.29-1,0-1.47-.72-1.47-1.72,0-1.88,1.59-4.49,1.59-6.07,0-.59-.27-1.06-1.06-1.06-.51,0-1.08.47-1.61,1.12-1.29,1.63-1.47,2.43-3.29,7.42-.08.25-.33.35-.55.29-.22-.08-.35-.33-.27-.55,1.94-5.39,3.7-10.26,4.37-12.24.06-.16.22-.27.41-.27.31,0,.51.31.41.57-.18.53-.63,1.82-1.33,3.76.59-.59,1.21-.96,1.86-.96,1.45,0,1.92.84,1.92,1.92,0,1.55-1.59,4.6-1.59,6.07,0,.59.18.86.61.86.98,0,1.78-1.14,2.94-3.78.08-.16.22-.26.39-.26.06,0,.12.02.18.04.16.08.27.22.27.41Z"/>
        <path class="cls-2" d="m52.47,120.42c-.57,0-1.1-.18-1.55-.55-.76,1.02-1.8,1.86-2.78,1.86-1.33,0-1.78-.88-1.78-2.06,0-2.37,1.06-4.35,1.74-5.46.86-1.43,1.86-2.15,2.88-2.15,1.35.04,2.04.96,2.04,2.19,0,1.29-.65,3.29-1.59,4.88.22.29.57.43,1.04.43.86,0,1.57-.78,2.29-2.47.06-.16.23-.26.39-.26.31,0,.53.31.41.59-.9,2.06-1.86,3-3.08,3Zm-1.25-3.04c-.06.16-.06.33-.08.47.63-1.27,1.02-2.68,1.02-3.62,0-.86-.51-1.31-1.21-1.31-.78,0-1.51.72-2.1,1.74-.53.88-1.61,2.86-1.61,4.96,0,.74.25,1.25.9,1.25.76,0,1.61-.82,2.29-1.78-.22-.53-.18-1.43-.04-1.94.04-.2.22-.33.43-.33.29,0,.49.26.41.55Z"/>
        <path class="cls-2" d="m59.85,117.25c0,.06-.02.12-.04.18-1.18,2.55-2.33,4.29-4.21,4.29-.98,0-1.51-.74-1.51-1.72,0-.76.51-2.53,1.17-4.21l1.04-2.92h-1.29c-.25,0-.43-.18-.43-.43,0-.22.18-.43.43-.43h1.57c.04-.08,1.04-2.96,1.06-3.04.06-.18.22-.29.41-.29.31,0,.51.31.41.57.06-.12-.82,2.37-.96,2.76h1.37c.25,0,.43.2.43.43,0,.25-.18.43-.43.43h-1.68c-.12.39-.47,1.33-1.14,3.23-.84,2.37-1.1,3.31-1.1,3.9,0,.55.25.86.65.86,1.47,0,2.45-1.7,3.41-3.8.08-.14.25-.25.41-.25.06,0,.12.02.18.04.14.08.25.22.25.39Z"/>
        <path class="cls-2" d="m64.71,120.42c-.57,0-1.1-.18-1.55-.55-.76,1.02-1.8,1.86-2.78,1.86-1.33,0-1.78-.88-1.78-2.06,0-2.37,1.06-4.35,1.74-5.46.86-1.43,1.86-2.15,2.88-2.15,1.35.04,2.04.96,2.04,2.19,0,1.29-.65,3.29-1.59,4.88.22.29.57.43,1.04.43.86,0,1.57-.78,2.29-2.47.06-.16.22-.26.39-.26.31,0,.53.31.41.59-.9,2.06-1.86,3-3.08,3Zm-1.25-3.04c-.06.16-.06.33-.08.47.63-1.27,1.02-2.68,1.02-3.62,0-.86-.51-1.31-1.21-1.31-.78,0-1.51.72-2.1,1.74-.53.88-1.61,2.86-1.61,4.96,0,.74.25,1.25.9,1.25.76,0,1.61-.82,2.29-1.78-.22-.53-.18-1.43-.04-1.94.04-.2.22-.33.43-.33.29,0,.49.26.41.55Z"/>
        <path class="cls-2" d="m69.65,121.73c-1.7,0-3.09-1.33-3.09-2.98.12-1.84,1.14-3.04,2.78-3.04,1.06,0,1.92.94,1.96,2.06,0,.25-.18.43-.43.43s-.43-.18-.43-.43c-.04-.69-.55-1.21-1.08-1.21-1.12,0-1.86.94-1.94,2.19,0,1.25,1.04,2.12,2.23,2.12,1.65,0,2.84-1.08,2.88-2.78-.02-.9-.33-1.49-1.41-3.39-.14.14-.29.31-.41.47-.08.1-.2.16-.33.16-.1,0-.22-.02-.31-.1-.1-.08-.14-.23-.14-.35,0-.08.04-.18.1-.27.25-.29.45-.51.69-.76-.18-.43-.31-.88-.31-1.35,0-1.06.65-1.96,1.49-1.96.59,0,.94.47.98,1.06,0,.82-.51,1.72-1.14,2.43,1.06,1.96,1.61,2.68,1.63,4.07-.04,2.21-1.67,3.62-3.74,3.62Zm2.37-10.11c0-.29-.22-.22-.43-.02-.25.25-.31.61-.31.9,0,.22.04.43.1.65.33-.45.63-1.08.63-1.53Z"/>
      </g>
      <g>
        <path class="cls-1" d="m84.86,77.26c-.07-.07-.17-.12-.26-.17-.07-.04-.23-.15-.15-.08-.12-.04-.21-.05-.34-.02-.2.06-.33.33-.24.52.04.08.09.15.15.21,0,.01-.02.02-.03.04-.09.1-.08.28.03.37.36.27,1.17.23,1.09-.41-.02-.19-.12-.33-.26-.46Z"/>
        <path class="cls-1" d="m63.38,75.56c-.46-.02-.88,0-1.34.07-.29.05-.58.09-.88.13-.15.02-1.57.28-.49,0,.09-.02.09-.17,0-.2-.45-.17-.97-.26-1.49-.27-.4-.52-1.14-.64-1.89-.54-.03-.07-.08-.15-.16-.22-.7-.64-1.92-.7-2.93-.37-.71-.19-1.48-.09-2.11.3-.08.05-.02.17.06.16.21,0,.42-.02.64-.03.12,0,.1-.19-.02-.19-.92.05.44-.16.62-.17.31-.07.51-.07.61,0-.41.16-.77.39-1.03.67-.05.06,0,.14.06.16.67.18,1.27-.02,1.65-.61.03-.05.02-.1-.03-.13-.05-.02-.1-.04-.15-.06.48-.11,1-.11,1.48-.07.48,0,.74.22.79.66-.59.16-1.13.42-1.45.71-.06.05-.06.18.04.19.3.02,1.74-.27,1.94-.76.27-.03.54-.03.8-.01.37-.01.56.1.56.34-.46.06-.91.2-1.28.46-.08.05-.05.18.04.19.25.05,1.99.11,1.88-.46.39,0,1.38.02.48.25-.11.03-.09.2.02.21,1.2.14,2.37-.19,3.57-.25.1,0,.11-.17,0-.17Zm-9.47-.68c-.6-.15-.56-.3.12-.46.02,0,.04-.01.06-.02,0,.12-.05.27-.18.48Zm2.2.42c.21-.1.44-.17.67-.23,0,.06,0,.11,0,.17-.28.33-.5.35-.66.05Zm2.41.49c-.27.04-.54.05-.82.02.25.02.57-.09.89-.18-.02.05-.04.11-.07.16Z"/>
        <path class="cls-1" d="m84.24,31.07c-1.56.95-2.48,3.4-2.55,5.13-1.74-2.17-6.38-3.07-6.31.71.04,1.96,1.65,3.51,2.98,4.77,1.63,1.54,3.53,2.98,5.5,4.07,0,.02.01.05.02.07.07.17.36.22.43.02,0,0,0-.02,0-.03.19-.11.3-.37.18-.56.79-2.38,1.35-4.93,2.14-7.34.61-1.84,1.46-4.14.71-6.06-.53-1.34-2.05-1.42-3.1-.78Zm-6.92,8.47c-1.09-1.26-2.19-3.53-.04-4.43.07-.03.13-.03.2-.05-.05.05-.08.11-.09.19-.05,1.42-.22,2.96.01,4.38-.03-.03-.06-.05-.08-.08Zm8.57-1.98c-.55,1.71-2.25,4.88-2.22,7.12-.19-.12-.37-.25-.56-.37.22-.86.33-1.75.38-2.65.04.4.07.79.15,1.18.02.11.19.13.2,0,.16-2.26.08-4.54.18-6.8.01-.3-.46-.39-.47-.08-.02.48-.05.96-.08,1.45-.03-.98-.05-1.95,0-2.89.02-.35-.51-.46-.55-.1-.32,3.11-.52,6.47-.24,9.6-1.72-1.16-3.39-2.4-4.82-3.92,0,0,0,0,0-.01.29-1.58.1-3.3.06-4.91,0-.13-.08-.19-.17-.21,1.52-.25,3.22,1.09,3.89,2.29.1.18.31.14.43.02.01,1.18,0,2.35-.06,3.54,0,.09.12.12.15.02.38-1.4.31-2.84.28-4.27,0-.08-.04-.12-.1-.14.01-.03.03-.06.04-.11.22-1.66.9-3.64,2.2-4.76,1.74.07,2.5.73,2.27,2-.03.35-.08.71-.16,1.05-.17,1-.51,1.99-.82,2.94Z"/>
        <path class="cls-1" d="m72.39,28.62c-1.02.26-1.68.6-2.18,1.19-.02.02-.05.02-.07.06-.03.04-.05.09-.07.13-.14.18-.25.41-.36.64-.08-.03-.18-.04-.26-.01-.34-.98-1.26-1.79-2.22-2.24,0-.04,0-.07.01-.11.06-.41-.54-.52-.63-.12-.08-.02-.16-.05-.23-.07-.18-.04-.34.1-.37.26-.21,1.11-.17,2.19.02,3.26,0,.41.05.81.19,1.17.02.05.06.08.1.11.45,1.56,1.17,3.07,1.84,4.54,0,.07,0,.14,0,.2.03.26.36.3.48.08.18-.31.3-.66.42-1,1.48-2.42,3.46-4.82,3.73-7.74.02-.25-.18-.41-.41-.34Zm-4.94,1.12c-.14.64-.27,1.28-.43,1.92-.04.16-.09.31-.14.47-.02-.07-.05-.13-.07-.2.05-.42.06-.86.11-1.27.06-.52.14-1.03.21-1.55.16.1.33.25.51.4-.09.04-.16.11-.19.23Zm.04,4.04c-.05-.13-.1-.26-.16-.39.23-.4.31-.89.42-1.33.16-.67.26-1.36.35-2.05.11.14.2.3.3.46-.37.97-.83,2.19-.92,3.31Zm4.12-2.91s0-.02.01-.03c.13-.38-.43-.65-.57-.27-.1.27-.22.54-.33.81-.16-.07-.37-.04-.48.17-.27.53-.59,1.13-.91,1.76.11-.45.22-.89.34-1.34.19.06.39,0,.47-.22.39-1.12.87-2.01,1.95-2.4-.11.52-.29,1.02-.49,1.52Z"/>
        <path class="cls-1" d="m64.37,61.68c-1.2.58-2.02,1.42-2.37,2.64-.29-1.14-1.63-2.3-2.61-1.55-.96.73-.89,2.11-.56,3.12.15.45.35.88.57,1.3,0,.07,0,.14,0,.21.01.1.1.14.18.13.17.33.35.65.52.97,0,.05,0,.09,0,.14,0,.06.06.08.11.07.23.43.44.87.6,1.33.12.33.66.22.61-.14-.03-.18-.07-.36-.12-.54.32-.96.41-2.01.57-3,.03-.18-.25-.23-.28-.05-.16.86-.38,1.74-.45,2.62-.16-.4-.36-.78-.58-1.16.28-1.06.37-2.18.5-3.26.02-.2-.27-.26-.32-.05-.2.87-.42,1.77-.56,2.67-.08-.14-.17-.28-.24-.42.31-1.05.4-2.19.53-3.28.09.08.18.17.24.23.27.32.74,1.02.61,1.47-.1.36.43.48.59.19.01-.02.02-.04.02-.07.18.19.57.15.66-.18.3-.99.72-1.74,1.44-2.37-.45,2.34-1.71,4.44-2.64,6.62-.19.44.49.76.68.32,1.08-2.54,2.4-4.81,2.69-7.61.02-.21-.18-.45-.41-.34Zm-4.87,4.02c-.12-.31-.21-.64-.25-.97-.05-.42.28-1.25.69-1.47.03-.01.06,0,.08,0-.18.8-.39,1.62-.53,2.45Z"/>
        <path class="cls-1" d="m94.18,27.92s-.08-.04-.14-.05c-11.66-2.05-23.14-5.01-34.82-6.89-4.45-.71-8.85-1.64-13.3-2.35-1.04-.16-2.55-.52-3.89-.47-.12-.07-.28-.07-.39.03-.37.04-.71.14-1.03.28,0-.11,0-.23-.01-.34-.04-.5-.79-.42-.78.08.07,1.86-.26,3.74-.31,5.6-.81,3.84-1.28,7.78-1.71,11.71-2.15,10.37-4.06,20.86-5.04,31.28-.05.27-.1.55-.15.82l-.14-.02c-.61-.1-.77.83-.16.94,16.83,3.18,33.75,5.71,50.46,9.46.75.17.95-1.01.21-1.17-4.85-1.07-9.71-2.07-14.59-3.02.02,0,.04,0,.05-.01,3.16-1.67,5.91-4.09,8.6-6.57.51.77,1.04,1.52,1.56,2.28.1.14.25.16.38.11.18.12.44.08.51-.2.49-2.07,1.66-4.34,2.49-6.63.09-.08.18-.16.27-.23,2.26-1.86,5.58-4.38,6.98-7.38-1.19,7.59-2.31,15.18-3.57,22.72-.12.7.95.88,1.08.19,2.97-16.51,6.15-33.17,8.28-49.81.07-.52-.59-.7-.83-.34Zm-15.88,33.51c0-.46-.68-.37-.7.07,0,.06,0,.13,0,.19,0-.41,0-.82.01-1.23,0-.25-.28-.35-.48-.28,0-.03,0-.07,0-.1,0-.48-.73-.4-.74.07-.02.97-.13,1.94-.15,2.91-.02.49-.04.98.03,1.46-.08-.12-.16-.24-.24-.37.16-.84.04-1.75.11-2.61.07-.77.18-1.52.3-2.28.02-.03.02-.07.01-.1,0-.03.01-.06.02-.08.81.49,1.58,1.7,1.9,2.39-.02.03-.04.07-.03.12.13.85.14,1.7.11,2.56-.06-.92-.16-1.85-.15-2.71Zm1,.84c-.09.46-.19.97-.29,1.51-.08-.64-.17-1.26-.27-1.86.13,0,.27-.05.33-.18.18.04.38-.05.4-.29.02-.36.07-.71.13-1.06-.02.57-.05,1.14-.07,1.72-.1-.01-.21.04-.24.17Zm1.86.07c-.14.12-.29.24-.43.35,0-.25-.02-.49-.02-.74,0-1.05-.02-2.08.13-3.11.03-.21-.28-.27-.32-.06-.1.56-.18,1.12-.26,1.68,0-.23,0-.45,0-.68,0-.23-.25-.31-.44-.25.41-.92,1.77-3.44,2.09-2.65.02.06.03.12.05.17-.17-.09-.46,0-.45.27,0,.18-.02.36-.02.55-.14-.07-.33-.04-.36.16-.13.74-.19,1.48-.25,2.23-.05.6-.23,1.21-.06,1.8.04.12.23.16.31.05.11-.15.17-.32.22-.49.03,0,.06,0,.09-.01-.09.25-.18.5-.27.73Zm7.28-7.82c-.73,1.87-2.46,3.45-3.86,4.82-.69.67-1.4,1.31-2.14,1.93.47-1.77.6-3.53-.13-5.2-.09-.2-.32-.28-.51-.16-1.81,1.19-2.68,2.71-2.98,4.73-.47-1.05-1.42-1.95-2.37-2.28-.1-.11-.26-.15-.4-.11-.97-.17-1.87.29-2.23,1.86-.34,1.51.93,3.38,1.63,4.61.31.53.65,1.05.98,1.57-2.72,2.46-5.23,5.04-8.51,6.78-.29.16-.24.46-.05.64-11.14-2.16-22.34-4.05-33.54-5.82.12-.11.19-.27.19-.48-.11-6.35,1.41-12.48,2.64-18.66.24-1,.47-2,.67-3,.18-.88.35-1.77.52-2.65.74,3.01,2.86,6.03,5.4,8.82-.39,1-.57,2.15-.54,3.13-.65-.86-1.57-1.51-2.68-1.54-1.54-.03-2.54,1.09-2.53,2.63.02,3.14,3.66,5.32,6.54,6.91,0,0,.01,0,.02,0,.44.24.86.47,1.24.69,0,.16,0,.32.04.47.05.22.37.42.53.17.05-.08.1-.18.15-.28.31.01.5-.42.3-.68.52-1.48.61-3.47.85-4.82.14-.77.28-1.59.4-2.42,1.9,1.74,3.76,3.3,5.21,4.59-.08.17-.15.34-.23.51-.24.51.55.89.79.38.04-.09.08-.18.12-.27.12.11.24.22.36.33.41.38.95-.28.56-.66-.18-.17-.36-.34-.54-.51,1.12-2.55,2.1-5.15,3.02-7.77.06.37.12.73.18,1.1-.07.2-.14.39-.2.58-.05.17.2.26.3.14,0,0,0-.01.01-.02,0,.04.01.07.02.11-.06.08-.11.16-.16.24-.1.15-.03.44.21.4.01,0,.03-.01.04-.01.05.34.09.68.13,1.02-.06.16-.12.31-.17.47-.05.17.1.26.25.25.04.38.08.76.1,1.14-.03.02-.06.04-.09.06-.41.25-.07.81.33.73.21.09.51-.02.56-.3,2.64-1.59,5.59-3.32,8.05-5.45-.06,5.98.53,12.11,1.9,17.93.1.4.75.24.7-.16-.83-6.22-1.9-12.29-1.74-18.53.94-.9,1.78-1.87,2.45-2.93.77-1.2.82-3.11-.68-3.68-.21-.08-.43-.12-.65-.15,1.1-2.63,3.07-4.44,5.61-.93,1.76,2.43,2.12,5.81,1.64,8.68-.07.43.57.54.67.11.01-.08.03-.17.04-.26.06,0,.12,0,.17-.05,1.85-1.57,3.95-2.64,6.24-3.43,3.23-1.12,6.64.92,5.17,4.68Zm-13.65,7.24c-.3-.82-.4-1.69.16-2.43-.07.5-.13.99-.14,1.5,0,.3-.03.62-.02.94Zm-22.94-26.31c.75-.91,1.13-2.88,1.71-3.92,1.84-3.34,8.69-8.31,9.4-.78.22,2.34-.6,4.91-1.22,7.14-.06.21-.12.43-.18.64-.47-.27-1.01-.3-1.65-.02-2.33,1.04-2.91,4.45-3.13,6.68-.08.82-.08,1.63-.04,2.45-.09.22-.19.43-.27.65-.05.15.12.27.23.15.02-.03.05-.06.07-.08.04.61.12,1.21.2,1.82-.03.07-.06.15-.08.22-.03.11.04.19.14.21.05.33.09.66.14.99-1.1,2.83-2.27,5.63-3.49,8.33-1.83-1.72-3.67-3.42-5.45-5.17.09-1.27.04-2.53-.32-3.7-.43-1.41-2-1.75-3.04-.84-.16.14-.31.3-.44.48-.44-.51-.9-1-1.33-1.54-1.89-2.34-3.34-4.97-3.94-7.93-.1-.51-.15-1-.15-1.46.15-.78.3-1.56.45-2.34,1.77-4.11,8.35-4.51,11.36-.3.22.31.73.21.8-.18.08-.51.17-1.01.23-1.5Zm11.37,18.18c.07.1.21.12.32.02.2-.2.38-.43.55-.68-.06.21-.11.42-.14.64-.03.26.29.43.47.22.23-.27.42-.58.59-.9-.07.22-.12.45-.17.68-.92.71-1.86,1.39-2.82,2.05.43-.65.83-1.33,1.21-2.03Zm.4-2.72c.45-1,.89-2.01,1.34-3.02.02-.05.03-.1.03-.14.49-.25,1.12-.54,1.78-.77-.05.04-.09.09-.12.16-.16.36-.32.73-.49,1.09-.15-.12-.36-.13-.51.07-.11.15-.21.32-.31.48-.15-.22-.51-.28-.65.03-.32.72-.69,1.42-1.07,2.11Zm-4.71,6.05c-.07.19.16.34.3.19.09-.09.16-.19.24-.29,0,.17.18.28.36.18.42-.22.78-.59,1.1-1.01-.01.03-.02.05-.03.08-.04.11-.02.21.03.3-.68.44-1.37.88-2.05,1.31-.03-.48-.08-.96-.13-1.44,1.01-1.31,1.73-2.91,2.48-4.36.82-1.58,1.56-3.19,2.27-4.82-.02.5-.09,1-.17,1.48-1.61,2.68-3.3,5.5-4.39,8.37Zm2.44-11.02c.47-1.29.9-2.57,1.42-3.66.04.12.09.24.13.36.05.17.08.35.13.53-.56.9-1.12,1.82-1.68,2.77Zm.89-4.1c-.88,1.65-1.6,3.36-2.32,5.09-.51,1.22-1.19,2.39-1.77,3.59.32-.93.64-1.85.96-2.78,1.02-1.98,1.76-4.21,2.62-6.11.1-.23-.11-.41-.31-.38.13-.34.25-.67.37-1.02.32.43.54.93.74,1.43-.12,0-.23.05-.3.18Zm-1.94-1.75c-.83,1.91-1.84,3.76-2.73,5.65,0-.16,0-.31.02-.47,1.15-1.67,1.79-3.92,2.53-5.78.36-.13.74-.12,1.12.15-.42,1.45-.89,2.9-1.36,4.36-.79,1.45-1.6,2.91-2.24,4.41-.03-.35-.06-.69-.07-1.04,1.5-2.08,2.45-4.65,3.28-7.02.13-.36-.39-.63-.55-.26Zm-13.13,15.25c.05.05.11.1.16.15-.12,1.26-.33,2.52-.57,3.77-.02-.47-.07-.94-.14-1.42.03-.03.06-.06.07-.11.09-.28.14-.57.18-.87.12.01.23-.04.27-.19.1-.42.08-.88.02-1.33Zm.26-2.93c-.2-.58-.43-1.14-.64-1.66-.07-.19-.25-.24-.4-.2-.02-.12-.04-.24-.05-.37,0-.06-.03-.11-.06-.15.76.18,1.11,2.07,1.15,2.36,0,0,0,0,0,.01Zm-5.19,4.37c.2,1.41.34,3.21,1.07,4.5-.22-.14-.44-.28-.66-.42,0-.73-.37-1.64-.47-2.29-.19-1.27-.32-2.55-.48-3.82.65.47,1.2,1.18,1.45,1.72.08.18.24.25.39.24.07,1.07.08,2.26.19,3.41-.08-.25-.16-.51-.22-.76-.23-.87-.4-1.76-.55-2.65-.08-.46-.8-.4-.73.07Zm-.72,3.26c-.31-.24-.62-.47-.91-.73-.04-.67-.19-1.33-.25-2-.05-.54-.07-1.08-.09-1.62.07.61.16,1.21.26,1.82.14.79.23,1.81.84,2.37.04.03.08.05.13.05,0,.04.01.07.02.11Zm2.56-3.68c-.02-.14-.11-.2-.21-.22-.02-.04-.04-.07-.05-.11.08-.06.15-.14.15-.28-.01-1.03.1-2.14.42-3.17.03.03.06.06.08.09.03.81.09,1.62.15,2.42,0-.02,0-.05-.01-.07-.06-.35-.61-.31-.56.05.13,1,.19,2.06.27,3.13-.08-.62-.15-1.23-.23-1.85Zm.84-5.1c.11-.2.23-.4.37-.59.14-.2.27-.33.4-.43,0,0,0,.02,0,.02.02.16.04.32.06.49-.15.03-.27.15-.22.34.07.34.12.67.18,1.01-.26-.28-.53-.55-.78-.83Zm-5.36,6.99c-.85-1.1-1.38-2.57-.15-3.63.05-.04.1-.08.15-.11-.07,1.14-.21,2.51,0,3.74Zm50.24-6.83c-.86-5.59-9.91-1.62-12.9,1.12.06-3.83-1.97-13.33-6.56-10.57-1.35.81-2.16,2.24-2.65,3.85-1.05.23-2.11.81-2.98,1.37-.17-.14-.47-.16-.63.08,0-.46-.02-.97-.05-1.51.14-.35.3-.69.44-1.04.16-.42-.31-.73-.61-.56-.03-.24-.06-.47-.1-.71.14-.26.28-.53.43-.79.24-.41-.41-.7-.65-.32-.3-1.32-.73-2.52-1.35-3.25,1.17-3.52,2-7.29,1.02-10.82-.96-3.43-3.91-2.86-6.51-1.61-2.6,1.26-4.35,4.84-4.76,7.1-.07-.24-.48-.24-.51.03-.03.3-.06.53-.1.73-.03.03-.06.06-.07.1l-.14.53c-.46.66-1.32-.88-2.46-1.4-1.53-.69-2.87-.92-4.55-.75-1.89.19-3.33,1.32-4.35,2.78.94-4.97,1.89-9.94,2.98-14.89.04-.19-.27-.3-.33-.11-.8,2.4-1.48,4.86-2.09,7.33.31-2.02.62-4.04.89-6.07.03-.21-.15-.3-.3-.28.03-.49.08-.98.11-1.46.15.16.42.22.56.01,7.16,2.21,14.64,2.66,22.03,3.73,9.81,1.42,19.45,4.19,29.2,5.97.54.1.68-.74.15-.84-8.57-1.51-17.05-3.5-25.57-5.28-8.43-1.76-17.23-2.57-25.75-3.67.18-.28.24-.41.41-.79.03-.08.04-.16.02-.23,2.36-.1,4.98.62,7.17,1.03,4.62.86,9.24,1.56,13.88,2.29,10.32,1.63,20.46,4.47,30.75,6.33.03,0,.05,0,.07,0-1.61,7.45-2.91,14.99-4.13,22.55Z"/>
        <path class="cls-1" d="m78.47,35.98c.23,1.5-.04,3.2.4,4.65.05.17.27.11.31-.03.45-1.45.06-3.28-.3-4.72-.06-.24-.45-.14-.42.1Z"/>
        <path class="cls-1" d="m79.94,37.89c-.22,1.21-.3,2.65.24,3.78.03.08.16.06.15-.03-.13-1.26-.35-2.44-.17-3.71.02-.14-.2-.18-.22-.04Z"/>
        <path class="cls-1" d="m81.14,37.83c.05,1.06.02,2.17.27,3.21.03.1.18.06.18-.04-.04-1.06-.23-2.12-.33-3.18,0-.08-.12-.07-.12.01Z"/>
        <path class="cls-1" d="m84.32,33.31c.17,2.18-.16,4.37.13,6.54.02.12.19.13.22,0,.49-2.13.36-4.43.13-6.59-.03-.3-.5-.26-.47.05Z"/>
        <path class="cls-1" d="m85.37,32.34c0,1.43,0,2.86.2,4.28.02.13.22.15.24,0,.13-1.45.05-2.88-.02-4.33-.01-.27-.41-.22-.41.04Z"/>
        <path class="cls-1" d="m13.3,22.32c-.24,2.93-.54,5.88-.25,8.82.01.13.23.15.24.01.19-2.92.34-5.83.52-8.74.02-.33-.49-.43-.52-.09Z"/>
        <path class="cls-1" d="m15.69,21.88c-.58,4.96-.84,10-.79,14.99,0,.14.22.14.24,0,.61-4.95.49-9.96.99-14.92.03-.28-.4-.36-.43-.08Z"/>
        <path class="cls-1" d="m25.05,63.09c-.03.28.36.35.43.07.16-.68.31-1.36.46-2.04.08,0,.15-.07.15-.18,0-.15,0-.3,0-.45,1.93-8.8,2.91-17.97,3.17-26.94,0-.32-.55-.34-.56-.02-.38,7.48-1.65,14.79-2.7,22.15,0-12.22,1.49-24.25,2.2-36.48.01-.17-.25-.22-.26-.04-1.17,13.11-3.7,26.61-2.39,39.82-.18,1.36-.34,2.73-.49,4.1Z"/>
        <path class="cls-1" d="m32.25,29.6c1.05-4.36,1.33-8.94,1.51-13.41.02-.42-.63-.55-.66-.11-.29,4.5-1,8.93-1.44,13.42-.04.39.5.48.59.1Z"/>
        <path class="cls-1" d="m61.33,15.06c.03.19.28.25.37.07.5-1.04.25-2.42.17-3.53-.03-.42-.67-.35-.64.06.04.53.07,1.06.08,1.59.02.6-.07,1.21.02,1.81Z"/>
        <path class="cls-1" d="m89.88,79.69c3.69-21.75,8.57-33.5,11.18-55.4.06-.53-.69-.66-.81-.14-.02.09-.04.19-.06.29-.04-.04-.09-.07-.16-.1-.61-.21-1.23-.41-1.84-.6.81.04,1.61.07,2.41.08.73,0,.62-1.13-.11-1.14-3.52,0-6.93-.42-10.3-.99-1.86-.39-3.73-.73-5.6-1.05-2.86-.58-5.72-1.2-8.63-1.71-.15-.02-.27.07-.33.19-1.59-.28-3.17-.58-4.74-.91,0-.04-.02-.08-.02-.12.16-.07.29-.25.21-.44-.13-.3-.3-.61-.48-.91-.93-4.09-3.01-8.13-4.22-12.08-.03-.08-.09-.12-.15-.13-.31-.99-.61-1.98-.9-2.97-.04-.16-.18-.22-.32-.23-.02-.13-.14-.25-.27-.22-.36.06-.59.23-.68.56-.01,0-.02,0-.03,0-.23.01-.46.04-.69.05.06,0,.13,0,.19-.05.08-.07.17-.14.25-.2.04.02.06.06.11.07.28.05.4-.22.34-.43.13-.11.26-.21.39-.32.31-.25.17-.88-.29-.79-10.99,2.15-21.58,5.77-32.4,8.61-5.01,1.31-10.04,2.55-15.02,3.99-3.85,1.11-9.55,2.3-13.26,4.69-.91.1-1.81.17-2.71.19-.09,0-.16.04-.22.08-.18,0-.38.15-.3.38.1.31.19.63.29.94-.27-.18-.73-.03-.67.38l.02.1c.04.28.37.49.63.32.06.01.13,0,.2-.03.02,0,.03-.01.05-.02,4.14,13.51,4.7,16.48,7.93,30.22.52,2.21,3.41,8.48,6.07,14.67-.08.06,2.33,5.95,2.35,6.07.31,1.7.32,1.54.84,3.19.61,1.92,1.1,4.13,2.02,5.92.15.28.54.2.54-.13,0-.14-.01-.28-.02-.42.07.23.12.46.19.69.12.41.81.36.84-.08,0-.06,0-.12.01-.19.02,0,.04,0,.06,0,.04.06.06.14.12.19.14.16.36.15.48-.04.03-.06.04-.13.06-.2,2.04-.21,4.15-1.17,6.02-1.84,2.31-.83,5.1-1.52,7.14-2.89,16.77,3.46,33.72,6.82,50.71,8.28-.04.04-.07.08-.09.14-.02.07-.05.14-.07.21-.3.83,1.02,1.06,1.02.18,0-.08,0-.15,0-.23,0-.09-.03-.17-.08-.23.29.02.57.05.86.08.05,0,.1,0,.14-.02-.11.3-.24.6-.34.91-.25.76.82,1.1,1.04.33.42-1.44.84-2.91,1.36-4.31.08-.22-.05-.41-.22-.46ZM30.34,9.89c5.32-1.36,10.58-2.92,15.85-4.46,2.69-.78,5.39-1.53,8.1-2.26,1.99-.52,3.99-1.01,6-1.46.91-.27,1.84-.44,2.79-.52-.18.2-.01.49.21.54-9.91.71-19.05,4.87-28.45,7.78-5.65,1.75-11.41,3.27-17.14,4.71-3.3.83-6.68,1.81-10.08,2.48,7.36-2.88,15.04-4.84,22.73-6.81ZM1.53,19.35c.19-.09.38-.17.56-.26.17,1.16.36,2.31.57,3.46-.36-1.07-.75-2.13-1.14-3.19Zm16.1,47.75c-.13-.71-.09-1.47-.42-2.07-.94-1.67-3.87-5.77-5.12-8.98-1.75-4.5-2.6-9.29-3.82-13.95,1.38,3.98,2.8,7.95,4.08,11.93,2.47,7.64,3.84,5.55,5.46,13.4-.06-.11-.12-.21-.18-.32Zm1.77,7.77s-.01-.03-.02-.04c-.15-.42-.3-.85-.45-1.27-.47-1.56-.76-3.22-1.03-4.84.13.29.25.59.37.89.42,1.96.86,3.91,1.34,5.85-.08-.19-.14-.39-.22-.59Zm2.82,2.48c-.35-1.12-.91-2.29-1.14-2.93-.52-1.45-1.13-2.85-1.79-4.23-1.05-1.74-1.45-2.32-2.03-4.48-.38-1.39-1.76-4.7-3.05-8.16-4.72-12.69-9.02-25.35-11.55-38.72.46-.22.93-.44,1.39-.65,8.55-.63,17.55-3.98,25.57-6.26,11.33-3.21,22.62-8.73,34.49-9.39.21-.01.33-.14.37-.3.1-.02.18-.08.24-.17,1.11,4.83,2.95,9.45,3.85,14.33.1.54.92.47.88-.04.19.56.39,1.12.59,1.68-.67-.14-1.34-.27-2-.43-.95-.22-1.9-.44-2.85-.66.05-.08.08-.16.05-.27-.2-.62-.65-1.15-.93-1.74-.4-.83-.69-1.71-.97-2.58-.5-1.52-.93-3.07-1.35-4.62.23,0,.45-.03.68-.03.58,0,.49-.9-.09-.9-.3,0-.6.03-.9.03-.09-.06-.21-.04-.3.01-.11,0-.22.01-.33.02-.04-.18-.19-.34-.39-.32-.42.02-.87.21-1.3.44-3.51.33-7.12,1.18-10.52,2.41-.06,0-.12.03-.18.06-.06.02-.11.05-.17.07-2.95.71-5.89,1.47-8.91,1.84-.11.01-.18.06-.24.12-1.18-.22-2.35-.45-3.54-.67-.74-.13-.94,1.01-.2,1.14.02,0,.05,0,.07.01-.06.06-.1.15-.1.25,0,.37-.03.75-.04,1.12-.12.05-.24.09-.36.13,0-.28,0-.55-.02-.83-.01-.28-.47-.3-.49-.02-.03.36-.07.72-.1,1.07-2.92,1.02-6.05,1.48-8.85,2.75-4.66,1-9.32,2.09-13.73,3.82,0-.09,0-.18,0-.28,0-.31-.51-.33-.54-.02-.02.18-.03.36-.04.54-.58.24-1.17.46-1.74.72-.2-.11-.5.03-.59.28-.14.07-.28.13-.41.19-.45.22-.2.95.28.74.09-.04.18-.07.26-.11,2.01,8.39,4.81,16.54,7.61,24.7,0,.22-.01.44-.02.66,0,.1.16.1.17,0,0-.06.01-.12.02-.17.39,1.13.77,2.26,1.16,3.4.08.93.19,1.86.34,2.79.04.26.43.23.41-.04-.01-.19,0-.38-.02-.57.51,1.52,1.01,3.04,1.5,4.57,0,.02,0,.04,0,.06,0,.03.02.04.03.06,1.03,3.22,2.01,6.46,2.88,9.74.02.09.07.15.13.2-.25.09-.5.17-.76.22-.49.09-.43.79.08.77.79-.03,1.35-.37,2.17-.74.25-.11.65-.33.98-.57-.7,4.66-.29,2.45-.69,3.55-.42.17-.48,1.45.07,1.57,2.7.55,3.92.92,6.63,1.48-1.64.08-3.41.74-4.81,1.2-1.66.54-3.28,1.24-4.8,2.1ZM60.81,12.78c.06-1.03.04-2.06-.07-3.08-.04-.37-.61-.32-.58.06.08,1.12.02,2.21-.08,3.33-.07.89-.26,1.81-.01,2.67.01.03.03.05.05.07-.44-.09-.87-.19-1.3-.29.88-2.25.9-4.94,1.2-7.3.03-.21-.28-.27-.33-.06-.51,2.31-1.4,4.85-1.34,7.26-.32-.07-.64-.14-.97-.21.61-1.04.56-2.42.63-3.6.08-1.17.04-2.33.06-3.5,0-.01-.01-.02-.01-.03.02,0,.05,0,.07,0,.08.19.31.33.55.18.2-.13.42-.22.62-.33.67-.08,1.34-.15,2.01-.18.32,1.82.72,3.59,1.3,5.37.31.95.78,2.81,1.69,3.62-1.32-.31-2.65-.59-3.98-.88.05-.02.1-.04.12-.1.35-.93.29-2.01.34-2.99Zm-5.08-.85c-.13.89-.36,1.92-.05,2.78.06.18.33.2.41.02.37-.81.32-1.79.41-2.67.13-1.17.3-2.34.46-3.51.02-.14-.05-.22-.14-.28.28-.05.56-.08.84-.12-.09,1.12-.23,2.23-.34,3.34-.12,1.18-.51,2.47-.27,3.64-.65-.14-1.3-.29-1.96-.43.44-2.01.49-4.22.71-6.27.21-.04.43-.07.65-.11-.03.04-.07.06-.08.12-.25,1.16-.48,2.31-.65,3.48Zm-4.63,1.94c-.31-.07-.63-.13-.94-.2.21-1.04.17-2.23.13-3.2,0-.05-.03-.07-.04-.1,1.67-.45,3.3-.99,4.82-1.64.08-.03.12-.1.14-.17.02,0,.04-.01.06-.01-.46,1.91-1.04,4.01-1.02,5.98-.81-.17-1.62-.35-2.43-.52.22-.97.2-2.08.12-2.99-.03-.33-.51-.28-.5.05.02.92-.24,1.86-.33,2.79Zm-2.08-1.86c.05-.44.06-.88.07-1.33.26-.06.52-.13.77-.2,0,.01-.01.02-.01.03-.01.74-.09,1.47-.2,2.2-.04.27-.1.54-.15.81-.24-.05-.49-.1-.73-.15.19-.42.2-.92.25-1.37Zm-.92,1.23c-.21-.04-.42-.09-.64-.13.1-.69.1-1.41.18-2.09.25-.05.5-.12.75-.17-.03.35-.06.7-.11,1.05-.07.44-.21.91-.19,1.36Zm-1.08-.23c-.18-.04-.37-.08-.55-.12-.02-.55.03-1.1.1-1.65.04-.02.09-.03.14-.05.15-.03.3-.06.45-.09-.14.62-.27,1.29-.14,1.9Zm-1.39-.29c-.56-.11-1.11-.23-1.67-.34.61-.28,1.23-.56,1.86-.82-.08.37-.15.77-.19,1.16Zm-10.23,2.5c-.12,1.79-.31,3.57-.56,5.33.19-1.75.3-3.51.32-5.27.08-.02.16-.04.24-.06Zm-11.96,31.93c-.22,4.6-1.19,9.29-1.12,13.92-.53-1.76-1.09-3.52-1.65-5.28-.06-12.57.57-24.92,1.48-37.48.45-.11.9-.21,1.35-.31.08.12.23.19.39.09.2-.12.41-.22.61-.33,3.28-.75,6.58-1.45,9.85-2.29-.75,7.57-2.13,15.12-3.56,22.68.4-5.77.57-11.57.68-17.31,0-.34-.59-.37-.6-.02-.45,9.25-1.01,18.43-1.99,27.6-.4,2.21-.78,4.43-1.13,6.64-.63,3.76-1.2,7.54-1.77,11.32-.34.03-.83.39-.96.48-.3.2-.61.39-.93.56,0-.06,0-.11-.01-.18-.22-.84-.48-1.67-.71-2.51-.44-6.6.47-13.02.81-19.62.45-8.69.74-17.4,1.28-26.08.02-.28-.41-.37-.44-.08-.91,9.38-1.14,18.79-1.58,28.2Zm-5.54.35c-.25-.74-.5-1.47-.75-2.21.66-7.44.64-14.95,1.05-22.4.01-.23-.35-.3-.36-.06-.53,7.16-.8,14.36-1,21.54-1.89-5.54-3.75-11.08-5.37-16.7.61-2.02.53-4.25.49-6.39,3.21-1.19,6.5-2.08,9.81-2.87-1.97,11.33-2.71,23.57-1.82,35.18-.4-1.2-.8-2.41-1.2-3.61-.03-9.45,1.6-18.71,1.7-28.18,0-.33-.49-.27-.5.05-.28,8.45-2.19,17.13-2.04,25.66Zm-6.89-21.5c-.37-1.31-.74-2.62-1.07-3.95.44-.18.89-.34,1.34-.51-.13,1.48-.22,2.97-.27,4.46Zm17.83,50.58c-2.09.78-4.25,1.32-6.36,2.01-.01-.15-.05-.3-.08-.46,3.44-1.75,7.02-2.55,10.85-3.3-1.51.5-3,1.22-4.42,1.75Zm59.57,5.61c-.08-.07-.18-.13-.32-.15-21.35-2.04-42.06-7.35-63.21-10.54.38-1.94.7-4.18,1.03-6.28,0,1.66.01,3.32.09,4.99.04.71,1.15.61,1.11-.11-.6-10.66,1.85-11.13,3.08-21.67.22-1.21.45-2.42.69-3.62,2.17-10.81,6.06-21.47,5.39-32.64,0-.03-.01-.05-.02-.07,3.15.55,6.29,1.14,9.43,1.75.07.29.2.54.42.7.11.08.29.07.35-.08.06-.15.08-.3.09-.45.96.19,1.91.4,2.87.6,0,.03,0,.05,0,.08.02.2.3.25.38.07.01-.02.02-.04.03-.06.43.09.85.18,1.28.27,0,0,0,0,0,.01.03.17.24.21.33.06.98.2,1.95.42,2.93.62.09.16.27.19.41.09,3.73.79,7.46,1.61,11.17,2.49,5.09,1.21,10.27,2.03,15.44,2.91,3.4.86,6.89,1.54,10.38,2,2.62.6,5.23,1.3,7.79,2.16.17.06.32.04.45-.03-4.92,21.82-7.66,34.27-11.66,56.27-.04.21.03.37.13.48-.02.05-.03.1-.05.15Z"/>
        <path class="cls-1" d="m30.5,56.92c-.71,3.81-1.19,7.56-1.4,11.43,0,.11.17.15.18.03.53-3.8.87-7.63,1.44-11.42.02-.15-.2-.19-.22-.04Z"/>
        <path class="cls-1" d="m79.45,79.25c.15,0,.2-.25.05-.3-2.16-.82-4.71-.82-6.99-1.01-.3-.02-.37.38-.08.46,2.22.55,4.73.94,7.01.86Z"/>
      </g>
      <g>
        <path class="cls-2" d="m35.48,131.81l-3.49,9.2c-.04.13-.17.2-.3.2-.2,0-.34-.23-.27-.41l2.93-7.74c-.94,1.18-1.97,2.33-2.92,2.35-.58,0-.89-.33-.89-.74,0-.17.03-.35.1-.54.06-.13.17-.2.3-.2.04,0,.08.01.13.03.1.04.16.16.16.27,0,.04,0,.07-.01.11-.04.11-.07.23-.07.3,0,.14.1.17.28.17.62-.03,1.38-.86,2.18-1.77,1.2-1.35,1.43-1.97,1.73-1.97.17,0,.28.1.28.24,0,.1-.06.27-.14.5Z"/>
        <path class="cls-2" d="m42.47,131.71c-.21.33-1.06,1.22-1.94,2.14-.6.64-1.15,1.26-1.66,1.9h.57c.17,0,.3.13.3.3s-.13.3-.3.3h-1.02c-.94,1.19-1.84,2.96-2.5,4.64-.07.16-.24.23-.4.17-.14-.06-.23-.24-.17-.4.57-1.46,1.63-3.49,2.32-4.41h-.65c-.16,0-.3-.13-.3-.3s.14-.3.3-.3h1.09c.6-.79,1.25-1.53,1.98-2.31.33-.35.68-.72,1.32-1.4-.24.04-.37.06-.72.06-.62,0-2.72-.57-3.08-.57-.26,0-.78,1.06-1.01,1.52-.07.16-.26.21-.4.14-.16-.07-.21-.25-.14-.4.52-.98.89-1.87,1.54-1.87.98,0,2.03.54,3.08.57.43.01.84,0,1.15-.18.2-.11.43-.17.58-.06.17.13.18.27.04.47Z"/>
        <path class="cls-2" d="m43.05,140.84c0,.27-.23.48-.5.48s-.48-.21-.48-.48.21-.5.48-.5.5.23.5.5Zm.54-2.07c0,.27-.23.48-.5.48s-.48-.21-.48-.48.21-.5.48-.5.5.23.5.5Z"/>
        <path class="cls-2" d="m46.72,141.22c-1.16,0-1.69-1.09-1.72-2.4-.04-3.02,2.07-7.87,4.72-7.95,1.3-.07,2.01.95,2.01,2.35,0,3.34-2.34,7.99-5.02,7.99Zm3.03-9.75c-2.18,0-4.24,4.71-4.15,7.34.03,1.05.31,1.81,1.12,1.81,2.35-.04,4.42-4.45,4.42-7.39,0-1.08-.47-1.77-1.39-1.77Z"/>
        <path class="cls-2" d="m53.78,141.22c-1.16,0-1.69-1.09-1.72-2.4-.04-3.02,2.07-7.87,4.72-7.95,1.3-.07,2.01.95,2.01,2.35,0,3.34-2.34,7.99-5.02,7.99Zm3.03-9.75c-2.18,0-4.24,4.71-4.15,7.34.03,1.05.31,1.81,1.12,1.81,2.35-.04,4.42-4.45,4.42-7.39,0-1.08-.47-1.77-1.39-1.77Z"/>
      </g>
    </g>
  </g>
</svg>