<?xml version="1.0" encoding="UTF-8"?>
<svg id="Layer_2" data-name="Layer 2" xmlns="http://www.w3.org/2000/svg" viewBox="0 0 151.93 136.48">
  <defs>
    <style>
      .cls-1 {
        fill-rule: evenodd;
      }

      .cls-1, .cls-2 {
        fill: #391910;
      }

      .cls-3 {
        fill: #351e16;
      }
    </style>
  </defs>
  <g id="Layer_1-2" data-name="Layer 1">
    <g>
      <g>
        <path class="cls-3" d="m3.84,99.49l.74-1.16c.1-.18.25-.22.41-.14.16.06.2.25.1.41l-.35.63c.29.12.43.39.41.69-.04.39-.37.67-.76.63-.39-.04-.69-.39-.65-.78.02-.1.04-.2.1-.29Zm2.04,0l.74-1.16c.1-.18.25-.22.41-.14.16.06.21.25.1.41l-.35.63c.29.12.43.39.41.69-.04.39-.37.67-.76.63-.39-.04-.7-.39-.65-.78.02-.1.04-.2.1-.29Z"/>
        <path class="cls-3" d="m13.85,105.41c-1.12,3.68-2.39,7.87-5.78,7.87-1.67,0-2.98-1.08-2.98-2.76,0-1.78,1.39-3.37,2.94-3.37.2,0,.39.02.59.08.18.06.31.22.31.41,0,.29-.27.49-.55.43-.1-.02-.2-.04-.33-.04-1.12,0-2.1,1.27-2.1,2.45,0,1.27.96,1.94,2.1,1.94,2.86,0,4.03-4.13,4.99-7.25.47-1.57.94-3.09,1.51-4.21.41-.78,1.06-1.35,1.86-1.55.29-.06.47.1.51.37,0,.31-.18.45-.35.49-.47.08-1.02.61-1.25,1.1-.55,1.06-1,2.53-1.47,4.05Zm1.27,9.23c-1.94,0-3.39-1.02-3.39-2.68,0-1.33.98-2.25,2.1-2.25.96,0,1.66.67,1.98,1.63.08.27-.1.57-.39.57-.18,0-.35-.1-.41-.29-.22-.57-.65-1.06-1.19-1.06-.67,0-1.25.61-1.25,1.39,0,1.23,1.25,1.82,2.53,1.82,3.56,0,5.44-5.13,5.44-8.83,0-3.37-1.29-5.78-4.54-5.95-3.72,0-5.84,2.9-5.88,6.82,0,.25-.18.43-.43.43-.22,0-.43-.18-.43-.43.04-4.5,2.59-7.68,6.74-7.68,3.8.18,5.39,2.96,5.39,6.8,0,4.31-2.23,9.68-6.29,9.68Z"/>
        <path class="cls-3" d="m28.15,111.95c-.57,0-1.1-.18-1.55-.55-.76,1.02-1.8,1.86-2.78,1.86-1.33,0-1.78-.88-1.78-2.06,0-2.37,1.06-4.35,1.74-5.46.86-1.43,1.86-2.15,2.88-2.15,1.35.04,2.04.96,2.04,2.19,0,1.29-.65,3.29-1.59,4.88.22.29.57.43,1.04.43.86,0,1.57-.78,2.29-2.47.06-.16.23-.27.39-.27.31,0,.53.31.41.59-.9,2.06-1.86,3-3.08,3Zm-1.25-3.04c-.06.16-.06.33-.08.47.63-1.27,1.02-2.68,1.02-3.62,0-.86-.51-1.31-1.21-1.31-.78,0-1.51.72-2.1,1.74-.53.88-1.61,2.86-1.61,4.96,0,.74.25,1.25.9,1.25.76,0,1.61-.82,2.29-1.78-.22-.53-.18-1.43-.04-1.94.04-.2.22-.33.43-.33.29,0,.49.27.41.55Z"/>
        <path class="cls-3" d="m45.83,108.8c0,.06-.02.12-.04.18-1.27,2.98-2.96,4.88-5.95,5.76-.98,2.8-2.25,4.25-3.72,4.27-1.23.02-2.02-.78-2.02-1.98,0-1.29,1-2.23,3.45-2.68.51-.08,1.06-.18,1.61-.33l.51-1.47c-.47.45-.98.69-1.55.69-1.74,0-2.23-1.16-2.23-2.19.04-.94.51-2.06,1.31-4.15l1.14-3.11c.06-.16.22-.27.39-.27.35,0,.51.31.41.57l-1.12,3.11c-.9,2.47-1.25,3.11-1.25,3.84,0,.59.18,1.33,1.35,1.33,1.08,0,2.39-2.17,3.21-4.52.27-.8.14-.43,1.51-4.05.06-.16.22-.29.39-.29.25,0,.53.29.43.59-.33.84-.88,2.25-1.53,4.02l-1.63,4.66-.31.9c2.35-.8,3.78-2.68,4.8-5.09.08-.16.22-.27.39-.27.06,0,.12.02.18.04.16.08.27.22.27.39Zm-6.99,6.19c-.39.08-.76.16-1.12.22-1.88.33-2.68.86-2.76,1.8,0,.72.47,1.16,1.17,1.14,1.1-.02,2.04-1.1,2.72-3.17Z"/>
        <path class="cls-3" d="m50.69,111.95c-.57,0-1.1-.18-1.55-.55-.76,1.02-1.8,1.86-2.78,1.86-1.33,0-1.78-.88-1.78-2.06,0-2.37,1.06-4.35,1.74-5.46.86-1.43,1.86-2.15,2.88-2.15,1.35.04,2.04.96,2.04,2.19,0,1.29-.65,3.29-1.59,4.88.22.29.57.43,1.04.43.86,0,1.57-.78,2.29-2.47.06-.16.22-.27.39-.27.31,0,.53.31.41.59-.9,2.06-1.86,3-3.08,3Zm-1.25-3.04c-.06.16-.06.33-.08.47.63-1.27,1.02-2.68,1.02-3.62,0-.86-.51-1.31-1.21-1.31-.78,0-1.51.72-2.1,1.74-.53.88-1.61,2.86-1.61,4.96,0,.74.25,1.25.9,1.25.76,0,1.61-.82,2.29-1.78-.22-.53-.18-1.43-.04-1.94.04-.2.22-.33.43-.33.29,0,.49.27.41.55Z"/>
        <path class="cls-3" d="m62.01,108.78c0,.06-.02.12-.04.18-1.33,3.04-2.35,4.29-3.72,4.29-.9,0-1.35-.55-1.47-1.45-.59.84-1.53,1.45-2.45,1.45h-.02c-1.29,0-1.96-.74-1.96-2.12,0-1.02.49-2.23,2.45-7.31.06-.16.22-.27.39-.27.35,0,.51.31.41.57-2.17,5.76-2.39,6.19-2.39,7.01s.39,1.27,1.12,1.27c.84,0,1.67-.69,2.35-2.08.71-1.43,1.47-3.6,2.53-6.5.06-.16.22-.27.39-.27.33,0,.53.31.43.57-.45,1.19-.84,2.29-1.14,3.11-.78,2.1-1.25,3.76-1.25,4.31,0,.59.18.86.61.86.98,0,1.78-1.17,2.94-3.78.06-.16.22-.27.39-.27.06,0,.12.02.18.04.14.08.25.22.25.39Z"/>
        <path class="cls-3" d="m66.93,99.22l-.74,1.16c-.1.18-.25.23-.41.14-.16-.06-.2-.25-.1-.41l.35-.63c-.29-.12-.43-.39-.41-.69.04-.39.37-.67.76-.63.39.04.69.39.65.78-.02.1-.04.2-.1.29Z"/>
        <path class="cls-3" d="m68.36,113.26c-1.7,0-3.08-1.33-3.08-2.98.12-1.84,1.14-3.04,2.78-3.04,1.06,0,1.92.94,1.96,2.06,0,.25-.18.43-.43.43s-.43-.18-.43-.43c-.04-.69-.55-1.21-1.08-1.21-1.12,0-1.86.94-1.94,2.19,0,1.25,1.04,2.12,2.23,2.12,1.66,0,2.84-1.08,2.88-2.78-.02-.9-.33-1.49-1.41-3.39-.14.14-.29.31-.41.47-.08.1-.2.16-.33.16-.1,0-.22-.02-.31-.1-.1-.08-.14-.23-.14-.35,0-.08.04-.18.1-.27.25-.29.45-.51.69-.76-.18-.43-.31-.88-.31-1.35,0-1.06.65-1.96,1.49-1.96.59,0,.94.47.98,1.06,0,.82-.51,1.72-1.14,2.43,1.06,1.96,1.61,2.68,1.63,4.07-.04,2.21-1.68,3.62-3.74,3.62Zm2.37-10.11c0-.29-.22-.22-.43-.02-.25.25-.31.61-.31.9,0,.22.04.43.1.65.33-.45.63-1.08.63-1.53Z"/>
        <path class="cls-3" d="m90.55,107.03c-.78,1.27-1.59,2.55-2.66,3.53-.22.2-.45.39-.69.57l.35,1.08.16.47c.06.23-.06.47-.29.55-.22.06-.47-.06-.55-.29l-.14-.47-.29-.88c-.88.45-1.74.63-2.7.61-1.76,0-2.88-1.08-2.88-2.84.04-1.8,1.08-3.11,3.66-4.96-.14-.82-.25-1.59-.25-2.23,0-1.8,1.06-3.17,2.62-3.17,1.08,0,2,.69,2,1.8,0,1.31-.92,2.25-3.43,4,.35,1.76.94,3.78,1.45,5.43.14-.1.27-.22.41-.33.96-.92,1.76-2.15,2.49-3.35.12-.2.39-.27.59-.14.21.12.27.39.14.59Zm-5.84-1.68c-2.15,1.57-2.96,2.66-2.98,4.03,0,1.31.82,1.98,2.02,1.98.9,0,1.66-.18,2.43-.59-.51-1.61-1.08-3.6-1.47-5.41Zm.59-1.39c1.17-.82,2.74-2.02,2.74-3.15,0-.57-.51-.94-1.14-.94-1.12,0-1.74,1.04-1.74,2.35,0,.47.04,1.04.14,1.74Z"/>
        <path class="cls-3" d="m108.94,100.63c-.08.25-1.12,3.62-1.27,4.15-1.17,4.13-2.74,9.52-6.93,9.52-2.02,0-3.45-1.59-3.45-3.76,0-2.35,2.31-4.27,4.52-4.23.25,0,.43.2.43.45,0,.22-.2.41-.45.41-1.9,0-3.64,1.63-3.64,3.39-.04,1.7,1.12,2.88,2.62,2.88,3.51,0,4.94-5.13,6.07-8.91.29-.96,1.06-3.45,1.12-3.66l-.59.12c-1.86.43-4.41.92-4.41,2.57-.04,1.06.69,1.84,1.61,1.84.23,0,.43.2.41.45,0,.22-.2.41-.43.41-1.43,0-2.51-1.21-2.47-2.72.08-2.53,2.53-2.8,5.11-3.39l1.1-.25c.45-1.19,1.33-2.51,2.37-2.51.71,0,1.21.45,1.21,1.1,0,.96-1.47,1.74-2.92,2.12Zm2-2.12c0-.16-.12-.29-.29-.29-.45,0-.98.69-1.31,1.39.86-.18,1.59-.78,1.59-1.1Z"/>
        <path class="cls-3" d="m124.51,108.78c0,.06-.02.12-.04.18-1.19,2.55-2.33,4.29-4.21,4.29-.96,0-1.51-.65-1.51-1.8-.72,1.02-1.55,1.8-2.59,1.8-1.14,0-1.68-.98-1.68-2.21,0-2.68,2.04-7.46,4.52-7.46.92,0,1.51.41,1.84,1.04l.39-1.06,1.08-3.13c.06-.16.22-.27.39-.27.35,0,.49.35.41.57-.2.59-2.64,7.54-2.82,8.11-.31.94-.67,2.15-.67,2.68,0,.49.18.86.65.86,1.47,0,2.45-1.7,3.41-3.8.08-.14.25-.25.41-.25.04,0,.1.02.16.04.16.08.27.22.27.39Zm-4.7-1.53c.18-.43.33-.84.47-1.16.02-.06.02-.1.02-.14-.04-.94-.51-1.49-1.31-1.49-1.88.06-3.62,4.43-3.66,6.46,0,.9.18,1.49.8,1.49,1.65,0,2.86-3.06,3.68-5.15Z"/>
        <path class="cls-3" d="m129.37,111.95c-.57,0-1.1-.18-1.55-.55-.76,1.02-1.8,1.86-2.78,1.86-1.33,0-1.78-.88-1.78-2.06,0-2.37,1.06-4.35,1.74-5.46.86-1.43,1.86-2.15,2.88-2.15,1.35.04,2.04.96,2.04,2.19,0,1.29-.65,3.29-1.59,4.88.22.29.57.43,1.04.43.86,0,1.57-.78,2.29-2.47.06-.16.22-.27.39-.27.31,0,.53.31.41.59-.9,2.06-1.86,3-3.08,3Zm-1.25-3.04c-.06.16-.06.33-.08.47.63-1.27,1.02-2.68,1.02-3.62,0-.86-.51-1.31-1.21-1.31-.78,0-1.51.72-2.1,1.74-.53.88-1.61,2.86-1.61,4.96,0,.74.25,1.25.9,1.25.76,0,1.61-.82,2.29-1.78-.22-.53-.18-1.43-.04-1.94.04-.2.22-.33.43-.33.29,0,.49.27.41.55Z"/>
        <path class="cls-3" d="m137.42,99.22l-.74,1.16c-.1.18-.25.23-.41.14-.16-.06-.2-.25-.1-.41l.35-.63c-.29-.12-.43-.39-.41-.69.04-.39.37-.67.76-.63.39.04.69.39.65.78-.02.1-.04.2-.1.29Z"/>
        <path class="cls-3" d="m138.85,113.26c-1.7,0-3.08-1.33-3.08-2.98.12-1.84,1.14-3.04,2.78-3.04,1.06,0,1.92.94,1.96,2.06,0,.25-.18.43-.43.43s-.43-.18-.43-.43c-.04-.69-.55-1.21-1.08-1.21-1.12,0-1.86.94-1.94,2.19,0,1.25,1.04,2.12,2.23,2.12,1.65,0,2.84-1.08,2.88-2.78-.02-.9-.33-1.49-1.41-3.39-.14.14-.29.31-.41.47-.08.1-.21.16-.33.16-.1,0-.22-.02-.31-.1-.1-.08-.14-.23-.14-.35,0-.08.04-.18.1-.27.25-.29.45-.51.7-.76-.18-.43-.31-.88-.31-1.35,0-1.06.65-1.96,1.49-1.96.59,0,.94.47.98,1.06,0,.82-.51,1.72-1.14,2.43,1.06,1.96,1.61,2.68,1.63,4.07-.04,2.21-1.67,3.62-3.74,3.62Zm2.37-10.11c0-.29-.22-.22-.43-.02-.25.25-.31.61-.31.9,0,.22.04.43.1.65.33-.45.63-1.08.63-1.53Z"/>
        <path class="cls-3" d="m149.78,99.22l-.74,1.16c-.1.18-.25.23-.41.14-.16-.06-.2-.25-.1-.41l.35-.63c-.29-.12-.43-.39-.41-.69.04-.39.37-.67.76-.63.39.04.69.39.65.78-.02.1-.04.2-.1.29Zm2.04,0l-.74,1.16c-.1.18-.25.23-.41.14-.16-.06-.2-.25-.1-.41l.35-.63c-.29-.12-.43-.39-.41-.69.04-.39.37-.67.76-.63.39.04.69.39.65.78-.02.1-.04.2-.1.29Z"/>
      </g>
      <g>
        <path class="cls-1" d="m83.58,4.93c.9.2,1.75.6,2.53,1.07.41.25.76-.37.37-.63-.84-.57-1.71-.96-2.69-1.22-.77-.21-1.84-.48-2.55-.06-.14.08-.13.28,0,.36.66.42,1.57.31,2.33.48Z"/>
        <path class="cls-1" d="m80.09,6.67c.5.2,1.08.15,1.6.23.64.09,1.28.2,1.91.32.46.08.66-.61.19-.71-.63-.14-1.26-.27-1.9-.37-.58-.09-1.26-.24-1.81-.03-.29.11-.27.46,0,.57Z"/>
        <path class="cls-1" d="m96.02,2.44c-.24-.38-.45-.76-.62-1.17-.15-.38-.19-.78-.4-1.14-.09-.16-.36-.18-.45,0-.39.83.41,1.99.86,2.67.25.37.85.03.61-.36Z"/>
        <path class="cls-1" d="m107.75,5.22c.51-.62,1.04-1.23,1.61-1.8.35-.35.72-.67,1.12-.96.29-.21.56-.36.74-.67.09-.15-.03-.31-.19-.32-.72-.05-1.39.66-1.89,1.1-.71.64-1.31,1.41-1.9,2.16-.27.35.21.85.5.5Z"/>
        <path class="cls-1" d="m110.51,6.69c1.14-.68,2.28-1.4,3.3-2.25.19-.16-.01-.51-.24-.42-1.23.51-2.28,1.35-3.41,2.05-.39.24-.04.85.36.62Z"/>
        <path class="cls-1" d="m114.8,11.24c.52-.03.99-.21,1.45-.45.12-.06.18-.19.18-.32,0-.21-.15-.38-.37-.38-.17,0-.36.12-.51.19-.24.11-.48.18-.75.19-.49.03-.49.79,0,.76Z"/>
        <path class="cls-1" d="m84.15,75.2c.08.08.16.15.24.23.02.02.06-.01.03-.03-.08-.08-.15-.16-.23-.24-.03-.03-.07.01-.04.04Z"/>
        <path class="cls-1" d="m115.02,32.71c-3.36-2.22-7.33-3.51-11.41-4.04,0-.04-.02-.09-.03-.12,1.86-2.35,4.03-4.45,5.95-6.76.73-.88,1.51-1.88,2.09-2.96.44-.56.83-1.15,1.03-1.78.03-.09-.02-.17-.09-.22.19-.28.4-.56.57-.86.3,0,.57-.39.3-.67-3.23-3.45-6.62-6.65-9.41-10.49-.12-.16-.31-.18-.45-.11,0-.01,0-.03,0-.04-.05-.35-.65-.27-.62.08.26,2.55.47,5.14,1.07,7.63-.72-.73-1.46-1.44-2.11-2.16-1.28-1.43-2.6-2.98-4.22-4.04.03-.05.06-.1.08-.15.02-.04.02-.09.02-.12.05,0,.1,0,.15,0,1.12.05,2.42.15,3.58-.1.03,0,.06.03.09.03.21,0,.41,0,.61,0h0s.03.04.09.08c.27.22.76-.07.52-.4-.04-.05-.07-.12-.11-.18.06-.08.04-.19-.03-.26.05-.23-.13-.49-.38-.49-.28,0-.56,0-.84,0-.13,0-.28.07-.34.19-.03.07-.04.12-.04.17-1.28.03-2.6.18-3.87.13-1.84-.07-3.67-.24-5.51-.24-.19,0-.3.12-.34.26-.05.02-.1.04-.15.09-1.56,1.44-2.77,3.43-4.05,5.11-.85,1.12-1.7,2.24-2.58,3.34-.22.28-.81,1.16-1.11,1.4-.2,0-.41.15-.32.39.03.07.07.13.1.2-.07.06-.1.15-.07.26,1.01,2.99,4.03,5.71,6.18,7.89,1.51,1.53,3.24,3.23,5.14,4.56-2.27-.51-5.15.25-7.73,1.56-3.42-4.46-8.14-8.14-14.04-10.53-13.93-5.64-30.85-1.68-38.78,11.12-.06,0-.13,0-.18.06-5.95,6.1-7.13,16.16-5.73,24.25,1.65,9.5,7,17.17,15.22,22.16,11.71,7.1,27.09,5.78,37.54-2.2,1.37,1.23,2.86,2.34,4.52,3.28,12.31,6.93,27.12,4.6,35.12-7.16,8.05-11.84,7.02-29.93-5.42-38.16Zm-12.29-5.95c-.4.32-.82.61-1.24.9.41-.89.69-1.87.93-2.83.43-1.01.81-2.05,1.29-3,.14-.29-.26-.53-.43-.25-.01.02-.02.04-.03.05.5-1.85,1.05-3.66,1.74-5.45,0,0,.01,0,.02,0,.13-.03.2-.11.23-.2.81,1.56,1.67,3.1,2.57,4.61-.4.53-.8,1.06-1.21,1.57-.94,1.19-1.84,2.41-2.66,3.69-.46.2-.83.62-1.21.92Zm-2.05.51c-.1.39-.2.78-.31,1.15-.45-.02-.89-.02-1.34-.02-.17-1.86-.36-3.74-.58-5.59,2.21-1.74,3.79-4.1,5.5-6.32-1.32,2.97-2.14,6.35-2.95,9.54-.13.34-.26.68-.37,1.02-.03.1,0,.17.05.23Zm-2.92-5.11c0,.09,0,.19.01.28-.02.03-.03.06-.04.09-.02-.06-.04-.12-.1-.17-2.25-1.8-4.08-3.97-6.09-6.01,3.41,1.06,7.75.85,11.37.22-1.48,1.86-2.79,3.85-4.63,5.38-.18-.18-.55-.13-.53.19Zm.47,6.25c-.27,0-.53,0-.79.02-1.61-1.81-3.06-3.48-4.28-5.63-.99-1.74-1.85-3.55-2.72-5.36,0-.04-.02-.07-.04-.09-.08-.17-.17-.34-.25-.52.21.02.41.03.62.05.1.01.18-.02.24-.06,1.92,2.16,3.76,4.57,6.17,6.15.22.15.48-.02.56-.24.01.05.04.1.06.14.08,1.83.07,3.74.44,5.54Zm8.62-4.6c-.74.79-1.48,1.56-2.21,2.35.95-1.41,1.96-2.77,3.04-4.11.19-.24.38-.47.58-.71.04.06.07.12.1.18-.52.62-1.03,1.23-1.55,1.85-.13.15-.08.34.04.44Zm4.29-6c-.12.22-.25.44-.38.67-.02.03-.02.06-.03.09-.29.4-.58.8-.88,1.17-.32.39-.65.77-.97,1.16-.03-.06-.07-.12-.1-.18,1-1.18,2.02-2.4,2.71-3.75-.1.29-.23.57-.36.85Zm.53-1.38c-.05-.12-.2-.19-.33-.08-1.11,1.04-2.08,2.29-3.03,3.54-.75-1.33-1.51-2.65-2.27-3.97,1.88.27,3.81.28,5.7.28-.02.08-.05.15-.08.23Zm-8-10.91c2.3,3.8,5.84,6.82,8.88,10.01-.01.02-.03.03-.04.05-.06-.1-.16-.18-.32-.18-2.19,0-4.35-.07-6.52-.31-.03-.07-.05-.14-.08-.21.2-.01.39-.2.24-.4-.21-.3-.46-.59-.71-.88-.83-2.61-1.08-5.36-1.46-8.07Zm-2.32,5.22c.89,1,1.86,2.41,3,3.37,0,.06,0,.13.03.2.11.21.22.42.32.63,0,.01-.02.03-.02.04-.04,0-.08.02-.12.04-.11-.07-.26-.07-.38.06-.16.16-.3.34-.45.51-4.15.63-8.88,1.03-12.89-.21,1.01-1.14,1.93-2.34,2.83-3.56,1.2-1.62,2.65-3.29,3.68-5.06,1.41,1.26,2.74,2.56,4,3.98Zm-9.34-5.16c1.78.05,3.57.19,5.35.27-.02.02-.04.04-.05.06-.01,0-.03-.02-.04-.03-.28-.16-.6.22-.37.45-1.14,1.18-2.04,2.66-3,3.96-1.24,1.7-2.52,3.34-3.86,4.96-.05,0-.11.01-.15.04.62-3.26,1.68-6.42,2.12-9.71Zm-5.46,6.78c1.55-2,3.02-4.07,4.64-6.02-.63,3.15-1.6,6.23-2.11,9.41,0,0,0,.02,0,.03,0,.04-.01.08-.02.12-.47,0-.94.01-1.37,0-.86-.01-2.83.18-3.68-.46.98-.57,2.21-2.65,2.55-3.09Zm-2.61,3.88c.53.25,1.2.3,1.75.36,1.15.12,2.31.12,3.46.16-.67,1.5-1.29,3.19-1.26,4.75-1.59-1.56-3.13-3.31-3.95-5.27Zm5.86,7.08c-.44-.41-.9-.83-1.35-1.27.34-.94.44-1.99.7-2.96.16-.59.35-1.17.56-1.75.13.3.26.6.39.9-.15,1.7-.55,3.5-.16,5.13.03.12.22.12.25,0,.34-1.33.33-2.83.29-4.27.08.18.18.36.26.55-.08.01-.15.07-.14.15.1.74.09,1.49.09,2.24,0,.72-.11,1.52.11,2.21-.34-.31-.67-.63-1-.93Zm1.21,1.13c.06,0,.13-.05.15-.12.26-.71.12-1.55.07-2.29-.04-.63-.15-1.25-.25-1.86.2.43.42.85.63,1.27-.1.03-.19.1-.19.24-.01.51-.02,1.02-.03,1.52-.01.47-.11.99.14,1.4.08.12.26.12.33,0,.22-.36.16-.77.15-1.19-.01-.41-.02-.82-.03-1.24.16.3.32.6.49.91-.08.05-.13.12-.13.24-.01.55-.02,1.1.02,1.65.02.24.03.55.13.8-.5-.44-1-.89-1.48-1.34Zm1.89,1.68c.06,0,.12-.03.16-.1.18-.32,0-.71-.04-1.06-.04-.33-.06-.66-.07-.99.09.16.19.33.28.5-.1.03-.18.12-.18.26,0,.63.13,1.58.63,2.02.1.08.28.06.31-.08.06-.29-.01-.5-.11-.78-.07-.21-.13-.41-.17-.61.45.75.97,1.51,1.55,2.17-.15,0-.29.09-.35.22-.69-.48-1.36-1-2.01-1.55Zm-15.1,49.62c-.12.07-.23.15-.35.22-.11.07-.23.13-.34.2-7.51,4.24-16.93,5.28-25.6,3.01,0-.06-.03-.11-.09-.14-7.35-3.72-13.08-8.27-17.72-15.17-6.41-9.53-3.48-18.39-1.29-28.62.05-.22-.25-.29-.33-.09-3.73,9.27-4.84,18.71.04,27.68,3.18,5.86,8.52,11.55,14.69,14.76-.59-.25-1.17-.5-1.75-.78-15.69-7.62-20.95-28.51-12.68-43.22.08.37.61.58.82.16,6.83-13.5,21.34-18.18,35.54-14.64,6.85,1.71,12.97,5.7,17.51,11.05-.63.34-1.24.7-1.81,1.09-.08.02-.15.06-.23.08-.15-.22-.35-.41-.54-.6-.22-.22-.51-.07-.59.15-.19-.16-.37-.31-.51-.45-.28-.28-.67,0-.65.31-.32-.27-.63-.55-.96-.81-.17-.13-.37-.05-.46.08-.45-.45-.91-.89-1.39-1.31-.21-.19-.46.04-.38.26-9.23-7.88-26.74-8.2-35.5.32-7.74,6.39-10,15.21-7.9,23.58-.16.02-.31.14-.28.35,1.92,10.19,9.93,20.6,21.03,21.27.15,0,.23-.08.27-.18,3.28.96,6.73,1.27,10.22.85.99.56,2.18.96,3.25.84.13-.02.21-.19.07-.27-.56-.31-1.19-.43-1.81-.58-.16-.04-.31-.1-.46-.15.57-.09,1.13-.21,1.7-.34-.03.1-.02.22.1.28.86.45,2.77,1.05,3.38-.11.07-.13-.02-.31-.17-.3-.43,0-.81.22-1.24.27-.57.06-1.09-.04-1.61-.24.59-.15,1.18-.32,1.77-.52.03.06.08.11.16.14.44.15.88.23,1.34.25.54.03.89-.12,1.33-.43.1-.07.07-.24-.07-.25-.61-.01-1.23.03-1.83-.04.26-.11.31-.4.21-.6.85-.35,1.67-.78,2.48-1.25-.39.33-.79.67-1.18,1-.22.19.07.56.31.4,2.76-1.78,5.67-4.22,7.28-7.16,3.32-4.51,5.15-9.92,5.47-15.42.05.11.18.17.29.06.84-.88,1.13-2.31,1.53-3.42.12-.33-.39-.46-.52-.14-.41,1.04-1.08,2.15-1.29,3.27.11-2.25-.03-4.52-.43-6.74.05,0,.1-.02.12-.07.29-.75.34-1.58.46-2.37.03-.18-.25-.27-.28-.08-.13.71-.31,1.42-.37,2.14-.21-1.08-.48-2.15-.82-3.2.29-.53.3-1.31.29-1.84,0-.02,0-.04-.01-.06.07-.05.13-.1.2-.15.55,1.14,1.04,2.31,1.51,3.5-.14-.06-.32-.03-.35.14-.17.97-.65,2.06-.46,3.05.02.12.2.14.26.03.46-.84.56-1.93.67-2.88.08.21.16.44.24.65-.12-.05-.25-.02-.28.13-.15,1.05-.37,2.09-.49,3.14-.02.15.22.21.28.08.41-.93.5-1.97.63-2.97.16.42.32.83.47,1.26.06.17.36.16.34-.05-.22-2.36-1.04-4.55-2.15-6.61.97-.64,2-1.15,3.06-1.61,3.39,7.66,2.42,16.8-.09,24.62-1.2,3.74-3.08,6.95-5.42,9.63-.09-.09-.23-.13-.34-.06-1.2.78-2.09,2.1-3.11,3.1-.98.96-2.05,1.78-3.2,2.51Zm3.34-41.15c-1.53,1.26-2.92,2.7-3.99,4.28,1.3-2.12,2.84-4.13,4.75-5.55-.28.29-.55.58-.77.87-.11.14-.08.3.01.4Zm-37.02,32.67c1.36,1.27,2.87,2.39,4.47,3.36.76.52,1.54.99,2.34,1.42-2.96-1.21-5.63-2.76-8.16-5.26-2.44-2.41-4.17-5.37-5.45-8.53,1.61,3.25,3.9,6.31,6.8,9.01Zm-3.12-34.51s.08.03.12.04c-5.43,7.08-7.01,15.41-3.67,23.88-3.35-7.92-2.34-16.96,3.55-23.92Zm8.54,37.17c-2.93-1.95-5.61-4.56-8.03-7.77-8.88-11.83-4.91-24.51,5.01-33.99.11-.11.13-.23.09-.35,9.96-6.53,26.04-4.38,33.73,4.17.28.31.52.63.78.96-3.45,2.62-5.71,7.27-7.53,10.83-3.15,6.19-3.46,14.71.15,20.77.71,1.85,1.64,3.62,2.75,5.28-.18.14-.35.28-.53.42-7.65,5.19-18.16,4.36-26.43-.31Zm29.78-4.25c-.06.04-.11.11-.11.22,0,.39,0,.95.19,1.37-.04.04-.08.08-.12.12-.04-.25-.11-.49-.14-.72-.11-.65-.21-1.29-.3-1.94.15.32.33.63.49.94Zm5.27-26.56c3.03,8.18,1.67,18.08-2.93,25.27-.28.44-.58.85-.88,1.26-4.41-8.48-2.11-19.21,3.81-26.53Zm5.74-3.32c9.43-3.81,21.68-.54,26.91,8.36,4.9,8.34,2.76,19.56-3.91,26.21-7.61,7.59-20.71,7.7-28.48.65,1.84-2.02,3.42-4.32,4.65-6.88,4.69-9.71,4.7-19.88.83-28.35Zm30.79,32.37c-6.93,13.26-21.4,15.55-34.28,9.71-2.05-.93-3.87-2.14-5.51-3.56.2-.16.4-.34.6-.51.1.55.36,1.12.88,1.25.14.03.25-.06.26-.2.04-.55-.43-1-.57-1.53.1-.08.18-.17.28-.26.22.68.55,1.64,1.21,1.68.07,0,.15-.06.17-.13.02-.07.02-.13.01-.2.61.73,1.26,1.41,2.07,2,.09.07.2-.08.12-.16-.67-.61-1.29-1.29-1.89-1.97.13.12.25.24.41.32.11.06.23,0,.27-.09.01.03.01.06.04.09.84.75,1.7,1.48,2.59,2.17.77.6,1.75,1.48,2.75,1.6.11.01.19-.14.13-.23-.47-.65-1.32-1.03-1.97-1.48-1.09-.74-2.16-1.54-3.18-2.37-.13-.11-.28-.03-.34.08-.22-.84-.88-1.54-1.34-2.28.05-.05.1-.09.15-.14,1.03.99,2.14,1.91,3.38,2.71.24.15.49-.19.3-.39-.16-.16-.3-.31-.46-.47,1.47.92,3.04,1.64,4.67,2.15-.1.06-.15.18-.05.29,1.2,1.13,3.15,2.12,4.85,1.9.13-.02.23-.21.08-.28-1.54-.71-3.22-.65-4.56-1.82,1.11.33,2.25.56,3.4.7.01,0,0,.02.02.03,1.15.69,2.52,1.5,3.88,1.6.16.01.19-.21.08-.28-.83-.54-1.8-.85-2.72-1.23,1.29.09,2.6.05,3.9-.09-.01.08.02.17.11.2,1.24.49,2.78.81,4.08.41.1-.03.1-.17,0-.21-1.19-.37-2.47-.15-3.68-.45,2.76-.35,5.47-1.2,7.98-2.53,1.27.21,2.49-.01,3.49-.87.05-.04,0-.14-.07-.12-.92.32-1.82.61-2.77.62.65-.37,1.28-.78,1.9-1.21,1.51-.39,3.19-.96,4.25-2.09.06-.07,0-.2-.1-.16-.96.33-1.88.79-2.8,1.23.03-.03.06-.05.09-.07.7-.59,1.34-1.24,1.94-1.9.96-.58,1.95-1.27,2.55-2.16.07-.1-.07-.23-.16-.16-.45.29-.87.64-1.28.98,5.35-7.13,5.71-17.58,1.21-25.23-6.14-10.43-23.71-12.99-32.63-4.86-.05,0-.1.01-.15.06-5.64,5.61-8.14,14.2-6.62,21.98-.16-.5-.33-.99-.46-1.51-1.92-7.64,1.09-14.8,6.23-20.37.21-.22-.11-.53-.33-.33-7.51,6.84-8.73,17.63-4.84,26.36-.18-.09-.49.01-.47.26.06.66.09,1.32.18,1.97.06.45.07,1,.28,1.42-.1.1-.19.2-.29.3-.36.27-.71.58-1.05.86-.1.08-.21.16-.31.24-.96-1.43-1.8-2.94-2.47-4.55.02-.07.02-.15-.02-.24-.17-.35-.33-.71-.49-1.07-.03-.1-.07-.19-.11-.29-2.27-6.5-1.2-12.95,1.25-19,.1.02.21-.02.24-.16.09-.4.2-.78.32-1.16.4-.9.82-1.79,1.26-2.66,3.71-3.89,7.52-7.51,12.62-9.6,1.99-.81,4.1-1.29,6.25-1.49.02,0,.03.02.05.03,0,.03.03.05.04.08-1.16.14-2.27.38-3.19.73-.43.16-.25.85.19.7,3.59-1.28,6.89-.15,10.51.09.21.01.27-.28.1-.38-.62-.37-1.35-.64-2.13-.84.04-.11.04-.23-.01-.33.08,0,.15,0,.23-.01.16.02.32.03.48.05.08.23.43.38.65.17.03-.02.07-.04.1-.07,2.33.33,4.61.88,6.75,1.59,15.64,5.21,18.35,23.96,11.46,37.15Z"/>
        <path class="cls-1" d="m88.55,74.71c-.29-.2-.55.27-.27.47,1.53,1.11,3.19,2.68,5.06,3.15.09.02.15-.09.09-.15-1.35-1.4-3.29-2.36-4.87-3.47Z"/>
        <path class="cls-1" d="m100.37,77.49c-.61-.14-1.21-.33-1.79-.55-.13-.05-.23.17-.1.23,1.06.45,2.43,1.33,3.62.92.09-.03.09-.15,0-.18-.55-.22-1.16-.29-1.73-.42Z"/>
        <path class="cls-1" d="m104.7,76.49c-.14-.03-.2.18-.06.22.87.24,1.84.45,2.67-.02.09-.05.05-.19-.05-.19-.87-.04-1.68.17-2.56,0Z"/>
        <path class="cls-1" d="m109.02,75.38c-.51.05-1.01.06-1.52.07-.26,0-.26.39,0,.4.9.02,2.09.18,2.88-.34.1-.06.05-.19-.05-.2-.44-.06-.87.03-1.31.07Z"/>
        <path class="cls-1" d="m116.45,40.36c.06,0,.06-.1,0-.1s-.06.1,0,.1Z"/>
        <polygon class="cls-1" points="117.86 42.9 117.87 42.9 117.87 42.43 117.86 42.43 117.86 42.9"/>
        <path class="cls-1" d="m117.71,41.58c1.32,2.21,2.06,4.59,2.73,7.05.07.28.54.23.51-.07-.32-2.64-1.42-5-2.93-7.16-.13-.18-.42-.02-.31.18Z"/>
        <path class="cls-1" d="m45.37,70.61c-.21-.26-.66.09-.46.36,1.67,2.27,4.08,4.52,6.92,5.14.27.06.46-.32.19-.46-2.57-1.3-4.81-2.78-6.65-5.04Z"/>
        <path class="cls-1" d="m51.8,74c-.24-.23-.6.12-.37.37,1.28,1.31,2.82,2.6,4.62,3.09.17.05.35-.2.19-.32-1.43-1.13-3.09-1.86-4.44-3.13Z"/>
        <path class="cls-1" d="m55.11,74.52c-.29-.18-.53.26-.26.45,1.47,1.06,3.02,2.67,4.83,3.1.23.05.43-.24.24-.41-1.4-1.23-3.23-2.14-4.81-3.14Z"/>
        <path class="cls-1" d="m60.09,76.17c-.32-.11-.45.39-.14.5.76.27,1.47.62,2.27.74.17.03.29-.2.12-.29-.72-.41-1.47-.7-2.25-.95Z"/>
        <path class="cls-1" d="m40.51,30c2.52-2.72,6.02-5.45,9.71-6.25.04,0,.02-.07-.02-.06-3.98.71-7.53,2.9-9.94,6.12-.11.15.13.33.25.2Z"/>
        <path class="cls-1" d="m72.57,23.96c3.62,1.23,6.88,2.65,9.77,5.19.13.11.34-.03.25-.19-2.07-3.28-6.37-4.5-9.88-5.49-.32-.09-.44.39-.13.49Z"/>
        <path class="cls-1" d="m86.44,39c0,.42-.02.83-.09,1.25,0,.04.05.06.07.02.17-.41.18-.83.19-1.27,0-.11-.17-.11-.17,0Z"/>
        <path class="cls-1" d="m86.78,40.07c-.12.67-.12,1.34-.2,2.01-.01.09.14.11.16.02.16-.65.24-1.28.36-1.94.04-.21-.28-.3-.32-.09Z"/>
        <path class="cls-1" d="m88.12,44.54c-.31,1.07-.78,2.12-.96,3.23-.04.23.25.38.38.16.6-.99.78-2.16,1.02-3.27.06-.29-.37-.41-.45-.12Z"/>
        <path class="cls-1" d="m88.08,50.49s0-.09,0-.14c0-.02-.04-.02-.03,0,0,.05,0,.09,0,.14,0,.02.03.02.03,0Z"/>
        <path class="cls-1" d="m76.3,60.86c-.02-.2-.29-.2-.31,0-.12,1.12-.6,2.8.19,3.75.07.09.22.03.25-.07.16-.52.04-1.07.01-1.61-.04-.7-.08-1.38-.14-2.08Z"/>
        <path class="cls-1" d="m76.89,66.22c.04.1.16.1.19,0,.41-1.02.1-2.34-.03-3.39-.03-.25-.43-.26-.41,0,.11,1.09-.17,2.37.25,3.39Z"/>
        <path class="cls-1" d="m78.47,67.87c0-.66-.19-1.3-.28-1.95-.11-.79-.17-1.6-.13-2.4.01-.3-.43-.29-.46,0-.17,1.39-.32,3.21.46,4.46.12.19.41.11.42-.11Z"/>
        <path class="cls-1" d="m24.08,51.66c-.15,3.21.34,6.58,1.82,9.46.12.24.47.07.41-.17-.7-3.11-1.69-6.08-1.94-9.29-.01-.18-.28-.19-.29,0Z"/>
        <path class="cls-1" d="m23.75,60.93c-.12-.33-.65-.19-.53.15.4,1.12,1.14,1.88,1.99,2.69.19.18.47-.1.29-.29-.71-.75-1.39-1.56-1.75-2.54Z"/>
        <path class="cls-1" d="m124.58,41.32c.12.26.53.07.46-.19-.94-3.52-3.73-6.05-6.09-8.67-.17-.19-.42.08-.27.27,2.25,2.71,4.42,5.37,5.9,8.59Z"/>
        <path class="cls-1" d="m125.82,36.63c-.14-.34-.69-.2-.56.15,1.47,4,2.23,8.02,2.62,12.26.03.35.53.36.55,0,.24-4.25-1.01-8.52-2.61-12.41Z"/>
        <path class="cls-1" d="m37.12,22.06c1.39-.77,2.82-1.71,4.08-2.68.24-.18.12-.62-.22-.52-1.56.47-3.03,1.63-4.29,2.64-.33.26.09.75.43.56Z"/>
        <path class="cls-1" d="m122.69,72.53c-.91,2.38-2.53,4.25-4.09,6.21-.24.3.12.67.42.42,2-1.67,3.34-4.05,4.13-6.5.1-.3-.36-.41-.46-.13Z"/>
      </g>
      <g>
        <path class="cls-2" d="m71.85,122.96l-3.49,9.2c-.04.13-.17.2-.3.2-.2,0-.34-.23-.27-.41l2.93-7.74c-.94,1.18-1.97,2.33-2.92,2.35-.58,0-.89-.33-.89-.74,0-.17.03-.35.1-.54.06-.13.17-.2.3-.2.04,0,.08.01.13.03.1.04.16.16.16.27,0,.04,0,.07-.01.11-.04.11-.07.23-.07.3,0,.14.1.17.28.17.62-.03,1.38-.86,2.18-1.77,1.21-1.35,1.43-1.97,1.73-1.97.17,0,.28.1.28.24,0,.1-.06.27-.14.5Z"/>
        <path class="cls-2" d="m78.32,123.75c-.16.04-.33-.06-.37-.21-.2-.74-.61-.92-1.28-.92-1.43,0-2.78,2.08-3.47,3.83.67-.44,1.46-.67,2.4-.67,1.15,0,1.76,1.01,1.76,2.27,0,2.03-1.57,4.24-3.57,4.34-1.3.04-1.96-.96-1.96-2.34,0-.44.06-1.15.14-1.53-.17.24-.33.47-.45.69-.09.14-.27.18-.41.1-.14-.08-.18-.27-.1-.41.31-.54.75-1.16,1.29-1.71.78-2.48,2.48-5.16,4.37-5.16.89,0,1.63.44,1.87,1.36.04.17-.04.33-.21.37Zm-5.88,6.28c0,1.09.43,1.76,1.35,1.76,1.6-.06,2.98-2.06,2.98-3.74,0-.94-.41-1.67-1.16-1.67-1.01,0-2,.35-2.78,1.13-.23.78-.38,1.79-.38,2.52Z"/>
        <path class="cls-2" d="m79.94,131.99c0,.27-.23.48-.5.48s-.48-.21-.48-.48.21-.5.48-.5.5.23.5.5Zm.54-2.07c0,.27-.23.48-.5.48s-.48-.21-.48-.48.21-.5.48-.5.5.23.5.5Z"/>
        <path class="cls-2" d="m86.5,126.43c-.33.2-.7.35-1.05.48,1.08.24,1.81,1.01,1.84,2.1,0,1.91-1.62,3.33-3.44,3.33-1.43-.03-2.27-.81-2.27-2.1,0-.47.2-.89.52-1.25.06-.06.13-.08.2-.08.17,0,.3.13.3.3,0,.09-.03.17-.1.23-.21.18-.33.59-.33.82,0,.98.62,1.46,1.67,1.49,1.57,0,2.83-1.28,2.83-2.72,0-1.21-1.06-1.63-2.37-1.63-.25,0-.42-.18-.42-.33,0-.23.1-.34.35-.41.64-.17,1.35-.4,1.96-.75.71-.42,1.16-1.05,1.16-1.77,0-.88-.75-1.39-1.56-1.39-.42,0-.78.14-1.08.37-.41.33-.69.82-.88,1.39-.04.16-.2.24-.37.2-.16-.06-.24-.21-.2-.38.2-.65.57-1.28,1.09-1.67.38-.31.87-.5,1.42-.5,1.29,0,2.17.84,2.17,1.98,0,.96-.57,1.74-1.46,2.3Z"/>
        <path class="cls-2" d="m89.93,132.37c-1.16,0-1.69-1.09-1.71-2.4-.04-3.02,2.07-7.87,4.72-7.95,1.3-.07,2.01.95,2.01,2.35,0,3.34-2.34,7.99-5.02,7.99Zm3.03-9.75c-2.18,0-4.24,4.71-4.15,7.34.03,1.05.31,1.81,1.12,1.81,2.35-.04,4.42-4.45,4.42-7.39,0-1.08-.47-1.77-1.39-1.77Z"/>
      </g>
    </g>
  </g>
</svg>