<?xml version="1.0" encoding="UTF-8"?>
<svg id="Layer_2" data-name="Layer 2" xmlns="http://www.w3.org/2000/svg" viewBox="0 0 124.6 149.4">
  <defs>
    <style>
      .cls-1 {
        fill-rule: evenodd;
      }

      .cls-1, .cls-2 {
        fill: #391910;
      }
    </style>
  </defs>
  <g id="Layer_1-2" data-name="Layer 1">
    <g>
      <g>
        <path class="cls-2" d="m44.02,117.95c-1.17,3.96-2.49,9.09-6.09,9.09-1.68,0-2.94-1.14-2.94-2.8,0-1.8,1.37-3.35,2.98-3.35.43,0,.86.1.86.49,0,.29-.29.49-.55.41-.1-.04-.22-.04-.35-.04-1.12,0-2.08,1.27-2.08,2.45,0,1.25.96,1.98,2.1,1.98,2.74,0,3.92-4,5.23-8.46.55-1.86,1.06-3.6,1.66-4.74.39-.8,1.29-1.55,1.92-1.55.2,0,.43.14.45.35.04.33-.18.47-.37.51-.53.06-1,.65-1.25,1.08-.55,1.08-1.06,2.78-1.57,4.58Zm2.04,2.04c-.63,0-1.27-.14-1.9-.39-.18-.06-.29-.22-.29-.41,0-.27.2-.41.41-.41.06,0,.1,0,.16.02.57.2,1.14.33,1.68.33,2.35,0,3.9-2.45,3.9-4.74s-1.72-3.35-4.11-3.35c-3.51,0-5.5,3.07-5.5,6.82,0,.22-.18.43-.43.43s-.43-.21-.43-.43c0-4.35,2.35-7.7,6.56-7.7,2.78,0,4.76,1.72,4.76,4.23,0,2.9-1.94,5.6-4.82,5.6Z"/>
        <path class="cls-2" d="m59.34,121.32c0,.06-.02.12-.04.18l-.02.06c-.78,1.72-1.88,4.23-3.72,4.23-.98,0-1.47-.71-1.47-1.72-.82,1.14-1.68,1.72-2.55,1.72-1.14,0-1.68-.98-1.68-2.21,0-2.68,2.06-7.46,4.52-7.46.86,0,1.49.35,1.86,1.08.12-.35.25-.65.35-.92.06-.16.22-.27.41-.27.33,0,.49.33.39.57l-1.02,2.74c-.74,2.06-1.41,3.84-1.41,4.74,0,.61.18.86.61.86,1.27,0,2.25-2.21,2.92-3.72l.02-.06c.08-.16.22-.27.39-.27.06,0,.12.02.18.04.16.08.27.22.27.39Zm-4.15-1.53l.49-1.31c-.04-.94-.57-1.49-1.31-1.49-1.88.04-3.62,4.43-3.66,6.46,0,.9.18,1.49.8,1.49,1.65,0,2.86-3.06,3.68-5.15Z"/>
        <path class="cls-2" d="m66.86,121.32c0,.06-.02.12-.04.18-1.33,3.04-2.35,4.29-3.74,4.29h-.02c-.96,0-1.45-.71-1.45-1.72,0-.41.06-.82.2-1.33.16-.65,1.06-3.37,1.25-3.82-1.55-.51-1.78-.59-2.23-.82-.08.25-.22.53-1.86,4.11-.08.16-.22.25-.37.25-.08,0-.14-.02-.21-.04-.14-.08-.25-.22-.25-.39,0-.06.02-.12.04-.18l1.63-3.55.25-.61c-.61-.43-1.04-.96-1.04-1.72,0-.84.59-1.33,1.25-1.33.74,0,1.19.53,1.19,1.35,0,.33-.08.51-.33,1.31.57.29,1.27.51,1.86.71.29.08.55.16.78.25s.33.35.25.59c-.27.67-1.25,3.6-1.37,4.11-.12.43-.16.78-.18,1.12,0,.51.16.86.61.86,1,0,1.78-1.14,2.94-3.78.08-.16.23-.27.39-.27.06,0,.12.02.18.04.16.08.27.22.27.39Zm-6.58-5.82c-.27,0-.39.16-.39.39,0,.33.18.69.49.94.1-.29.22-.65.22-.86,0-.35-.16-.47-.33-.47Z"/>
        <path class="cls-2" d="m71.11,121.32c0,.06-.02.12-.04.18-1.18,2.55-2.33,4.29-4.21,4.29-.98,0-1.51-.74-1.51-1.72,0-.76.51-2.53,1.17-4.21l1.04-2.92h-1.29c-.25,0-.43-.18-.43-.43,0-.22.18-.43.43-.43h1.57c.04-.08,1.04-2.96,1.06-3.04.06-.18.22-.29.41-.29.31,0,.51.31.41.57.06-.12-.82,2.37-.96,2.76h1.37c.25,0,.43.2.43.43,0,.25-.18.43-.43.43h-1.68c-.12.39-.47,1.33-1.14,3.23-.84,2.37-1.1,3.31-1.1,3.9,0,.55.25.86.65.86,1.47,0,2.45-1.7,3.41-3.8.08-.14.25-.25.41-.25.06,0,.12.02.18.04.14.08.25.22.25.39Z"/>
        <path class="cls-2" d="m79.53,121.34c0,.06-.02.12-.04.18-1.27,2.98-2.96,4.88-5.95,5.76-.98,2.8-2.25,4.25-3.72,4.27-1.23.02-2.02-.78-2.02-1.98,0-1.29,1-2.23,3.45-2.68.51-.08,1.06-.18,1.61-.33l.51-1.47c-.47.45-.98.69-1.55.69-1.74,0-2.23-1.17-2.23-2.19.04-.94.51-2.06,1.31-4.15l1.14-3.11c.06-.16.22-.27.39-.27.35,0,.51.31.41.57l-1.12,3.11c-.9,2.47-1.25,3.11-1.25,3.84,0,.59.18,1.33,1.35,1.33,1.08,0,2.39-2.17,3.21-4.51.27-.8.14-.43,1.51-4.05.06-.16.22-.29.39-.29.25,0,.53.29.43.59-.33.84-.88,2.25-1.53,4.02l-1.63,4.66-.31.9c2.35-.8,3.78-2.68,4.8-5.09.08-.16.23-.27.39-.27.06,0,.12.02.18.04.16.08.27.22.27.39Zm-6.99,6.19c-.39.08-.76.16-1.12.23-1.88.33-2.68.86-2.76,1.8,0,.71.47,1.16,1.16,1.14,1.1-.02,2.04-1.1,2.72-3.17Z"/>
      </g>
      <g>
        <path class="cls-1" d="m69.57,76.98c-.53-2.03-3.17-3.58-5.1-2.33-1.4.91-2.59,2.2-3.54,3.68-.36-2.12-.24-4.43.25-6.41.38-1.52,1.79-3.38,3.47-4.71.54.89,1.3,1.68,2.25,2.29,1.84,1.17,4.4.99,4.62-1.38.05.21.1.42.14.66.04.21.38.16.37-.05-.24-5.37-3.8-4.48-6.94-2.09-1.42-2.57.17-5.73,1.96-7.89,3.31-4,3.33,2.05,6.08,2.84,3.68,1.06,5.33-5.17,3.59-8.65,1.7-.37,3.19-2.52,4.06-4.58.54.13,1.13.14,1.7,0,.26-.06.14-.43-.11-.39-1.78.32-3.16-.98-2.78-2.78.38-1.78,2.34-2.21,3.84-1.74.75.23,1.73.99,2.48,1.89-.98,1.24-1.38,2.91-.76,4.41.06.15.2.25.37.21,2.68-.71,2.54-2.73,1.35-4.48.42-.47.9-.93,1.42-1.42.13-.12,0-.36-.18-.3-.65.22-1.24.61-1.73,1.09-1-1.16-2.41-2.1-3.63-2.26-2.05-.27-3.87,1.11-3.97,3.22-.06,1.23.6,2.02,1.51,2.4-.38.48-.74.98-1.09,1.49-.4.51-.8,1.03-1.2,1.54-1.35-.13-2.3-.15-2.88-.04-.32-.18-.67-.32-1.06-.4-.31-.06-.71.29-.46.6.76.99,1.53,1.46,2.27,1.57.06.04.11.08.18.12.96,1.5.71,3.69.27,5.29-.69,2.52-3.38,3.31-4.68.93-.36-.66-.64-1.37-1.02-2.02-1.76-2.98-5.19,2.35-5.94,3.6-1.23,2.07-1.15,4.32-.12,6.17-1.74,1.44-3.29,3.27-3.95,4.63-.67,1.39-.83,4.68-.27,7.61-3.16,5.81-2.89,14.14,2.84,17.58.4.24.74-.37.36-.62-4.81-3.13-4.95-8.25-3.64-13.26.22-.75.5-1.49.8-2.21.88,2.89,2.61,4.93,5.47,3.37,2.85-1.55,4.23-3.95,3.39-7.16Zm16.12-27.67c-.25-1.39.08-2.38.74-3.27.87,1.34,1.05,2.78-.74,3.27Zm-14.36,18.25c-.2-.06-.44.02-.42.28.24,3.28-3.84,1-4.89.01-.35-.33-.62-.67-.84-1.02,2.36-1.66,5.07-2.16,6.15.74Zm-9.86,12.88c-.1-.27-.18-.55-.26-.83.02-.04.03-.07.05-.11,1.07-2.86,3.52-3.88,7.33-3.05,3.36,4.7-5.07,9.64-7.12,3.98Z"/>
        <path class="cls-1" d="m53.87,68.53c.81-4.76-3.87-10.17-8.19-12.12h0c-.28-3.54-3.74-6.83-7.28-7.01-.22-5.75-5.83-8.81-10.9-9.77-.52-.1-.74.65-.22.8,3.41.96,7.38,2.31,9.28,5.55.59,1.01.82,2.27.91,3.45-.95.11-1.89.44-2.74,1.1-.25.19-.28.46-.09.7,2.09,2.69,3.64,1.62,3.76-1.12.43-.05.78-.08.9-.05,2.43.43,4.14,3.08,4.98,5.18.12.3.21.61.27.91-2.25-.43-5.04.24-4.54,3.15.35,2.05,4.21,1.7,5.02.2.43-.79.62-1.61.65-2.43,3.52,2.13,7.92,6.45,7.33,10.89-2.39-1.44-5.31-2.1-5.85.79-.41,2.21,1.54,6.08,4.18,3.91,1.29-1.06,2.05-2.27,2.4-3.53.15.14.29.26.44.42,1.41,1.19,1.98,3.16,2.45,4.85,1.44,5.24.23,11.36-.49,16.63-.05.38.53.56.59.16,1.11-6.65,2.53-14.08-.6-20.38-.33-.66-1.19-1.52-2.25-2.29Zm-18.03-17.21c-.48-.47.6-.85,1.69-1.07.19,1.15-.37,1.51-1.69,1.07Zm8.77,7.02c-.27,1.03-.97,1.53-2.11,1.52-.57-.52-1.14-1.04-1.71-1.56,1.1-1.45,2.38-2.01,3.82-1.7.08.58.09,1.17,0,1.74Zm6.81,13.11c-1.13-.26-2.26-.52-3.39-.78,1.5-2.62,3.13-3.33,4.89-2.19-.22.99-.68,1.99-1.49,2.96Z"/>
        <path class="cls-1" d="m61.09,42.31c-.13-.43-.76-.44-.88,0-.9,3.24-4.4,5.75-6.25,1.35-1.4-3.34,2.41-5.94,5.07-6.8.61-.2,1.72-.22,2.15-.84,1.94-2.81.03-8.38-1.34-11.06-.27-.53-1.06-.06-.8.46,1.26,2.56,1.7,5.22,1.8,8.05.09,2.65-1.72,2.2-3.15,2.86-2.49,1.16-4.29,2.72-4.82,5.49-.47,2.43,2.25,6.57,5.1,5.32.97-.43,3.02-1.99,2.69-3.1.74,2.51,1.74,10.48-3.04,10.34-.69-.02-1.46.37-2.13.55-4.78,1.32,2.21,10.72,3.71,11.93.35.28.84-.19.5-.5-.43-.38-7.62-10.56-3.56-10.56,1.01,0,2.37-.38,3.38-.65,4.35-1.14,2.32-10.35,1.58-12.85Z"/>
        <path class="cls-1" d="m105.8,58.19c.42-.14.25-.75-.18-.66-19.18,3.77-33.79,20.12-37.42,38.95-.08.41.54.59.64.17,4.9-19.97,17.79-32.12,36.97-38.46Z"/>
        <path class="cls-1" d="m75.4,26.75c-.23.08-.25.35-.06.49.24.18.54.26.85.3-6.14,8.59-10.18,19.7-12.68,29.66-.05.22.25.29.33.09,2.29-5.84,4.29-11.76,6.82-17.51,1.89-4.27,4.3-8.21,6.6-12.24.21-.03.41-.06.59-.1,1-.21,1.81-.89,2.43-1.67.32-.39-.22-.96-.57-.57-.52.59-1.11.99-1.84,1.24.27-.48.54-.96.8-1.44.12-.22-.18-.48-.35-.27-.51.61-1,1.25-1.49,1.89-.49,0-.99-.03-1.45.12Z"/>
        <path class="cls-1" d="m51.31,55.13c-.49-9.56-7.42-21.43-14.98-27.21-.33-.25-.65.26-.41.54,6.65,7.71,13.67,16.09,14.73,26.67.04.42.68.43.66,0Z"/>
        <path class="cls-1" d="m42.76,27.13c.34-.22.65-.46.97-.7.31-.18.62-.3.94-.38.01.13.03.26.05.4-.36.61-.69,1.23-.99,1.86-.12-.18-.23-.36-.35-.54-.22-.32-.68-.05-.52.3.17.36.35.7.52,1.06,0,.11.04.21.14.28,2.45,4.89,5.42,9.46,6.66,14.9.06.27.44.15.4-.11-.86-5.34-3.44-10.55-6.37-15.14.32-.43.64-.87.94-1.32.25.01.55-.2.5-.53,0-.07-.02-.14-.02-.21.19-.3.38-.6.56-.91.38.12.77.34,1.13.66.33.29.99.02.81-.47-.25-.68-.58-1.31-.92-1.93.19-.34.39-.68.58-1.02.25-.44-.25-.91-.68-.68-.23.13-.45.29-.67.43-.37-.58-.75-1.15-1.14-1.73-.22-.33-.8-.23-.79.21.03.98.03,1.95.07,2.92-.48.4-.96.8-1.46,1.18-.33.2-.65.42-.95.7-.41.38.13,1.08.6.77Z"/>
        <path class="cls-1" d="m32.34,20.36c.05-1.51.4-2.95,1.07-4.31.32-.66.77-1.23,1.28-1.75.39-.4.83-.56,1.07-1.07.08-.17-.02-.33-.2-.35-1.31-.16-2.43,1.73-2.96,2.7-.78,1.45-1.08,3.16-1.09,4.79,0,.54.81.53.83,0Z"/>
        <path class="cls-1" d="m33.71,18.35c-.22.44.42.83.66.39.47-.85,1.05-1.6,1.83-2.18.41-.31.88-.49,1.39-.52.37-.02.68.08,1.04-.03.13-.04.18-.18.12-.3-.49-.95-1.81-.59-2.57-.23-1.14.54-1.94,1.77-2.47,2.86Z"/>
        <path class="cls-1" d="m34.85,21.61c.88-.66,1.81-1.11,2.89-1.35,1.24-.28,2.13.3,3.14.89.16.1.39-.06.33-.25-.98-3.06-5.23-1.28-6.85.08-.35.29.12.91.49.63Z"/>
        <path class="cls-1" d="m38.57,23.68c.72.41,1.26,1.05,1.96,1.47.21.13.55-.09.45-.34-.66-1.69-2.79-2.41-4.43-2.7-.46-.08-.67.6-.2.72.78.19,1.51.46,2.21.85Z"/>
        <path class="cls-1" d="m34.31,23.72c-.35-.34-.86.18-.53.53.49.51.98,1.02,1.41,1.58.35.45.62,1.28,1.2,1.43.15.04.28-.05.33-.19.21-.57-.4-1.18-.73-1.6-.5-.64-1.1-1.2-1.68-1.75Z"/>
        <path class="cls-1" d="m31.82,33.26c2.15-1.66,2.03-4.47,1.06-6.76-.18-.42-.91-.12-.74.31.85,2.23.54,4.13-.76,6.1-.19.29.21.52.44.34Z"/>
        <path class="cls-1" d="m28.03,28.64c.68-.28,1.19-.78,1.53-1.42.25-.47-.45-.88-.71-.42-.31.56-.74.9-1.34,1.1-.47.16-1.04.12-1.45.41-.15.11-.16.31,0,.42.55.37,1.41.15,1.98-.09Z"/>
        <path class="cls-1" d="m26.97,24.31c.44-.22.05-.84-.38-.65-.52.23-1.02.34-1.59.32-.54-.02-.98-.4-1.5-.49-.15-.03-.28.09-.24.25.4,1.58,2.69,1.09,3.71.57Z"/>
        <path class="cls-1" d="m25.48,21.63c.46.16.64-.55.2-.72-1.82-.71-2.16-2.23-2.54-3.95-.06-.27-.51-.29-.57,0-.39,2.12.92,4.01,2.91,4.67Z"/>
        <path class="cls-1" d="m28.01,19.57c-.62-1.05-.99-2.16-1.22-3.35-.2-1.07.05-2.12-.1-3.17-.03-.21-.3-.19-.4-.05-1.38,1.88-.05,5.25,1.08,6.95.26.4.89.04.64-.37Z"/>
        <path class="cls-1" d="m29.26,16.93c-.15-.66-.2-1.32-.2-2,0-.63.12-1.25.03-1.88-.03-.19-.28-.17-.36-.05-.77,1.11-.48,2.9-.19,4.13.11.47.82.27.72-.2Z"/>
        <path class="cls-1" d="m80.79,24.73c.48.19.83-.64.36-.84-.08-.03-.15-.08-.22-.12.08.06.19.1.29.1,1.42-.04,2.89-.63,2.97-2.23.07-1.34-1.17-2.4-2.39-2.64-.39-.08-.79-.08-1.17,0,.04-.07.06-.15.04-.25-.22-1.16-.17-2.33.09-3.48.28-1.24,1.08-2.13,1.59-3.24.11-.23-.11-.49-.36-.36-2.4,1.29-2.63,4.97-2.04,7.28.02.09.07.15.13.2-.84.31-1.52.98-1.67,1.95-.24,1.63.94,3.07,2.38,3.64Zm.69-3.49c.12-.48.68-.64,1.06-.87.35.29.62.69.67,1.13.1.95-.83,1.27-1.62,1.36-.13-.53-.24-1.08-.11-1.62Zm-.22-1.31c-.99.65-.82,2.49-.52,3.58.03.1.09.19.18.26-1.84-.99-2.21-3.83.34-3.84Z"/>
        <path class="cls-1" d="m82.18,17.74c.34-1.17.8-2.27,1.5-3.27.74-1.06,1.89-1.33,2.83-2.11.13-.1.06-.34-.1-.37-1.29-.26-2.5.79-3.27,1.71-.91,1.09-1.37,2.48-1.69,3.84-.11.47.59.67.73.2Z"/>
        <path class="cls-1" d="m85.13,17.92c.7-.64,1.46-1.04,2.42-1.07.95-.03,1.56.69,2.39.99.16.06.29-.11.26-.26-.25-1-1.4-1.61-2.38-1.65-1.27-.05-2.36.55-3.24,1.42-.37.36.19.91.57.56Z"/>
        <path class="cls-1" d="m86.96,19.51c.9.05,1.73.32,2.44.9.71.58,1.08,1.45,1.54,2.22.15.24.56.15.55-.15-.11-2.35-2.36-3.72-4.53-3.68-.46,0-.46.69,0,.72Z"/>
        <path class="cls-1" d="m88.57,26.16c.04.18.3.21.38.05.88-1.71-.2-3.69-1.43-4.91-.35-.35-.86.18-.53.53.55.6.96,1.24,1.21,2.01.25.74.21,1.55.36,2.31Z"/>
        <path class="cls-1" d="m82.88,30.19c-.1.13-.05.38.15.36,2.83-.27,3.96-3.74,3.1-6.06-.17-.47-.91-.28-.76.21.33,1.08.31,2.09-.21,3.11-.52,1.03-1.57,1.53-2.28,2.38Z"/>
        <path class="cls-1" d="m82.39,25.71c-.36.96-.88,1.77-1.57,2.52-.56.62-1.5.97-1.92,1.69-.09.16.03.33.2.34.96.07,1.9-.95,2.49-1.61.7-.78,1.16-1.77,1.48-2.76.14-.44-.53-.61-.68-.19Z"/>
        <path class="cls-1" d="m76.49,24.69c.54-.1.3-.89-.22-.81-.6.09-1.2-.02-1.66-.43-.42-.37-.49-.95-.72-1.43-.11-.24-.42-.13-.5.07-.3.75.12,1.58.69,2.08.66.59,1.58.67,2.41.51Z"/>
        <path class="cls-1" d="m74.06,17.52c-.45.77-.01,1.85.41,2.54.47.78,1.28,1.27,2.1,1.6.42.17.72-.55.31-.73-.67-.3-1.22-.7-1.64-1.31-.44-.64-.37-1.46-.77-2.09-.09-.15-.32-.16-.41,0Z"/>
        <path class="cls-1" d="m27.72,23.3c.21,1.27,1.42,2.01,2.59,2.27.48.11.69-.61.2-.74-.76-.21-1.53-.63-1.84-1.4-.29-.72.21-1.26.85-1.51.73-.29,2.01-.44,2.52.32.48.71-.51,1.19-.94,1.54-.22.18-.02.5.21.51,1.15.08,1.98-1.13,1.67-2.18-.42-1.41-2.19-1.42-3.34-1.18-1.12.23-2.14,1.15-1.94,2.37Z"/>
        <path class="cls-1" d="m11.31,62.37c.18.29.37.58.54.88.27.47,1.11.15.9-.38-.02-.04-.04-.08-.05-.12,0,0,0,0,0,0,0,0,0-.01-.01-.02-.71-1.71-1.63-3.24-2.76-4.7-.1-.12-.19-.24-.28-.35.75-.58,1.47-1.19,2.14-1.87.39-.2.79-.37,1.22-.52.58-.19.34-1.08-.25-.91,0,0-.02,0-.02,0-.05-.19-.2-.35-.45-.35-.96,0-1.92-.06-2.88-.12-.04-.75-.12-1.47-.33-2.22-.02-.08-.07-.14-.12-.18-.05-.24-.09-.48-.15-.73-.1-.42-.82-.47-.9,0-.13.88-.33,1.94-.43,3-1.12-.1-2.23-.2-3.35-.32-.46-.05-.55.52-.33.8.9,1.15,1.79,2.34,2.73,3.49-.14.61-.42,1.18-.82,1.69-.56.44-1.11.9-1.63,1.4-.42.4.12,1.07.61.79.7-.41,1.26-.9,1.71-1.45.44-.35.88-.69,1.33-1.02,1.09,1.2,2.26,2.31,3.6,3.23Zm-1.9-7.46c.59.04,1.18.07,1.76.09-.03.03-.06.07-.1.1-.59.32-1.15.7-1.67,1.13,0-.39-.02-.78-.04-1.16.02-.05.04-.1.04-.16Zm-4.26-.39c.4.05.81.09,1.21.13-.04.09-.05.2-.01.32.15.48.22.94.25,1.39-.49-.61-.97-1.22-1.45-1.84Z"/>
        <path class="cls-1" d="m117.37,52.53c-.87.16-1.73.34-2.6.52.12-.77.29-1.55.5-2.32.13-.47-.51-.89-.86-.5-.95,1.1-1.79,2.27-2.59,3.47-.51.11-1.02.21-1.53.32-1.33-1.03-2.86-1.79-4.76-2.09-.62-.1-.89.85-.26.95,1.41.22,2.6.72,3.66,1.4-.77.14-1.54.28-2.32.38-.58.07-.61.97,0,.93,1.16-.09,2.3-.27,3.44-.48.19.16.38.33.56.5-.84,1.43-1.62,2.89-2.32,4.4-.2.42.24,1.02.7.7,1.27-.88,2.55-1.77,3.8-2.69.72.91,1.43,1.87,2.15,2.81h0s.05.07.08.1c.37.47,1.06-.13.8-.62-.66-1.22-1.01-2.49-1.15-3.78,1.15-.96,2.23-2,3.19-3.17.33-.4.02-.94-.5-.85Zm-6.91,5.92c-.13.09-.25.18-.38.27.34-.68.71-1.34,1.09-2,.02.07.05.12.11.17-.29.51-.56,1.03-.82,1.56Zm2.48-1.81c-.06-.08-.13-.14-.2-.22.3-.27.51-.62.65-1.01,0,0,0-.01,0-.02,0,0,0,0,0,0,.01-.04.04-.08.05-.12.17-.58-.6-.82-.92-.39-.04.05-.06.11-.1.16-.11-.02-.22,0-.31.06.11-.16.21-.31.31-.47.39-.09.79-.18,1.18-.27-.04.58-.02,1.15.01,1.72-.23.19-.45.37-.69.55Zm1.67-1.38c0-.37.01-.75.04-1.12.49-.11.98-.22,1.47-.32-.48.5-.99.98-1.51,1.44Z"/>
        <path class="cls-1" d="m63.99,37.31c.62-.69,1.28-1.37,1.94-2.06,0,.02,0,.04.01.05.14.59,1,.34.9-.25-.04-.23-.07-.45-.09-.68.22-.24.43-.47.65-.72.6.06,1.19.19,1.77.44.43.18.96-.21.69-.68-.32-.54-.64-1.09-.96-1.63.34-.48.67-.98.95-1.5.26-.48-.4-1.05-.79-.61-.27.32-.56.62-.85.91-.54-.99-1.04-2.01-1.42-3.09-.16-.45-.8-.37-.82.11-.08,1.63-.31,3.26-.32,4.88-.18.09-.37.16-.56.23-.72.1-1.44.25-2.16.45-.55.15-.45,1.03.13,1,.81-.04,1.56-.21,2.26-.46.12-.02.25-.03.37-.04,0,.07.01.13.02.2-.87.92-1.73,1.84-2.43,2.9-.28.42.36.92.71.54Zm2.76-7.55c.23.51.47,1.01.74,1.51-.27.23-.54.44-.83.64.02-.72.06-1.43.09-2.15Z"/>
        <path class="cls-1" d="m38.33,40.14c.41.25.95-.26.67-.67-.37-.55-.73-1.1-1.09-1.64.19-.44.37-.87.55-1.3.19-.46-.52-.86-.83-.48-.17.2-.36.38-.54.57-.48-.69-.98-1.38-1.51-2.04-.28-.35-.86.03-.74.43.29.95.57,1.9.82,2.85-.37.26-.76.5-1.17.72-.53.15-1.06.38-1.6.71-.47.29-.17,1.12.39.92.04-.02.08-.04.12-.05,0,0,0,0,0,0,.49-.18.96-.39,1.42-.63.39-.11.78-.16,1.17-.14-.28.54-.55,1.08-.79,1.64-.22.5.4.86.73.43.15-.2.28-.42.42-.63.17.5.97.25.88-.31-.05-.3-.11-.59-.17-.88,0-.02.02-.04.03-.06.41.13.83.32,1.25.58Z"/>
        <path class="cls-1" d="m13.78,57.18c-.42-.05-.49.62-.1.72,18.04,4.8,37.6,17.58,36.53,38.65-.03.59.87.59.92,0,1.41-19.8-18.72-37.24-37.35-39.38Z"/>
        <path class="cls-1" d="m24.52,54.79c4.82,2.78,9.18,5.52,13.15,9.49,3.54,3.53,6.5,7.57,9.76,11.35.28.32.71-.14.46-.46-6.22-8.01-13.09-17.55-23.13-20.92-.33-.11-.52.38-.23.55Z"/>
        <path class="cls-1" d="m21.89,57.19c.39-.5.69-1.08.92-1.72.32.45.62.91.9,1.38.27.45.97.04.71-.42-.4-.69-.84-1.34-1.31-1.97.1-.44.18-.89.23-1.34.29-.08.57-.18.87-.23.54-.09.42-.81,0-.97-.25-.09-.51-.17-.77-.25,0-.59-.02-1.16-.07-1.68-.06-.57-.78-.67-.98-.13-.17.45-.35.92-.54,1.38-.82-.19-1.65-.34-2.49-.48-.52-.09-.82.55-.36.86.64.42,1.23.93,1.78,1.47-1,.6-1.88,1.41-2.59,2.4-.33.47.29.87.69.7,1.18-.5,2.02-1.32,2.68-2.29.15.17.28.35.42.52-.24.85-.58,1.66-.68,2.54-.03.29.41.47.58.24Z"/>
        <path class="cls-1" d="m100.09,77.94c.51.54,1.17.97,1.88,1.21.54.19.75-.65.23-.85-.35-.13-.67-.31-.95-.52.26-.04.26-.49,0-.52-.19-.03-.39-.04-.59-.07-.08-.1-.15-.19-.22-.3-.39-.64-.4-1.45-.49-2.17-.03-.25-.44-.29-.54-.07-.38.87-.28,1.71.09,2.45-11.83-.67-26.27,8.14-28.39,19.96-.1.56.75.81.87.24,2.64-13.4,16.33-17.6,28.12-19.35Z"/>
        <path class="cls-1" d="m21.55,75.89c-.85-.62-1.89-1.03-2.82-1.18-.5-.08-.72.65-.21.76.83.18,1.54.52,2.22,1.01.74.52,1.22,1.27,1.88,1.87.24.22.65,0,.56-.32-.15-.52-.44-.99-.81-1.4,12.47.25,21.83,7.84,24.57,20.36.12.56.92.31.84-.23-1.76-11.83-13.68-23.38-26.22-20.86Z"/>
        <path class="cls-1" d="m17.96,67.6c.06-.17-.09-.31-.25-.33-.86-.1-1.6.98-1.91,1.67-.38.85-.33,1.78,0,2.63.19.47.94.29.78-.21-.24-.73-.24-1.44.1-2.14.32-.64,1.05-.96,1.27-1.62Z"/>
        <path class="cls-1" d="m18.39,72.07c.05-.76.3-1.43.84-1.97.47-.48,1.11-.47,1.67-.77.21-.11.22-.47,0-.57-.8-.37-1.73.14-2.32.69-.71.66-.96,1.68-.95,2.62,0,.49.72.48.75,0Z"/>
        <path class="cls-1" d="m19.13,73.63c.58-.39,1.18-.67,1.88-.73.68-.06,1.2.35,1.85.37.25,0,.34-.25.26-.45-.3-.69-1.18-.83-1.86-.87-.91-.05-1.83.44-2.53.96-.41.31-.03,1.01.41.71Z"/>
        <path class="cls-1" d="m18.53,77.76c-.46-.3-.86.42-.42.72,2.2,1.56,2.07,4,.97,6.21-.09.18.12.32.26.2,2.47-2.03,1.66-5.52-.82-7.13Z"/>
        <path class="cls-1" d="m16.45,81.14c-.08.91-.5,1.65-1.29,2.11-.76.45-1.59.1-2.36.36-.19.06-.25.29-.12.44.74.81,2.29.42,3.11-.06.99-.59,1.39-1.74,1.36-2.84-.01-.46-.67-.45-.7,0Z"/>
        <path class="cls-1" d="m11.97,80.77c-.54-.02-1.07-.04-1.6-.12-.47-.08-.88-.33-1.34-.41-.24-.04-.53.21-.35.46.71.98,2.24.85,3.29.82.48-.02.48-.73,0-.75Z"/>
        <path class="cls-1" d="m9.55,77.1c-.68-.03-1.32-.17-1.8-.68-.47-.5-.3-1.32-.77-1.78-.08-.08-.22-.08-.3,0-.58.6-.1,1.79.35,2.33.62.75,1.59.95,2.53.95.53,0,.52-.8,0-.82Z"/>
        <path class="cls-1" d="m10.75,74.77c-.38-.56-.7-1.14-.92-1.8-.23-.71-.07-1.5-.33-2.18-.07-.17-.3-.29-.44-.12-1.06,1.27.23,3.55,1.04,4.63.12.16.29.2.45.17-.38,2.01,1.79,3.46,3.44,3.95.51.15.71-.62.22-.79-1.35-.46-3.05-1.63-2.67-3.27.25-1.09,1.33-1.81,2.39-1.75.77.05,1.56.55,1.97,1.19.5.78-.08,1.38-.73,1.77-.24-.51-.21-1.13-.58-1.6-.14-.19-.41-.12-.44.12-.11.89-.09,1.75.5,2.45.15.17.39.16.58.07,1.17-.53,2.17-1.57,1.66-2.93-.45-1.21-1.76-1.89-2.97-2.03-1.41-.16-2.64.86-3.17,2.11Z"/>
        <path class="cls-1" d="m12.47,69.04c0-.16-.17-.24-.31-.18-1.31.62-1.06,2.66-.56,3.71.23.49.93.06.72-.42-.27-.62-.3-1.22-.15-1.86.1-.43.3-.8.29-1.25Z"/>
        <path class="cls-1" d="m105.6,71.65c-.15.47.56.76.79.33.38-.7.8-1.31,1.47-1.75.62-.41,1.44-.5,2.15-.64.22-.04.26-.38.06-.47-1.85-.88-3.9.78-4.48,2.53Z"/>
        <path class="cls-1" d="m114.18,72.34c.2,0,.35-.24.24-.42-1-1.53-3.76-1.15-5.2-.6-.54.21-.31,1.07.24.87.76-.27,1.49-.39,2.3-.37.85.02,1.59.5,2.42.51Z"/>
        <path class="cls-1" d="m113.48,74.13c-.47-.28-.87.43-.42.72.78.51,1.35,1.16,1.81,1.97.38.68.49,1.45.97,2.06.11.14.32.04.37-.1.56-1.78-1.34-3.82-2.72-4.65Z"/>
        <path class="cls-1" d="m112.91,77.42c.42.62.68,1.27.85,2,.13.58,0,1.21.21,1.78.06.15.24.22.37.1,1.1-1.08.03-3.31-.7-4.3-.32-.42-1.03-.03-.72.42Z"/>
        <path class="cls-1" d="m111.39,80.64c.23.86.15,1.6-.25,2.39-.37.72-1.03,1.22-1.46,1.89-.13.21.09.55.34.45,1.89-.76,2.7-3.08,2.1-4.93-.15-.46-.86-.27-.73.2Z"/>
        <path class="cls-1" d="m108.46,82.99c-.58.66-1.22,1.2-2.01,1.61-.74.39-1.56.28-2.33.52-.22.07-.26.35-.06.48,1.74,1.12,3.94-.8,4.94-2.07.29-.38-.21-.91-.54-.54Z"/>
        <path class="cls-1" d="m104.68,83.43c-.79.23-1.56.37-2.38.33-.88-.04-1.46-.65-2.26-.78-.21-.04-.41.12-.35.35.21.82,1.16,1.14,1.91,1.31,1.1.25,2.28-.01,3.33-.36.54-.18.32-1.03-.24-.86Z"/>
        <path class="cls-1" d="m100.34,78.76c-.08-.03-.21,0-.27.07-.45.57.18,1.34.62,1.73.6.54,1.4.83,2.17,1.02.57.15.81-.72.24-.88-.62-.17-1.24-.39-1.74-.81-.39-.32-.55-.96-1.03-1.13Z"/>
        <path class="cls-1" d="m102.55,72.74c-.61.33-.55,1.15-.54,1.74,0,.48.75.48.75,0,0-.5.05-.96.19-1.44.07-.24-.19-.42-.4-.3Z"/>
        <path class="cls-1" d="m107.47,77.16c.25-.26,0-.67-.34-.59-.91.21-1.94,1.04-1.95,2.05-.01.83.79,1.33,1.47,1.58,1.65.6,4.13.04,4.41-1.96.4-2.91-2.62-4.86-5.17-3.68-1.19.55-2.15,1.56-2.48,2.84-.39,1.5.45,2.86,1.58,3.76.16.13.33.25.51.36.47.32.89-.43.44-.75-.96-.69-1.84-1.7-1.65-2.97.15-.95.86-1.72,1.65-2.2,1.93-1.19,4.27.06,4.19,2.39-.05,1.41-1.87,1.59-2.91,1.34-.37-.09-.92-.28-1.03-.69-.13-.52,1.02-1.18,1.29-1.47Z"/>
        <path class="cls-1" d="m52.46,15.12c-.03.09-.07.18-.1.28-.13.42.44.72.72.46,1.2,1.41,2.53,2.79,3.94,4.04.02.17.02.35.04.52.05.29.44.22.53,0,0,0,0,0,0-.01.15.13.31.25.46.38-.01.36-.03.72-.03,1.07,0,.19.29.3.38.1.1-.22.17-.46.25-.68.37.29.75.57,1.13.83-.04.05-.07.1-.11.14-.3.4.32.81.66.51.06-.06.12-.12.19-.18.32.1.62-.24.55-.53,3.28-3.22,5.95-7.59,7.99-11.59,1.12-2.19,3.31-7.1,1.22-9.38-3.58-3.88-9.62,3.6-10.29,7.13-.13-.26-.29-.53-.46-.79.05-.26-.13-.43-.34-.46-2.8-3.77-9.04-6.82-10.96-1.35-1.03,2.92,1.65,6.23,3.29,8.34.3.39.61.78.93,1.17Zm5.7,4.22c-.06-.05-.12-.11-.18-.16.31-1.27.45-2.63.75-3.88.07-.3.17-.6.25-.9-.37,1.64-.67,3.31-.83,4.94Zm2.58-10.68c.51-2.39,1.84-4.22,3.67-5.8.63-.55,1.36-.99,2.13-1.31-.77.91-1.39,1.93-2.24,2.79-.08.08-.11.17-.11.25-1.07,3.58-2.21,7.17-3.3,10.75.47-2.57.67-5.22.97-7.7.04-.34-.54-.42-.6-.08-.09.59-.2,1.17-.3,1.75-.09-.18-.37-.24-.54-.1-.01-.02-.02-.04-.03-.05-.02-.07-.04-.14-.07-.22.18.01.38-.07.42-.28Zm-.79,11.5c.37-.53.7-1.08,1-1.66.1,0,.2-.02.26-.13,1.95-3.41,2.61-7.59,4.07-11.23.2-.49-.59-.69-.78-.21-.07.17-.14.35-.21.53.2-.89.41-1.77.64-2.62.94-.96,2-2.15,2.26-3.5,0-.01,0-.02,0-.03.12-.04.24-.09.36-.12,2.71-.75,2.58,2.54,2.32,4.21-.58,3.73-2.62,7.06-4.95,10.17.43-1.03.81-2.08,1.17-3.15.09,0,.18-.02.24-.1,1.13-1.67,1.91-3.59,2.8-5.4.19-.4-.4-.75-.6-.35-.51,1-1.06,2-1.57,3.01.69-2.43,1.28-4.9,1.91-7.28.12-.45-.56-.63-.69-.19-1.75,5.92-3.42,11.67-6.17,17.17-.56.69-1.1,1.38-1.62,2.05-.33-.29-.65-.58-.97-.87.04-.1.08-.21.12-.31.08.14.31.17.42,0Zm-.75-11.54c.14.27.27.53.37.8-.95,2.57-2.37,5.84-2.58,8.82-.25-.23-.5-.46-.74-.7.63-.97.92-2.45,1.25-3.38.64-1.82,1.19-3.68,1.7-5.55Zm-1.62-2.21c-.84,2.34-1.77,4.64-2.58,6.99-.16.46-.57,1.37-.28,1.86.26.45.7.05.78-.28.01-.05,0-.08,0-.12,0-.01.02-.02.03-.03.12-.21.17-.46.24-.69.26-.87.55-1.73.84-2.59.51-1.51,1.01-3.03,1.49-4.56.18.22.35.45.52.68-.57,1.91-1.2,3.8-1.85,5.69-.33.96-1.04,2.2-1.38,3.34-.62-.62-1.22-1.26-1.81-1.92.47-1.12.86-2.27,1.21-3.43,0,0,0-.01.01-.02,0,0,0,0,0,0,.33-1.1.65-2.2,1.03-3.28.14-.41-.49-.57-.64-.18-.65,1.73-1.2,3.49-1.86,5.21-.16.31-.31.62-.45.94h0c1.29-2.88,1.23-6.63,1.47-9.69,0-.09-.03-.14-.07-.19,1.21.48,2.36,1.3,3.31,2.29Zm-6.62-2.18c-.48,1.84-.97,4.14-.72,6.16,0,0-.01-.01-.02-.02-1.68-2.78-1.56-7.46,2.84-6.6.3.06.59.15.89.25-.15.03-.29.12-.31.31-.18,1.76-.39,3.51-.65,5.26-.18,1.26-.51,2.49-.67,3.75-.5-.63-.98-1.27-1.43-1.93.22-.85.21-1.73.23-2.61.05-1.47.16-2.94.45-4.38.08-.4-.52-.57-.62-.17Z"/>
        <path class="cls-1" d="m52.41,11.72c.46-.95.47-2.06.58-3.1.14-1.22.18-2.46.17-3.69,0-.49-.75-.49-.76,0-.03,1.08-.12,2.14-.25,3.21-.13,1.15-.46,2.37-.23,3.51.04.22.39.27.48.06Z"/>
        <path class="cls-1" d="m16.28,41.29c2.11-.27,5.45-.63,7.25-2.02.27-.04.5-.26.4-.59-1.08-3.47-2.56-6.85-4.16-10.11-1.11-2.27-2.49-5.22-5.24-5.81-3.8-.81-.74,8.07.23,9.99-.28.07-.57.15-.87.24-.16-.04-.33.02-.43.15-.78.26-1.59.58-2.36.98-.03-.03-.06-.06-.08-.1-.29-.33-.73.1-.55.44-2.3,1.36-3.78,3.35-1.26,5.75,1.85,1.76,4.77,1.38,7.08,1.08Zm-2.32-13.6c-.24-.98-.38-1.98-.35-3,1.06,1.89,2.19,3.98,3.48,5.93-.81-.99-1.63-1.98-2.45-2.96-.26-.32-.67.03-.6.37-.03-.11-.06-.22-.09-.33Zm.09.36s.04.09.07.13c1.41,1.75,2.81,3.5,4.17,5.28.47.62.92,1.26,1.37,1.91-.25-.3-.51-.59-.75-.9-.92-1.16-1.81-2.35-2.78-3.47-.29-.34-.77.15-.49.49.25.31.5.63.75.97-.31-.18-.76.14-.52.49,1.36,1.94,2.86,4.66,5.02,5.8.23.12.56-.14.38-.38-.15-.21-.34-.39-.51-.59.15.11.29.24.44.34.19.12.4-.09.34-.28.17.19.32.38.5.56.23.23.53-.06.42-.32-.57-1.35-1.49-2.57-2.42-3.75.26.26.52.52.79.75.24.2.59-.05.43-.33-.95-1.75-2.35-3.32-3.51-4.94-1.31-1.84-2.52-3.75-3.7-5.67-.07-.11-.16-.15-.26-.16.63-.9,2.61.87,3.05,1.44,2.79,3.69,4.59,8.71,5.99,13.12-1.15.3-2.28.63-3.41.94,0-.04.02-.07,0-.11-.33-1.09-1.17-1.99-1.8-2.92-.72-1.06-1.37-2.17-1.91-3.33,0-.05-.01-.1-.03-.15.06-.12.08-.27,0-.42-.77-1.4-1.24-2.93-1.64-4.47Zm1.08,5.54c.52,1.13,1.13,2.2,1.8,3.25.61.95,1.21,2.04,2.12,2.73-.32.09-.64.18-.96.26-.37-.94-1.05-1.8-1.56-2.66-.66-1.11-1.33-2.22-2.01-3.33.2-.08.4-.16.6-.25Zm-1.38.54c.68,1.16,1.33,2.33,2,3.49.26.46.52.94.81,1.41-.46-.59-1.01-1.14-1.42-1.73-.64-.92-1.18-1.89-1.65-2.91-.03-.06-.06-.09-.11-.12.12-.05.25-.09.37-.14Zm-.95.35c-.02.06-.02.12,0,.19.44,1.07.95,2.09,1.56,3.08.04.06.08.13.12.19-.24-.23-.47-.46-.67-.69-.68-.78-1.36-1.56-2.03-2.33.34-.16.68-.29,1.02-.43Zm-1.82.83s.06-.03.09-.05c.7.88,1.38,1.76,2.09,2.63.66.8,1.45,1.9,2.42,2.44-.21.03-.41.08-.62.1.03-.09.04-.19,0-.28-.4-.77-1.33-1.35-1.97-1.93-.87-.8-1.72-1.61-2.56-2.43-.04-.04-.08-.06-.12-.08.25-.16.49-.3.67-.4Zm-1.25.81c0,.09.03.18.11.26.82.84,1.64,1.69,2.48,2.51.55.54,1.2,1.26,1.94,1.6-.49.03-.99.03-1.49,0,.05-.07.08-.15.06-.25-.16-.74-.97-1.35-1.47-1.9-.61-.69-1.25-1.35-1.9-2,.09-.08.18-.15.28-.22Zm-.82.89c.54.59,1.06,1.19,1.59,1.79.45.5.96,1.29,1.6,1.64-.11-.01-.21-.01-.31-.03-1.29-.18-2.53-1.18-2.98-2.4-.13-.36-.06-.69.11-1Z"/>
        <path class="cls-1" d="m16.21,26.27c1.21,2.1,2.47,4.5,4.07,6.33.14.16.42,0,.36-.21-.8-2.31-2.62-4.36-3.85-6.46-.22-.38-.8-.04-.58.34Z"/>
        <path class="cls-1" d="m89.34,45.15c0,.33.48.49.64.17.06-.11.1-.23.15-.35.08.22.3.41.6.36,4.9-.79,10.06-1.29,14.65-3.31,1.9-.84,5.62-2.22,5.52-4.87-.15-3.98-7.53-2.94-10.4-1.58.98-2.14,2.34-4.94,1.1-7-1.29-2.14-2.99-2.85-5.28-1.67-2.35,1.21-3.59,4.07-4.42,6.52-.02.03-.05.05-.07.08-.05.07-.05.14-.03.22-.05.16-.11.33-.16.49-1.05,3.28-2.3,7.48-2.3,10.94Zm18.5-9.42c.36.14.67.3.93.5-.91.72-1.85,1.4-2.77,2.11-.96.74-2.19,1.57-2.72,2.7-.15.31.17.73.5.5.95-.63,1.73-1.54,2.62-2.26.99-.79,2-1.54,2.98-2.34.27.56.16,1.22-.53,1.93.05-.36-.3-.75-.66-.48-1.31.96-2.78,1.73-3.86,2.96-.04.04-.05.09-.05.13-1.43.55-2.92.98-4.45,1.32.71-.48,1.38-1.01,2.05-1.49,1.51-1.09,2.96-2.27,4.42-3.44.25-.2.08-.57-.17-.67.52-.4,1.04-.78,1.56-1.14.12-.09.16-.21.14-.33Zm-15.82,1.5c1-.62,1.9-1.44,2.79-2.18,1.46-1.22,2.87-2.5,4.21-3.85.33-.33-.18-.84-.51-.52-1.24,1.19-2.53,2.31-3.86,3.39-.77.62-1.6,1.22-2.37,1.87.16-.79.34-1.57.58-2.3,0,0,0,0,0-.02.14-.08.27-.18.4-.27-.18.25-.35.5-.47.77-.1.23.12.53.37.37,1.04-.65,1.86-1.67,2.76-2.49,1.06-.96,2.12-1.9,3.12-2.91.1-.1.12-.21.11-.32.13-.08.26-.18.4-.26.39-.24.05-.83-.35-.61-1.38.75-2.65,1.63-3.89,2.59-.57.44-1.19.89-1.79,1.36.96-2.17,2.52-4.36,4.9-4.65,4-.48,2.46,4.71,1.93,6.2-.22.61-.47,1.21-.71,1.82-.01,0-.02,0-.04,0-1.45.2-2.97.74-4.44,1.43.07-.06.14-.12.21-.17,1.71-1.37,3.36-2.79,4.91-4.34.4-.4-.21-1-.61-.61-1.41,1.37-2.91,2.64-4.45,3.87-1.06.85-2.28,1.65-3.33,2.58.04-.25.09-.51.13-.76Zm4.85.15c.15-.07.21-.19.22-.31.79-.32,1.56-.67,2.27-1.11-.04.1-.08.2-.12.31-.08.24.03.39.19.47-2.54.95-5,2.48-7.23,3.83-.45.27-.04.97.41.71,3.02-1.76,6.3-2.92,9.34-4.6.35-.19.1-.69-.26-.61-.13.03-.26.07-.4.1,1.34-.61,2.76-.85,4.3-.83.59,0,1.16.08,1.68.22-.39.24-.78.49-1.17.74-.03-.03-.07-.06-.12-.04-.79.27-1.55.59-2.32.92-.03-.02-.07-.03-.11-.03-3.96.8-7.81,3.1-11.57,4.57-.51.2-.29,1.03.23.83,1.14-.43,2.36-.86,3.59-1.3-.24.13-.48.26-.72.39-.87.44-1.73.88-2.6,1.34-.5.26-.06.98.43.74,3.29-1.55,6.53-3.28,9.69-5.12-.02,0-.03.02-.05.03-1.79,1.22-3.76,2.25-5.47,3.57-.24.18-.12.62.22.52.68-.21,1.35-.5,2-.82-.66.43-1.31.88-1.89,1.4-2.37.41-4.74.71-6.97,1.07-.03,0-.05.02-.07.03.53-1.32.85-2.77,1.12-4.26,1.82-.85,3.58-1.83,5.36-2.75Z"/>
        <path class="cls-1" d="m91.96,56.2c-.99.3-.77-1.08-1.17-1.57-.1-.12-.29-.1-.39,0-.54.52-.32,1.61.16,2.12.45.48,1.06.57,1.67.43,1.15-.26,2.16-1.62,1.23-2.64-1.32-1.46-3.85-1.61-5.29-.3-.67.61-.84,1.52-.72,2.38.05.36.25.94.54,1.38-6.15,4.01-12.25,11.59-14.42,18.49-.13.43.55.73.73.31,3.34-7.56,8.67-12.49,14.23-18.27.22.12.47.14.74-.01.15-.08.25-.25.24-.42-.02-.44-.47-.7-.69-1.06-.06-.09-.13-.14-.21-.16-.31-.77-.28-1.58.56-2.15,1.08-.73,2.55-.31,3.47.46.5.42-.32.9-.69,1.01Z"/>
        <path class="cls-1" d="m44.87,84.98c.29.46.99.05.73-.43-2.43-4.31-6.56-8.29-11.12-10.28-.3-.13-.51.23-.25.43,4.07,3.08,7.89,5.88,10.65,10.28Z"/>
        <path class="cls-1" d="m33.23,88.36c-.36-.06-.65.45-.27.64,3.48,1.68,7.82,1.44,10.22,4.98.2.29.67.03.48-.28-2.15-3.58-6.55-4.67-10.43-5.34Z"/>
        <path class="cls-1" d="m85.54,88.99c-2.02-.3-4.53,1.1-6.2,2.12-1.9,1.16-3.44,2.85-3.98,5.04-.13.54.67.76.83.23.65-2.12,2.24-3.56,4.09-4.68,1.68-1.01,3.69-1.18,5.34-2.11.23-.13.21-.56-.08-.61Z"/>
        <path class="cls-1" d="m26.31,86.17c-.78,2.28,1.74,4.4,3.8,4.41.48,0,.47-.71,0-.74-1.52-.1-3.18-1.62-2.93-3.25.22-1.41,2.7-2.03,3.72-1.14.65.56.69,1.71.36,2.45-.47,1.04-1.19-.51-1.54-.92-.16-.18-.52-.04-.49.2.13,1.34,1.58,2.93,2.7,1.44.83-1.1.55-3.04-.46-3.92-1.53-1.33-4.52-.38-5.15,1.46Z"/>
        <path class="cls-1" d="m32.76,54.58c1.08,1.04,2.15,2.1,3.18,3.18.27.28.65-.13.42-.42-.94-1.19-1.9-2.33-2.96-3.41-.92-.94-1.94-2.12-3.15-2.68-.24-.11-.57.13-.4.4.74,1.12,1.94,2,2.91,2.93Z"/>
        <path class="cls-1" d="m70.01,49.6c-.13.35.44.59.6.25,2.22-4.77,5.78-8.29,9.07-12.28.33-.4-.17-.9-.56-.57-3.91,3.28-7.29,7.83-9.11,12.59Z"/>
        <path class="cls-1" d="m83.11,35.56c-.92.76-1.27,2.26-.2,3.05.92.68,2.26.03,2.92-.69,1.32-1.47,1.3-4.16-.68-4.99-1.56-.65-3.61-.15-4.79,1.02-1.71,1.7-.34,3.91,1.16,5.16.41.34,1.01-.23.6-.6-1-.91-2.21-2.34-1.26-3.69.68-.97,2.13-1.3,3.24-1.2,1.32.12,1.9,1.14,1.69,2.38-.17.98-.77,1.95-1.87,1.99-1.26.04-.47-1.51-.29-2.12.1-.32-.29-.48-.51-.3Z"/>
        <path class="cls-1" d="m54.21,35.78c.5-3.98-.39-8.29-2.67-11.64-.18-.27-.66-.11-.55.23,1.26,3.88,2.69,7.23,2.8,11.41,0,.28.38.26.42,0Z"/>
        <path class="cls-1" d="m68.13,25.8c0,.5.75.5.78,0,.18-3.59,1.62-6.53,2.58-9.91.09-.3-.31-.43-.47-.2-2.02,2.79-2.9,6.72-2.89,10.11Z"/>
        <path class="cls-1" d="m26.18,44.21c-1.22,0-1.22,1.89,0,1.89s1.22-1.89,0-1.89Z"/>
        <path class="cls-1" d="m21.04,43.37c-1.13,0-1.13,1.76,0,1.76s1.13-1.76,0-1.76Z"/>
        <path class="cls-1" d="m20.43,91.17c-1.11,0-1.11,1.72,0,1.72s1.11-1.72,0-1.72Z"/>
        <path class="cls-1" d="m13.48,91.95c-.88,0-.88,1.36,0,1.36s.88-1.36,0-1.36Z"/>
        <path class="cls-1" d="m20.43,87.09c.26,0,.26-.41,0-.41s-.26.41,0,.41Z"/>
        <path class="cls-1" d="m16.8,46.32c.73,0,.73-1.12,0-1.12s-.73,1.12,0,1.12Z"/>
        <path class="cls-1" d="m64.37,42.41c1.1.63,2.03-.3,1.4-1.4-.84-1.47-2.86.56-1.4,1.4Z"/>
        <path class="cls-1" d="m67,38.89c-.67,0-.67,1.04,0,1.04s.67-1.04,0-1.04Z"/>
        <path class="cls-1" d="m87.87,30.5c.99,0,.99-1.54,0-1.54s-.99,1.54,0,1.54Z"/>
        <path class="cls-1" d="m97.24,52.91c-1.31.07-1.31,1.96,0,2.03.34.02.6-.01.92-.17.63-.33.63-1.35,0-1.68-.31-.16-.57-.19-.92-.17Z"/>
        <path class="cls-1" d="m94.82,51.68c1.01,0,1.01-1.57,0-1.57s-1.01,1.57,0,1.57Z"/>
        <path class="cls-1" d="m96.03,70.54c.37,0,.37-.58,0-.58s-.37.58,0,.58Z"/>
        <path class="cls-1" d="m87.53,85.58s.03-.04.04-.06c.17-.23.17-.67,0-.9-.01-.02-.03-.04-.04-.06-.56-.78-1.88-.56-1.88.51s1.32,1.29,1.88.51Z"/>
        <path class="cls-1" d="m87.57,89.4c-1.05,0-1.05,1.63,0,1.63s1.05-1.63,0-1.63Z"/>
        <path class="cls-1" d="m90.29,86.69c-1.04,0-1.04,1.61,0,1.61s1.04-1.61,0-1.61Z"/>
        <path class="cls-1" d="m95.73,89.49c-.94,0-.94,1.45,0,1.45s.94-1.45,0-1.45Z"/>
        <path class="cls-1" d="m44.93,17.76c1.33,0,1.33-2.07,0-2.07s-1.33,2.07,0,2.07Z"/>
        <path class="cls-1" d="m41,13.77c.86,0,.86-1.33,0-1.33s-.86,1.33,0,1.33Z"/>
        <path class="cls-1" d="m73.66,14.17c.99,0,.99-1.54,0-1.54s-.99,1.54,0,1.54Z"/>
        <path class="cls-1" d="m100.27,47.76c-1.32,0-1.32,2.04,0,2.04s1.32-2.04,0-2.04Z"/>
        <path class="cls-1" d="m98.15,49.48c-1.05,0-1.05,1.63,0,1.63s1.05-1.63,0-1.63Z"/>
        <path class="cls-1" d="m101.78,54.64c.92,0,.92-1.43,0-1.43s-.92,1.43,0,1.43Z"/>
        <path class="cls-1" d="m105.11,48.53c.85,0,.85-1.31,0-1.31s-.85,1.31,0,1.31Z"/>
        <path class="cls-1" d="m97.85,70.9c1.23,0,1.23-1.9,0-1.9s-1.23,1.9,0,1.9Z"/>
        <path class="cls-1" d="m93.92,72.67c-1.18,0-1.18,1.82,0,1.82s1.18-1.82,0-1.82Z"/>
        <path class="cls-1" d="m94.22,68.06c-.88,0-.88,1.37,0,1.37s.88-1.37,0-1.37Z"/>
        <path class="cls-1" d="m25.27,68.61c-.95,0-.95,1.46,0,1.46s.94-1.46,0-1.46Z"/>
        <path class="cls-1" d="m11.66,67.03c-.65,0-.65,1.01,0,1.01s.65-1.01,0-1.01Z"/>
        <path class="cls-1" d="m8.03,88.64c-.86,0-.86,1.33,0,1.33s.86-1.33,0-1.33Z"/>
        <path class="cls-1" d="m10.45,85.78c-1.04,0-1.04,1.62,0,1.62s1.04-1.62,0-1.62Z"/>
        <path class="cls-1" d="m43.72,46.53c-.95,0-.95,1.47,0,1.47s.95-1.47,0-1.47Z"/>
        <path class="cls-1" d="m52.23,78.68c-.62.17-.91.9-.59,1.45.37.64,1.34.65,1.71,0,.42-.74-.25-1.69-1.12-1.45Z"/>
        <path class="cls-1" d="m53.4,74.96c-.95,0-.95,1.47,0,1.47s.95-1.47,0-1.47Z"/>
        <path class="cls-1" d="m49.77,78.07c-.45,0-.45.69,0,.69s.44-.69,0-.69Z"/>
        <path class="cls-1" d="m63.68,87.82c-1.13,0-1.13,1.76,0,1.76s1.13-1.76,0-1.76Z"/>
        <path class="cls-1" d="m63.98,91.59c-.95,0-.95,1.47,0,1.47s.95-1.47,0-1.47Z"/>
        <path class="cls-1" d="m75.17,65.63c-.89,0-.89,1.38,0,1.38s.89-1.38,0-1.38Z"/>
        <path class="cls-1" d="m61.26,62.45c.85,0,.85-1.32,0-1.32s-.85,1.32,0,1.32Z"/>
        <path class="cls-1" d="m69.05,73.28v.26c0,1.26,1.95,1.26,1.95,0v-.26c0-1.25-1.95-1.25-1.95,0Z"/>
        <path class="cls-1" d="m55.51,51.15c-1.24,0-1.24,1.92,0,1.92s1.24-1.92,0-1.92Z"/>
        <path class="cls-1" d="m53.09,51.22c.8,0,.8-1.24,0-1.24s-.8,1.24,0,1.24Z"/>
        <path class="cls-1" d="m44.93,51.19c.76,0,.76-1.18,0-1.18s-.76,1.18,0,1.18Z"/>
        <path class="cls-1" d="m44.63,4.55c.68,0,.68-1.05,0-1.05s-.68,1.05,0,1.05Z"/>
        <path class="cls-1" d="m40.69,6.88c.94,0,.94-1.46,0-1.46s-.95,1.46,0,1.46Z"/>
        <path class="cls-1" d="m7.13,47.93c.85,0,.85-1.31,0-1.31s-.85,1.31,0,1.31Z"/>
        <path class="cls-1" d="m4.41,43.3c.73,0,.73-1.13,0-1.13s-.73,1.13,0,1.13Z"/>
        <path class="cls-1" d="m96.34,22.56c1.27,0,1.27-1.98,0-1.98s-1.27,1.98,0,1.98Z"/>
        <path class="cls-1" d="m93.31,18.36c.93,0,.93-1.45,0-1.45s-.93,1.45,0,1.45Z"/>
        <path class="cls-1" d="m93.01,11.64c.85,0,.85-1.31,0-1.31s-.85,1.31,0,1.31Z"/>
        <path class="cls-1" d="m.78,69.75c-1.04,0-1.04,1.61,0,1.61s1.04-1.61,0-1.61Z"/>
        <path class="cls-1" d="m118.11,65.84c-1.02,0-1.02,1.58,0,1.58s1.02-1.58,0-1.58Z"/>
        <path class="cls-1" d="m119.62,70.49c-.87,0-.87,1.35,0,1.35s.87-1.35,0-1.35Z"/>
        <path class="cls-1" d="m123.85,70.39c-.99,0-.99,1.54,0,1.54s.99-1.54,0-1.54Z"/>
      </g>
      <g>
        <path class="cls-2" d="m49.58,135.88l-3.49,9.2c-.04.13-.17.2-.3.2-.2,0-.34-.23-.27-.41l2.93-7.74c-.94,1.18-1.97,2.33-2.92,2.35-.58,0-.89-.33-.89-.74,0-.17.03-.35.1-.54.06-.13.17-.2.3-.2.04,0,.09.01.13.03.1.04.16.16.16.27,0,.04,0,.07-.01.11-.04.11-.07.23-.07.3,0,.14.1.17.28.17.62-.03,1.38-.86,2.18-1.77,1.21-1.35,1.43-1.97,1.73-1.97.17,0,.28.1.28.24,0,.1-.06.27-.14.5Z"/>
        <path class="cls-2" d="m53.57,139.51c-.17,0-.3-.13-.3-.3,0-.14.08-.27.24-.3.94-.17,1.84-1.12,1.84-2.2,0-.92-.81-1.18-1.66-1.18-1.3,0-2.45.89-2.45,2.17,0,1.02.74,1.43,1.49,1.86,1.19.68,2.01,1.36,2.01,2.65-.03,1.79-1.89,3.06-3.83,3.06-1.32,0-2.16-.78-2.16-1.98,0-1.73,1.15-2.93,2.88-3.69-.57-.41-.99-.94-.99-1.86,0-1.67,1.42-2.81,3.05-2.81,1.32,0,2.27.6,2.27,1.77,0,1.23-1.32,2.79-2.4,2.79Zm-4.21,3.79c0,.91.62,1.39,1.56,1.39,1.66,0,3.2-1.06,3.23-2.48,0-1.08-.78-1.57-1.87-2.21-1.67.65-2.92,1.64-2.92,3.3Z"/>
        <path class="cls-2" d="m57.75,144.91c0,.27-.23.48-.5.48s-.48-.21-.48-.48.21-.5.48-.5.5.23.5.5Zm.54-2.07c0,.27-.23.48-.5.48s-.48-.21-.48-.48.21-.5.48-.5.5.23.5.5Z"/>
        <path class="cls-2" d="m61.42,145.29c-1.16,0-1.69-1.09-1.72-2.4-.04-3.02,2.07-7.87,4.72-7.95,1.3-.07,2.01.95,2.01,2.35,0,3.34-2.34,7.99-5.02,7.99Zm3.03-9.75c-2.18,0-4.24,4.71-4.15,7.34.03,1.05.31,1.81,1.12,1.81,2.35-.04,4.42-4.45,4.42-7.39,0-1.08-.47-1.77-1.39-1.77Z"/>
        <path class="cls-2" d="m68.48,145.29c-1.16,0-1.69-1.09-1.72-2.4-.04-3.02,2.07-7.87,4.72-7.95,1.3-.07,2.01.95,2.01,2.35,0,3.34-2.34,7.99-5.02,7.99Zm3.03-9.75c-2.18,0-4.24,4.71-4.15,7.34.03,1.05.31,1.81,1.12,1.81,2.35-.04,4.42-4.45,4.42-7.39,0-1.08-.47-1.77-1.39-1.77Z"/>
      </g>
    </g>
  </g>
</svg>