<?xml version="1.0" encoding="UTF-8"?>
<svg id="Layer_2" data-name="Layer 2" xmlns="http://www.w3.org/2000/svg" viewBox="0 0 130.66 144.2">
  <defs>
    <style>
      .cls-1 {
        fill-rule: evenodd;
      }

      .cls-1, .cls-2 {
        fill: #391a11;
      }
    </style>
  </defs>
  <g id="Layer_1-2" data-name="Layer 1">
    <g>
      <g>
        <path class="cls-2" d="m45.46,107.04c.81,0,1.36.43,1.36,1.05,0,.91-1.66,1.65-3.29,2.02-1.31,2.78-3.5,9.1-3.5,10.21,0,1.16.51,1.73,1.59,1.77,1.33,0,2.74-1.84,3.96-4.06.69-1.22,3.38-7.51,3.61-8.4.07-.21.28-.31.48-.31.35,0,.58.29.46.54-1.82,4.6-3.38,8.44-3.38,10.36,0,1.09.37,1.82,1.43,1.82,2.42,0,3.82-3.73,5.2-7.43,1.47-3.88,2.9-7.74,5.84-7.74.28,0,.51.17.51.41s-.21.41-.48.41c-2.23-.02-3.57,3.55-4.95,7.18-1.5,3.98-2.99,8.02-6.12,8.02-1.63,0-2.39-1.15-2.39-2.66,0-.25.02-.52.05-.8-1.22,1.98-2.67,3.47-4.21,3.47-1.75-.04-2.55-.99-2.55-2.58,0-1.24,1.77-6.44,3.34-10.03-.46.08-.92.14-1.4.19-2.9.39-6.83.85-6.83,3.18,0,1.03.81,1.75,1.82,1.75.32,0,.48.19.48.39,0,.21-.18.43-.51.43-1.61,0-2.81-1.15-2.76-2.6,0-2.91,4.33-3.51,7.64-3.94.69-.1,1.36-.16,1.96-.25.51-1.13,1.5-2.39,2.67-2.39Zm.32,1.05c0-.16-.14-.27-.32-.27-.51,0-1.1.66-1.47,1.32.97-.17,1.79-.74,1.79-1.05Z"/>
        <path class="cls-2" d="m63.69,117.91c0,.06-.02.1-.05.16-1.5,2.79-3.24,4.08-5.57,4.08-1.91,0-3.06-1.07-3.01-2.66.14-2.48,2.53-6.52,5.25-6.52,1.15,0,1.96.5,1.96,1.44,0,2.06-3.43,3.3-5.98,3.82-.16.5-.23.87-.25,1.28-.05,1.11.69,1.79,2.07,1.82,1.89.04,3.36-1.09,4.65-3.59.11-.19.39-.29.64-.21.18.08.3.23.3.39Zm-2.39-3.51c0-.52-.48-.62-.99-.62-1.59,0-2.92,2.02-3.66,3.51,1.91-.5,4.65-1.46,4.65-2.89Z"/>
        <path class="cls-2" d="m68.43,117.89c0,.06-.02.12-.05.17-1.33,2.43-2.62,4.08-4.74,4.08-1.1,0-1.7-.7-1.7-1.63,0-.56.23-1.26.81-2.79.62-1.53,1.31-3.16,1.98-4.77l1.2-2.95c.09-.21.37-.31.62-.25.25.08.39.31.3.52l-1.2,2.95c-.64,1.55-1.31,3.11-1.98,4.76-.51,1.32-.76,2.19-.76,2.54,0,.52.28.81.74.81,1.66,0,2.76-1.61,3.84-3.61.09-.14.28-.23.46-.23.07,0,.14.02.21.04.16.08.28.21.28.37Z"/>
        <path class="cls-2" d="m75.72,117.91c0,.06-.02.1-.05.16-1.4,2.64-3.06,4.08-5.73,4.08-1.68,0-2.78-1.07-2.78-2.66,0-3.03,2.88-6.52,5.22-6.52,1.31,0,1.96.76,1.96,1.82,0,.87-.51,1.77-1.04,1.77-.3,0-.48-.14-.48-.39,0-.27.55-.6.55-1.38,0-.68-.3-1.01-.99-1.01-1.79,0-4.26,3.4-4.26,5.73,0,1.09.74,1.82,1.84,1.82,2.23,0,3.66-1.36,4.81-3.59.11-.19.39-.29.64-.21.18.08.3.23.3.39Z"/>
        <path class="cls-2" d="m81.2,120.9c-.64,0-1.24-.17-1.75-.52-.85.97-2.02,1.77-3.13,1.77-1.5,0-2-.83-2-1.96,0-2.25,1.2-4.13,1.96-5.18.97-1.36,2.09-2.04,3.24-2.04,1.52.04,2.3.91,2.3,2.08,0,1.22-.74,3.12-1.79,4.64.25.27.64.41,1.17.41.97,0,1.77-.74,2.58-2.35.07-.16.25-.25.44-.25.35,0,.6.29.46.56-1.01,1.96-2.09,2.85-3.47,2.85Zm-1.4-2.89c-.07.16-.07.31-.09.45.71-1.2,1.15-2.54,1.15-3.44,0-.82-.58-1.24-1.36-1.24-.87,0-1.7.68-2.37,1.65-.6.83-1.82,2.72-1.82,4.72,0,.7.28,1.18,1.01,1.18.85,0,1.82-.78,2.58-1.69-.25-.5-.21-1.36-.05-1.84.05-.19.25-.31.48-.31.32,0,.55.25.46.52Z"/>
        <path class="cls-2" d="m98.84,118.12c-.85,1.63-2.12,4.02-4.17,4.02-1.13,0-1.68-.68-1.68-1.63,0-1.77,1.79-4.17,1.79-5.76,0-.56-.28-1.01-1.2-1.01-1.33,0-3.13,2.54-3.8,4.11-.05.12-1.59,3.92-1.56,3.88-.07.17-.25.27-.46.27-.35,0-.58-.29-.46-.54.02-.06,1.54-3.86,1.56-3.9.48-1.18.83-2.06.83-2.74,0-.72-.32-1.09-1.15-1.09-.64,0-1.33.62-2,1.42-.41.52-1.79,2.66-1.93,2.97l-1.56,3.75c-.09.23-.37.33-.62.27-.25-.08-.39-.31-.3-.52,1.17-2.79,2.37-5.59,3.54-8.38.07-.17.25-.27.46-.27.35,0,.58.29.46.54-.09.17-.16.33-.23.52.67-.66,1.4-1.11,2.19-1.11,1.38,0,2.12.76,2.12,1.79.67-.89,1.84-1.79,2.92-1.79,1.66,0,2.16.8,2.16,1.82,0,1.86-1.77,4.1-1.77,5.76,0,.56.21.81.69.81,1.13,0,2.05-1.15,3.29-3.59.07-.16.28-.25.46-.25.23,0,.48.19.48.41,0,.06-.02.1-.07.23Z"/>
        <path class="cls-2" d="m106.21,117.91c0,.06-.02.1-.05.16-1.5,2.79-3.24,4.08-5.57,4.08-1.91,0-3.06-1.07-3.01-2.66.14-2.48,2.53-6.52,5.25-6.52,1.15,0,1.96.5,1.96,1.44,0,2.06-3.43,3.3-5.98,3.82-.16.5-.23.87-.25,1.28-.05,1.11.69,1.79,2.07,1.82,1.89.04,3.36-1.09,4.65-3.59.11-.19.39-.29.64-.21.18.08.3.23.3.39Zm-2.39-3.51c0-.52-.48-.62-.99-.62-1.59,0-2.92,2.02-3.66,3.51,1.91-.5,4.65-1.46,4.65-2.89Z"/>
      </g>
      <g>
        <path class="cls-1" d="m129.95,58.76c.45.07.78-.21.7-.57-.63-2.87-3.11-6.02-6.64-7.11.5-.39.95-.81,1.28-1.16,1.45-1.53,2.44-3.3,2.33-5.26-.01-.27-.36-.55-.72-.44-.69.21-1.33.53-1.94.92,1.91-2.94,2.92-6.56,1.57-9.61-.08-.17-.26-.31-.5-.31-1.98.05-3.41,3.33-3.99,4.55-.15.33-.28.66-.39.99-.21-.14-.43-.28-.66-.41.6-1.35,0-2.5-1.06-3.39.14,0,.28-.05.31-.18.57-2.3-.53-4.59-3.3-5.51-2.81-.93-11.94-1.74-9.08-5.55.05-.07.07-.13.07-.19,1.41.24,2.82.48,4.2.85,2.71.74,3.52,2,4.05,4.14.08.32.66.29.76,0,.36-1.04.28-1.86-.1-2.53,2.11.86,4.48,1.32,6.49,1.25.32-.01.67-.28.53-.56-1.19-2.4-3.64-5.77-6.78-6.94,2.2-.88,4.22-1.99,5.68-3.65.12-.14.09-.4-.08-.51-1.77-1.12-3.87-.76-5.76.23.15-1.19-.03-2.42-.4-3.3-.65-1.59-2.03-2.46-3.65-2.64,1.33-2.98-.88-6.61-1.94-9.66-.14-.39-.76-.34-.93,0-1.52,3.2-2.6,6.84.08,9.85.04.05.09.08.15.11-.22.07-.44.13-.66.22-.52.21-.06.81.45.62.35-.13.68-.22,1.01-.29-.25.39-.54.79-.87,1.2,0,0,0,0,0,0-.05.01-.1.02-.15.03-.26.08-.35.27-.32.44-.15-.11-.31-.22-.48-.32.32-.59.14-1.42-.08-2-.15-.39-.43-.71-.76-.99-1.34-2.17-5.94-3.29-8.48-2.25.79-2.76.82-5.95-.09-8.53-.09-.26-.59-.42-.82-.18-2.52,2.61-2.26,6.12-.41,8.94.05.07.11.12.18.15-.01.13-.01.27-.02.4-.16.19-.3.39-.4.62-.03,0-.05-.01-.08-.02-.07-3.7-4.61-5.68-8.59-6.98-.36-.12-.71.17-.72.44-.14,3.5,4.09,6.19,8.12,7.15.04.29.08.57.13.87.06.36.78.34.87,0,.05-.17.07-.33.09-.49,0,.13-.02.25,0,.39.06.5,1.02.51.97,0-.02-.18,0-.34.03-.5.28-.12.39-.42.17-.59.58-1.19,2.41-1.43,4.14-1.13,1.04.19,1.8.54,2.45,1-.57.05-1.13.2-1.62.39-1.06.41-2.1,1.22-2.23,2.21-.16,1.2,1.16,1.89,2.39,2.21-.03.4.03.8.1,1.16.11.55,1.14.32,1.03-.23-.22-1.13.17-2.19,1.81-1.8.15.03.4.12.67.23,0,0,0,0-.01,0-.66.46-2.7,2.11-.81,2.52.28.06.6.06.92.01,0,.4-.02.79.08,1.19.15.57,1.23.33,1.08-.24-.11-.41.01-.87-.03-1.29.39-.2.72-.45.91-.73.32-.47.2-.91-.15-1.29.06,0,.13,0,.21-.02,1.8-.42,2.99.26,2.88,1.79-.05.62-.41,1.22-.84,1.72-.54.64-1.46.85-2.06,1.39-.15.13-.11.39.14.43,2.36.35,3.91-2.39,3.91-3.9,0-1.55-1.31-2.38-2.9-2.38.42-.35.76-.72,1.03-1.1,1.57.15,2.73,1.13,3.25,2.68.32.96.24,2-.02,2.96-.04.14-.11.27-.17.4-1.27.92-2.33,2.06-2.99,3.09-.3.12-.59.25-.9.42-.04.02-.07.05-.1.08-.89-.54-1.99-.83-3.21-.99.04-.03.07-.08.07-.14.17-2.58-1.95-3.85-4.93-4.12-4.18-.38-9.26,1.34-12.33-1.55.04,0,.08,0,.12-.01,4.69-.54,8.17-1.38,12.32.99.29.17.61-.15.46-.37-1.33-1.91-3.81-2.31-6.33-2.27.01-.05.03-.09,0-.14-1.44-3.19-3.97-3.46-6.84-2.86,0,0,0-.02-.01-.03-1.05-1.05-2.87-1.38-4.57-1.35-1.03-.65-2.56-.9-3.78-1.13-1.77-.34-3.55-.27-5.27.17-.32.08-.38.34-.28.53-.45.11-.9.26-1.34.44.03-.08.03-.16-.07-.23-1.56-1.06-4.33-.96-6.27-.5-5.6.12-7.95,6.76-13.77,7.09.15-.15.31-.29.47-.45,1.08-1.12,2.11-2.26,3.29-3.31,1.82-1.62,3.92-2.18,6.34-2.97.32-.1.27-.46-.08-.48-1.98-.12-3.61.37-5.07,1.2.1-.18-.03-.42-.35-.46-2.67-.29-5.5,1.39-7.4,2.72-1.03.72-1.95,1.58-2.72,2.52.16-1.31.16-2.66.12-4.1-.01-.34-.51-.5-.81-.27-1.86,1.4-4.41,4.2-5.07,6.83-.74-2.29-1.86-4.58-4.05-6.03-.28-.19-.73-.14-.84.18-1.06,3.08.23,6.17,2.7,8.52-.04-.01-.08-.03-.12-.04-1.96-.56-4.03-.22-5.65.61,1.75-1.54,2.37-4.04,2.4-5.98,0-.23-.25-.45-.54-.43-3.73.18-4.89,4.11-4.21,6.55.06.22.26.3.47.29-.2.28.24.58.57.43.04-.02.06-.04.1-.06-.45.37-.83.77-1.11,1.22-.04-2.65-.93-5.43-1.04-8.01-.01-.35-.58-.59-.9-.3-2.86,2.56-2.59,6.55.71,8.77,0,0,0,0,0,0,.04.25.08.51.12.76-2.04-2.19-4.59-4.08-8.24-3.96-.36.01-.65.29-.55.58.05.13.13.25.18.38-.21.17-.29.45-.03.64.19.13.39.27.58.4.49.73,1.11,1.38,1.85,1.95-.32-.1-.65-.18-.99-.21-1.05-.1-2.3.22-3.06.86,1.03-4.1.11-8.17-1.93-12-.07-.13-.29-.21-.45-.21-.11,0-.23,0-.34,0-.23,0-.44.13-.5.31-1.06,3.34-1.34,6.65.18,9.67-.8-.64-1.65-1.24-2.48-1.83-1.44-1.03-3.02-1.91-4.85-2.4-.42-.11-.7.23-.64.52.51,2.8,4.16,4.34,7.14,5.2.02,0,.04,0,.06,0-.58.02-1.16.13-1.67.28-1.6.48-3.08,1.46-3.82,2.71-.19.32-.31.71-.36,1.11-1.73-2.16-4.74-3.13-7.21-4.81-.36-.25-.91-.09-.93.31-.18,3.32,3.74,5.18,7.07,6.39-1.58-.15-3.13.49-4.06,2.08-.91,1.56-.47,2.94.74,3.82-.67.5-1.05,1.36-1.02,2.4.06,1.58,1.19,2.93,2.75,3.56-3.05-.9-7.05-1-9.83-.12-.45.14-.59.62-.14.84,3.24,1.59,7.75,1.74,11.24.44.06,0,.12.01.18,0-3.34,2.59-5.44,6.34-5.28,10.08.02.41.61.61.97.33,3.77-2.86,6.38-6,6.79-10.02.13-.16.26-.31.39-.47.46,1.09,1.47,2,2.8,2.54.49.2,1.05.3,1.62.33-2.96,1.66-4.88,4.22-5.79,7.17-.07.24.09.51.4.57,4.07.76,6.87-2.27,8.39-5.3,0,0,0,0,0,0,0,.4.08.8.18,1.2-.15,0-.29.05-.36.18-1.46,2.59-2.13,5.26-1.86,8.11.05.49.96.65,1.12.12.33-1.11.84-2.28,1.27-3.46.42.84,1.11,1.6,1.98,2.24-.14.08-.22.21-.18.38.33,1.25.84,2.41,1.46,3.54-.02.03-.05.06-.06.1-1.14,3.01-.7,5.99.47,8.86-.15-.02-.32.03-.39.17-1.21,2.44-.99,4.51.15,6.83-.09.03-.16.07-.21.16-1.28,2.38-1.21,4.48.12,6.8-1.12,2.46-.98,4.67.44,7.09,0,0,0,.01.01.02-.23,2.63-1.28,5.87,0,8.36-3.78.25-7.58.49-11.24-.01-.52-.07-.74.53-.22.65,8.85,2.06,18.02-.93,27.06,1.09.45.1.76-.45.32-.62-3.39-1.23-6.96-1.47-10.6-1.38.03-.35.03-.7-.02-1.05.75-1.68.77-3.62.23-5.42.13-.55.12-1.09,0-1.63.36-1.2.43-2.46.24-3.69.07-.05.13-.11.14-.2.07-.92-.07-1.79-.34-2.62.85-1.87.49-4-.1-6,.04-.05.06-.12.04-.19-.43-1.65-1.16-3.15-1.95-4.59.11,0,.21-.03.26-.12,1.31-2.5.99-4.82.05-7.08,1.2-2.24.79-5.07.07-7.36-.02-.06-.05-.11-.09-.15,1.77.08,3.56-.29,5.05-1.29.01.15.02.31.02.46-2.08,2.08-3.2,4.65-2.91,7.35.04.38.58.61.95.32,1.45-1.13,2.21-2.5,2.57-3.97.55,1.85,1.7,3.53,3.86,4.59.28.13.59.03.76-.16,1.64-1.84,1.44-3.9.32-5.72,1.15.47,2.46.66,3.75.47.3-.04.47-.34.39-.56-.58-1.61-2.36-3.01-4.41-3.37,2.8-.66,4.4-3,3.57-5.33-.13-.36-.74-.27-.77.08-.17,2.16-.68,4.23-3.8,4.55-.42.04-.82.04-1.22,0-.08-.22-.39-.22-.57-.09-.27-.05-.54-.12-.79-.2,0,0,0,0,0,0,.23-.3-.28-.6-.59-.37-.04.03-.08.05-.11.08-.69-.33-1.3-.76-1.81-1.26,1.66-.41,2.64-1.66,2.83-2.96,1.98-.45,3.38-1.66,2.79-3.58-.09-.29-.24-.55-.42-.78-.04-.43-.16-.82-.35-1.17.37-.28.62-.64.79-1.05,1.15.58,2.09,1.45,2.8,2.36.42.54.72,1.13.72,1.78,0,.38-.27.63-.6.83-.15-.46-.36-.92-.57-1.31-.2-.37-.96-.1-.8.27.23.54.35,1.03.41,1.53-.07.04-.14.08-.2.12-.16.12-.08.36.13.4.04,0,.07,0,.1,0,0,.52-.07,1.05-.26,1.62-.05.15.18.33.36.22.81-.49,1.06-1.18,1.02-1.9,1.87-.21,2.68-1.77,2.43-3.2-.31-1.73-2.13-3.38-4.05-4.09-.47-.17-.88.37-.41.56,1.5.62,2.58,1.74,3.19,2.99.29.59.33,1.06.21,1.47-.02-.25-.07-.49-.16-.72-.63-1.51-2.32-2.9-4.13-3.59.06-.37.09-.75.02-1.14-.22-1.25-1.14-2.56-2.37-3.55.2.09.38.19.6.27,1.42.48,2.99.24,4.16-.54.32-.21.61-.5.87-.83.1,3.47,1.22,7.52,4.98,9.02.4.16.81-.04.84-.39.33-3.61.6-7.84-2.55-10.67.64.1,1.36.09,2.14-.09,1.26-.29,2.39-1.03,2.91-2.01.52-.97.37-2.43-.62-3.19.97-.66,1.48-1.69,1.6-2.76.55.37.97.83,1,1.45.03.82-1.22,1.33-1.88,1.78-.27.19.03.48.32.44,1.36-.2,2.51-1.08,2.58-2.22.06-.96-1-1.68-1.99-2.13-.02-.35-.07-.69-.17-1.03-.56-1.83-2.23-3.32-4.32-4.04,2.38-.85,4.57-1.98,6.56-3.37.35-.24.07-.75-.38-.74-.4.02-.8.07-1.19.12.53-.38,1.03-.79,1.51-1.22,0,0,.01,0,.02,0,.33.03.65.04.96.05-.03.06-.04.13-.01.21,4.17,12.46,10.81,24.67,20.79,34.82,7.23,7.35,19.26,15.2,31.61,15.53.34,1.61,1.94,2.97,3.87,3.46-7.02,7.42-14.24,15.46-16.66,24.69-.1.39.58.54.74.16,3.83-8.58,9.3-15.61,15.53-22.89-2.24,4.74-4.36,9.74-5.5,14.52-.1.44.69.63.84.18,1.9-5.76,6.08-11.62,7.12-17.56.1-.12.21-.24.31-.36.07-.08.08-.15.08-.22.32-.08.62-.2.88-.38-.56,1.19-.78,2.4.05,3.61.26.37.55.7.85,1.01,1.03,2.36-.77,4.69.47,6.96-1.9,2.49-4.39,5.31-1.56,7.89-.62.87-.89,1.79.59,2.28.14.04.26.08.39.11-.81,2.01-1.79,6,.33,7.7-7.35-.66-14.61-2.09-22.09-1.74-10.38.47-20.59,4.73-30.87,1.2-.56-.19-1.05.46-.49.67,8.3,3.09,17.88.97,26.43-.34,12.43-1.91,24.26,2.87,36.5,1.19.51-.07.39-.76-.12-.73-2.66.15-5.29.08-7.9-.12-.85-1.21-1.48-2.11-1.57-3.57-.08-1.34.25-2.72.7-4.02.89.2,1.58.37,2.4,1.3,1.71,1.94.17,3.74-.74,5.62-.13.27.37.5.6.28,2.03-1.85,2.71-4.18,1.09-6.35-.51-.69-1.23-1.35-2.2-1.6-1.47-.37-2.63-.37-2.27-1.41.83.27,1.94.2,2.7.18.8-.02,1.58-.07,2.38.03,1.44.18,1.29,1.31,1.15,2.27-.1-.27-.21-.54-.32-.78-.19-.41-.99-.25-.82.18.42,1.09.61,2.18.55,3.32-.07,1.22-.81,2.19-1.14,3.34-.08.27.31.45.56.26,1.73-1.29,1.91-3.47,1.46-5.38.12,0,.25-.03.31-.13,1.07-1.68.78-3.88-1.97-4.05-1.38-.09-3.06.25-4.39-.14.07-.29-.38-.48-.66-.26-2.32-1.3.22-4.57,1.69-6.51.21.12.44.23.63.32,2.76,1.31,1.99,3.37,1.29,5.5-.11.35.48.54.71.24,1.12-1.42,1.93-3.88.52-5.38.03-.01.05-.01.08-.04.72-.68.89-1.61.81-2.51.28-.66.26-1.31.03-1.95,2.08-1.91,3-4.64.88-6.78-.29-.29-1.04-.62-1.42-.8-2.77-1.32-2.52-3.17-2.07-5.29.25-1.16.19-2.11-.18-3.02,2.41,1.97,2.23,4.21,3.05,6.83.1.32.69.24.7-.08.09-1.98-.03-3.35-.52-4.49.1.1.2.2.3.3.81,3.59,2.56,7.38,6.33,9.51.26.14.65.04.79-.17,2.56-3.69-1.34-8.2-5.54-10.34.48-.26.93-.64,1.28-.88.85-.58,1.68-1.17,2.47-1.81.34-.27.1-.79-.4-.78-1.22.03-2.6.25-3.76.57.68-1.68.72-3.36.25-5.08,1.44,1.87,3.67,3.32,6.4,3.77ZM95.67,8c-.12-.14-.23-.27-.35-.41-.33-.39-1.11-.03-.79.37.38.48.77.97,1.16,1.45-2.7-1.05-5.2-2.73-5.56-5.04,1.76.58,3.51,1.21,4.93,2.25.61.45,1.01.94,1.29,1.46-.18-.21-.48-.21-.69-.09Zm3.23-.27c-.94-2.03-1.11-4.37.17-6.27.39,2.11.08,4.18-.17,6.27Zm8.47,5.67c-.81-.15-1.66-.02-2.26.45-.22.17-.36.37-.47.58-.71-.27-1.62-.72-1.49-1.4.13-.67.91-1.16,1.6-1.46.67-.29,1.53-.43,2.26-.2.38.42.74.87,1.12,1.34.04.31.05.63.11.93-.32-.11-.63-.2-.88-.25Zm4.15-1.52c-.2.02-.4.06-.6.1.04-.09.04-.19-.05-.29-1.85-2.29-1.82-5.6-.55-8.18.38,1.21.92,2.4,1.38,3.59.7,1.84.57,3.3-.18,4.78Zm-79.65,3.76c.08,1.22.24,2.43.42,3.64.11.74.17,1.48.25,2.23-1.63-1.69-1.92-4-.67-5.87Zm-18.97,3.28c2.12.84,3.66,2.28,5.38,3.53-2.13-.76-4.44-1.8-5.38-3.53Zm-6.96,5.11c1.21.7,2.51,1.31,3.68,2.04-.12.1-.18.24-.11.4.2.5.49,1.02.85,1.49-2.05-.92-3.98-2.15-4.42-3.93Zm-3.85,17.73c1.75-.32,3.47-.22,5.31.06.61.09,1.23.24,1.84.38-2.36.44-4.96.3-7.15-.44Zm31.16,21.63c.03-.47.11-.92.21-1.38.15-.02.29-.08.39-.19.37-.44.67-.9.92-1.37-.26,1.06-.74,2.06-1.52,2.94Zm10.14-4.1c-1.25.02-2.44-.41-3.43-1.03-.55-.35-.94-.75-1.22-1.19,1.99-.1,3.83.75,4.65,2.22Zm-6.84-2.12s.05-.1.06-.15c2.63,1.94,4.99,4.74,3.03,7.46-2.56-1.5-3.35-4.17-3.52-6.7.14-.2.28-.41.42-.61Zm3.53-45.03c1.03.89,1.76,2,2.31,3.2-.32-.12-.78,0-.74.35,0,.04.02.07.02.11h0s0,.01,0,.02c.11.89.49,1.68,1.05,2.41.26.54.55,1.07.86,1.59-2.43-2.03-4.12-4.87-3.5-7.68Zm-5.21,8.03c-.42-1.73.22-4.8,2.66-5.33-.09,1.11-.36,2.18-.9,3.22-.43.81-1.11,1.44-1.76,2.11Zm7.01.44c1.57.55,2.84,1.63,3.69,2.8.84,1.15.72,2.01.14,2.84-.9-.22-1.87-.29-2.73-.19-.11.01-.22.04-.33.06-.06-1.06-.42-2.32-1.51-2.98-.73-.44-1.71-.45-2.47-.07-.77.39-1.19,1.14-1.04,1.86.24,1.08,1.56,1.68,2.72,2.04.05.01.08.01.13.02-.11.09-.18.2-.27.3-.03-.07-.08-.13-.18-.18-1.49-.75-3.21-1.23-4.93-1.07-2.5-3.36,2.5-6.95,6.78-5.44Zm2.01,8c-.58.12-1.11.51-1.5.97-.05.03-.11.05-.16.08-.17-.21-.44-.4-.55-.69-.11-.27-.48-.35-.75-.27-.1-.64.2-1.22,1.27-1.56.88-.28,1.92-.31,2.88-.12-.15.15-.31.31-.48.47-.26.24-.02.64.39.55.54-.12.97-.34,1.31-.62.23.11.45.23.64.37.71.52.88,1.27.73,2-.15.74-.8,1.11-1.59,1.28,0-.03.02-.04.02-.07-.11-1.01-.45-2.76-2.21-2.39Zm-3-1.88c.04-.17-.04-.38-.29-.47-.8-.27-1.73-.7-1.98-1.42-.14-.41.12-.85.54-1.09.46-.27,1.04-.26,1.48.04.88.6.94,1.72,1.03,2.57,0,0,0,.01,0,.02-.28.1-.54.22-.79.37Zm-7.45-.29c-1.19.45-2.17,1.22-2.74,2.16.02-1-.36-2.06-1.18-3.07-.15-.19-.33-.38-.52-.55,1.39.65,2.92,1.13,4.45,1.46Zm-15.95,6.52c.34,2.33,3.92,4.57,6.46,2.44,2.43-2.04-1.65-4.4-4.1-4.29-.28.01-.56.19-.54.44.03.52.08,1.08.66,1.39.42.22.83-.26.52-.54-.07-.07-.1-.23-.11-.4,1.25.1,2.37.7,3.04,1.57.84,1.09-1.1,1.69-2.09,1.75-1.06.06-1.84-.62-2.32-1.29-.91-1.26-.55-2.77.53-3.85.4-.4.89-.63,1.41-.76.11.02.22.04.34.06.09.13.29.16.43.08,1.01.22,1.97.57,2.78.96.78.38,1.5.9,2.03,1.51.02.05.03.11.04.16-.11.15-.05.36.11.47.15,1.01-.19,2.05-1.16,2.8-1.38,1.07-3.73.96-5.44.65-1.69-.31-3.47-1.01-4.54-2.14-1.43-1.51-.08-3.01,1.52-3.96.62-.37,1.31-.55,2.03-.63-1.17.85-1.82,2.17-1.61,3.6Zm9.33,2.81c1.37-.85,1.72-2.2,1.1-3.44,1.04-.5,1.77-1.16,2.23-1.9,0,.28.06.55.15.82-.09,0-.17,0-.26.03-.64.2-.41.76-.32,1.15.02.11.21.2.35.16.23-.08.46-.18.53-.39.01-.03,0-.05,0-.08,0,.01,0,.02.01.03.12.23.19.47.26.72.35,1.18.15,2.49-.2,3.65-.12.39-.28.77-.47,1.14-1.11.47-2.06,1.19-2.76,2.06-.86-.12-1.66-.79-2.2-1.33-.06-.06-.13-.09-.2-.1,0-.06,0-.11,0-.17.87-.66,1.54-1.48,1.79-2.34Zm-1.23-14.88c-.06-.1-.1-.22-.16-.33,2.4.16,4.23,1.32,5.73,2.78-1.86-.82-3.79-1.53-5.57-2.45Zm-3.37,4.62s.1,0,.15-.03c1.06-.55,1.59-1.35,3.01-1.31,1.34.03,2.51.96,3.24,1.78,1.8,2.04,1.31,4.41-1.1,5.72-.68-1.66-2.51-3.02-4.71-3.23-.23-.02-.44-.01-.65,0,.27-.96.39-1.99.08-2.92Zm-2.11-12.26c.18-.67-.03.13.29.84.48,1.05.8,2.15,1.09,3.25.53,2,.5,4.02.1,6.02-2.4-3.09-2.47-6.5-1.48-10.11Zm-6.88,15.97s.04-.01.07-.02c.22.29.53.52.95.67.34.12.66-.12.5-.4-.56-.98-1.14-1.6-.49-2.69.59-.97,1.73-1.69,2.92-2.15,1.04-.4,2.48-.59,3.41.09,1.14.83,1.02,2.48.8,3.76-.16.02-.33.04-.49.08-.67-.07-1.34-.08-2-.02-1.52.14-3.23.97-4.21,2.09-.55-.43-1.15-.74-1.76-.94.23-.09.37-.29.31-.46Zm-5.63,22.2c.23-2.79,1.72-5.54,4.05-7.63-1.1,1.64-2.16,3.3-3.12,5-.29.52.62.97.96.45,1.05-1.58,2.1-3.07,3.22-4.54-.87,2.55-2.69,4.71-5.12,6.71Zm6.89.76c.68-1.91,1.82-3.62,3.44-4.99-.23.37.46.82.97.51.92-.58,1.8-1.2,2.68-1.81-1.04,2.82-3.41,6.57-7.08,6.29Zm7.83-8.22c.07-.11.16-.22.21-.34.09-.23-.24-.42-.49-.3-.7.33-1.22.8-2.01,1-.81.21-1.67.02-2.4-.27-1.5-.6-2.43-1.91-2.38-3.24.02-.5-.91-.49-.95,0-.02.25,0,.49.03.73,0,0-.02.01-.03.02-.01-.06-.05-.11-.09-.16,0-.1.01-.2,0-.31-.02-.3-.38-.41-.65-.33-2.36.07-4.17-.26-4.86-2.35-.37-1.1-.05-2.19.79-2.5.53.21,1.14.33,1.79.39.09.66.49,1.26,1.36,1.53.25.08.53-.16.44-.36-.17-.4-.54-.7-.73-1.09-.23-.46-.13-.93.11-1.37.23-.44-.54-.83-.81-.38-.11.18-.2.39-.27.59-.66-.28-1.28-.37-1.81-.29-2.8-1.72.62-6.75,4.6-3.59-.15.27-.26.55-.3.85-.25,1.69,1.32,2.98,2.98,3.79,2.26,1.12,5.66,1.56,8.08.69-.78.83-1.6,1.55-3.12,1.88-2.43.52-4.52-1.01-5.65-2.56-.29-.4-1.05-.04-.77.36,1.3,1.88,3.35,3.28,6.14,3.1.93-.06,1.88-.38,2.72-.85.01,1.87-1.75,2.8-4.2,2.7-1.04-.04-2.09-.31-2.96-.76-.89-.45-.81-.91-.9-1.64-.03-.29-.42-.43-.7-.23-.89.63-.23,1.71.44,2.25.99.79,2.51,1.1,3.86,1.22,2.81.26,4.88-.9,5.22-2.82.54.51,1.17.95,1.89,1.14-.57.95-.87,2-.83,3.04-1.21.21-2.32.77-3.08,1.6.03-.12.07-.23.1-.35.07-.3-.15-.49-.43-.53-.04-.14-.16-.24-.33-.27Zm8.17.48c1.05-.53,2.39-.82,3.48-.88,1.65-.09,2.96.34,3.8,1.14-.22.12-.47.23-.74.32-1.26-.31-2.7-.33-3.8-.2-.68.08-1.29.27-1.82.53-.27-.35-.57-.66-.91-.91Zm.79,3.2c-.35.23-.63.54-.77.98-.06.19-.07.37-.06.56-.27-.15-.53-.31-.74-.49.03-.11.06-.22.09-.32.23-.65.62-1.17,1.12-1.6.04.22.11.46.24.73.03.06.07.11.12.15Zm-.66-1.84c-.74.53-1.28,1.21-1.63,1.97-.13-.25-.22-.52-.25-.81-.09-.81.29-1.47.92-1.98.35.22.68.49.96.83Zm-2.56.21c-.47-.53-.75-1.12-.9-1.72.63,0,1.26.11,1.85.35-.45.41-.78.87-.95,1.37Zm-.44.81c.08.08.17.11.27.12,0,.45.09.9.29,1.36.11.23.26.43.42.63-.24,1.19-.03,2.42.62,3.35-1.34.6-2.41.76-3.78-.26-.82-.61-1.38-1.42-1.77-2.28.24-.35.53-.69.88-1.02.38-.35-.24-.86-.64-.51-.22.2-.42.4-.61.59-.04-.13-.09-.25-.12-.38-.54-2.13,1.05-3.63,3.01-4.03.21.86.66,1.69,1.42,2.42Zm-2.45,9.85c1.25.72,2.76,1.19,4.3,1.34-.15.07-.27.2-.23.38.25,1.29.38,2.58.38,3.88,0,.71-.11,1.4-.18,2.1-1.31-2.57-3.23-5.08-4.26-7.7Zm.99,4.31c.48.79.97,1.58,1.49,2.38,1.97,3.02,2.17,5.53,1.7,8.81-2-3.52-4.21-6.78-3.19-11.19Zm.75,37.39c.03-1.31-.23-2.62-.15-3.95.06-1.01.17-2.02.25-3.03.53.71,1.1,1.41,1.61,2.12,1.1,1.51,1.5,3.03,1.89,4.67-1.19.04-2.39.12-3.59.19Zm3.78-3.45c-.42-.84-.97-1.66-1.55-2.44-2.18-2.96-3.65-5.28-2.85-8.54.76,1.05,1.67,2.04,2.48,3.05.49.61.84,1.23,1.14,1.86-.24.05-.43.26-.3.5,1.08,1.9,1.11,3.69,1.08,5.57Zm.16-6.75c-.46-.77-1.03-1.5-1.57-2.19-2.41-3.02-4.55-5.51-3.09-9.14,1.35,2.42,2.94,4.51,4.12,6.88,0,.02-.02.04,0,.06.54,1.5.63,2.93.56,4.38Zm-.26-11.31c.16,1.02.31,2.05.43,3.07.08.69.05,1.38.03,2.08-2.1-4.09-6.68-7.5-4.85-12.53,1.12,2.57,2.78,5.04,4.39,7.39Zm4.65-21.41c-2.67,1.76-5.68,2.43-9.01.93-2.66-1.2-3.77-3.37-3.14-5.44.53.79,1.23,1.51,2.05,2.05,1.42.94,3.45.98,4.7-.04.78.65,1.9,1,3.37.85.54.65,1.24,1.21,2.03,1.65Zm-1.72-2.62c-.04-.06-.09-.11-.13-.17-.24-.37-.86-.11-.79.25-.35,0-.73-.04-1.14-.13-.49-.11-.85-.32-1.14-.58-.03-.07-.09-.12-.17-.16-.55-.62-.7-1.5-.64-2.33.4.24.85.43,1.34.58.28.39.67.74,1.11.98,1.21.67,2.44.35,3.37-.4.03,0,.07,0,.1,0,.11,0,.21-.02.31-.02-.24.91-.99,1.73-2.24,1.98Zm-.83-4.76c1.48-.3,2.44.22,2.88,1.01-.22.36-.54.72-.93,1.01-.98,0-2-.13-2.92-.39-.35-.67-.04-1.43.96-1.63Zm1.34-.87c-.63-.07-1.28-.05-1.85.07,0,0,0,0,0-.01-.62-1.33.34-1.73,1.81-1.22,1.02.35,1.7,1.01,1.84,1.78-.47-.32-1.06-.54-1.8-.62Zm3.02,2.59c-.05-.33-.15-.65-.31-.95.26-.87.18-1.76-.44-2.4-.35-.37-.84-.67-1.37-.9,1.03.03,2.06.26,2.92.7.48.25.78.55.96.88,0,.09.02.17.02.27,0,.08.05.13.12.16.15.92-.67,1.88-1.89,2.25Zm1.63-8.17c.58,1.15.42,2.02-.33,2.67-1.84-1.64-5.68-1.71-8.31-.38-.07.04-.13.09-.21.12-.86-.45-1.84-.64-2.82-.62-.02-.99.32-1.99.93-2.86.23-.02.47-.06.72-.14,1.11-.36,1.83-1.22,2.34-2.13,1.03-.34,2.19-.44,3.43-.17,1.98.43,3.51,2.04,4.24,3.5Zm-6.41-5.06c.18-.11.35-.21.52-.32.48-.16.82-.45,1.18-.75.33-.22.64-.45.94-.69-.07,1.09.33,2.16,1.22,2.99-.34-.16-.68-.3-1.03-.4-1.27-.36-2.49-.39-3.6-.17.03-.07.06-.15.09-.22.05-.14.09-.29.13-.44.15.09.35.11.54,0Zm-.35-3.61c.47.22,1.01.33,1.55.4-.6.32-1.07.76-1.41,1.28.02-.56-.01-1.13-.14-1.68Zm11.64.63c-.43.68-.36,1.51-.57,2.25-.19.65-.51,1.26-1.05,1.77-.82.77-2.05.89-3.19.6-2.69-.69-3.38-3.04-2.46-4.93.43-.07.86-.16,1.24-.3.72.62,1.67,1.18,2.59,1.25.23.02.4-.23.27-.38-.49-.56-1.27-.95-1.94-1.4.09-.19-.09-.41-.36-.42-.05,0-.11,0-.17,0-.87-.8-1.25-1.87-.9-2.9.1-.31-.44-.41-.58-.13-.54,1.12-.49,2.12.28,3.14-.17-.15-.51-.19-.7.03-.04.05-.07.11-.11.16-.37.08-.74.15-1.1.17-.82.05-1.66-.01-2.39-.33-1.15-.49-1.38-1.58-1.1-2.53.33-1.12,1.37-2.02,2.65-2.5.3-.11.61-.18.92-.23.13.04.28.01.4-.05,1.47-.12,3.01.33,4.26.89.11.05.21.05.3.04-.47,1.1.33,2.29,1.14,3.14.18.19.54.25.79.15.09.53.81.79,1.63.91,0,.54.08,1.05.27,1.51-.05.02-.09.05-.11.09Zm-.3-3.43c.21-.27.53-.56.9-.69.08-.03.15-.03.22-.01.17.74-.06,1.17.58,1.7-.31,0-.62-.01-.9-.04-1.14-.12-1.44-.12-.79-.96Zm4.81,15.36c-3.33-1.92-3.92-6.6-3.84-9.78.11-.42.15-.84.12-1.23.14.14.31.25.47.37-.08.07-.11.17-.06.3.31.73.53,1.48.73,2.24.21.82.26,1.71.79,2.43.12.17.48.15.54-.06.22-.88,0-1.92-.36-2.9,2.01,2.44,1.88,5.71,1.62,8.63Zm2.95-20.29c.55.87.72,1.9.48,2.86-.32,1.28-1.62,1.7-2.8,2.36-.28.16-.22.6.19.57.52-.04.96-.16,1.37-.32.27.87.83,1.57.33,2.5-.39.73-1.27,1.22-2.18,1.47-2.44.67-3.99-.78-4.13-2.6.52.02,1,0,1.28-.02,1.94-.14,3.17-1.23,3.23-2.79.04-1.2-.79-2.07-1.94-2.61.45-.8.48-1.8.18-2.65-.19-.54-.53-1.08-.95-1.58.08.01.16,0,.26-.01.17-.04.33-.1.49-.14,1.83.44,3.29,1.54,4.19,2.96Zm-4.88-4.93c-.33.33.03.77.41.78-.04.05-.09.1-.12.15-.04.06-.06.12-.06.18-.39-.04-.79-.07-1.2-.05-.05,0-.1.01-.14.03-.13-.11-.28-.2-.41-.31.08-.1.12-.21.06-.33.08-.03.15-.08.21-.13.08.1.15.19.25.29.44.4,1.13-.18.72-.58-2.31-2.29.81-6.65,3.2-8.84-.08,3.23-.27,6.08-2.93,8.82Zm4.08-.33c-.08-.05-.18-.08-.31-.08-.21,0-.42,0-.64-.02.95-.56,2.06-.93,3.22-1.12-.74.44-1.49.85-2.27,1.23Zm-1.76-1.03c.08-.13.17-.26.25-.38.16-.03.3-.12.35-.28.68-2.03,2.04-3.68,3.86-5.17,2.12-1.74,4.45-2.29,7.16-3.08-4.06,2.5-6.75,7.53-11.62,8.92Zm77.97,26.47c-.14,1.35-.86,2.57-1.84,3.7-.4.46-.88.82-1.38,1.13.68-.62,1.27-1.32,1.24-2.03-.02-.36-.5-.48-.82-.27-.14.09-.26.19-.39.29.78-1.17,1.83-2.2,3.18-2.82Zm-.8-9.15c.38-.39.31.97.36,1.35.16,1.13-.11,2.29-.41,3.39-.27.99-.72,1.93-1.21,2.85.19-1.06-.04-2.28-.25-3.13-.13-.51-1.05-.29-.95.21.15.74.19,1.48.15,2.23-.04.68-.4,1.35-.35,2.02-.09-.14-.18-.29-.25-.44.87-1.18.6-2.3-.23-3.22.46-1.95,1.8-3.9,3.15-5.27Zm-3.52,11.62c-.63.92-1.06,1.89-1.27,2.84-1.05-1-2.21-1.95-3.03-2.97-.07-.09-.13-.18-.2-.27-.01-.02-.03-.03-.04-.04-.84-1.17-1.18-2.45-.33-4.01.18.13.36.25.55.37,1.19.72,2.47,1.35,3.53,2.2.78.62.92,1.25.79,1.88Zm-.73-6.07c-.19,1.13-.08,2.27.45,3.29-2.27-1.81-6.13-2.74-5.68-5.63.22.1.45.2.69.3,1.22.48,2.5.86,3.66,1.44.38.19.66.39.87.6Zm-1.23-1.84c-1.25-.53-2.69-.94-3.85-1.53-.07-.09-.19-.15-.32-.17-1.13-.63-1.95-1.47-1.95-2.82,1.28.43,2.59.79,3.81,1.32,1.74.77,2.04,1.82,2.31,3.2Zm-9.75-9.38c1.87.59,3.86.89,5.75,1.44,2.81.82,2.86,2.69,3.46,4.71-.66-.49-1.45-.88-2.24-1.18-3.15-1.18-7.11-1.71-7.13-5.02.05.02.1.04.15.05Zm6.18-11.46c.98-.62,2.07-1.1,3.18-1.33.93-.19,2.06-.01,1.11.82-.75.65-1.68,1.15-2.62,1.61-.25.13-.52.24-.78.35.62-.41,1.23-.84,1.82-1.3.43-.34-.15-.98-.66-.69-.8.45-1.53.97-2.32,1.43-.14.08-.2.19-.2.3-.2.12-.39.25-.58.37.48-.43.83-.96,1.05-1.56Zm-3.95,4.1c1.01-.3,2.04-.61,3.04-.96,3.08.56,5.5,3.69,6.8,6.08-3.57-.1-6.99-1.74-9.26-3.93,0-.02.01-.04,0-.06-.03-.08-.08-.14-.11-.21.46.45.95.86,1.57,1.18.64.33,1.63.7,2.36.43.19-.07.18-.28.06-.4-.45-.41-1.32-.48-1.91-.74-.68-.3-1.22-.77-1.7-1.25-.22-.22-.6-.1-.74.11-.06-.08-.13-.15-.2-.22.03,0,.05,0,.08,0Zm-.89.75s0,.06.03.09c.33.63.81,1.21,1.4,1.74-4.39-1.26-10.83-1.28-10.79-3.95,3.44.23,6.8.14,9.36,2.12Zm-15.06-5.84c4.64.06,9.12-1.31,11.15,3.07,0,.02.03.02.04.04-1.72-.19-3.63-.16-5.43-.25-.15-.25-.64-.32-.85-.05-.18-.01-.36-.04-.54-.05,0,0,0,0,0,0-.02-.38-.64-.4-.76-.09-2.02-.3-3.67-.99-4.39-2.68.26.01.52.03.79.03Zm-6.14-6.46c2.99-.73,4.57.45,6.27,2.18-4.54.23-8.75,1.68-13.11,0,.48-.13.95-.26,1.42-.42,1.81-.59,3.54-1.31,5.42-1.77Zm-4.06-1.37c.37.02.74.04,1.12.1.77.12,1.4.42,2.07.7-3.88,1.05-8.18,3.16-11.25,1.76,2.48-1.1,4.39-2.3,7.68-2.29.24,0,.36-.12.39-.27Zm-7.38-.86c.28-.07.33-.28.23-.45,1.15-.05,2.28.05,3.45.27.5.1.98.26,1.45.41-1.44.07-2.83.57-4.11,1.16-3,1.37-5.25,2.94-8.72,2.19,2.45-1.34,4.65-2.83,7.7-3.59Zm-13.94,1.9c1.63-1.27,3.36-1.56,5.48-1.92.13-.02.2-.1.24-.19.46,0,.93.01,1.4.04.96.06,1.89.38,2.86.36-4.16,1.92-7.78,6.21-12.43,3.82.8-.71,1.59-1.44,2.45-2.11Zm47.84,58.11c-.16.17-.32.34-.48.51-1.52-.68-3-1.27-3.52-2.73.08,0,.16,0,.24,0,.44.62,1.04,1.18,1.8,1.54.22.13.46.24.72.32.4.13.86.19,1.32.2-.02.05-.05.1-.07.15Zm.47-2.53s0,0-.01,0c0,0-.01-.01-.02-.01-.21-.09-.43-.17-.64-.24-.02,0-.02-.02-.04-.03-.65-.31-1.02-.57-1.78-.32-.04.01-.05.04-.08.05-.13,0-.27,0-.4,0-.08-.02-.16-.03-.24-.05-.14-.04-.27-.01-.37.03-30.9-.98-44.75-29.87-53.48-49.68-.01-.03-.03-.04-.04-.06,1.44-.12,2.69-.58,3.86-1.27.14.67.51,1.24,1.09,1.78.11.1.27-.03.21-.13-.37-.64-.77-1.23-.86-1.94.21-.14.43-.27.64-.42.57,2,1.37,4,2.55,5.82.16.25.63.07.55-.19-.61-2.08-1.65-4.09-2.48-6.13.04-.04.09-.08.13-.11.01,0,.01.02.03.02,2.11,1.35,4.22,1.25,6.57.31.6-.24,1.15-.5,1.7-.78.55.2,1.08.35,1.61.45-.1.06-.18.15-.19.29-.63,9.14,7.08,19.47,13.35,26.64.26.29.86.02.61-.29-6.36-7.87-12.24-16.84-13.03-26.36,0-.08-.04-.15-.09-.2,1.37.14,2.7-.06,4.14-.57.17-.06.33-.13.49-.19.02,1.85.42,4.07,1.91,5.48.18.17.47-.02.43-.2-.39-1.68-1.16-3.22-1.44-4.9.39.18.8.3,1.2.39-.07.07-.11.17-.08.29.28,1.18.52,2.42,1.1,3.53.13.26.7.26.66-.07-.13-1.22-.5-2.47-.94-3.63.81.08,1.65.03,2.49-.13.01.11.08.21.23.28,2.25,1.09,4.61,1.36,7.13,1.2,1.08,1.54,2.88,2.2,4.9,2.43.43,2.31,2.73,3.25,5.44,3.62.09,2,.57,3.98,1.43,5.86.14.3.63.18.58-.13-.32-1.89-.91-3.73-1.14-5.62.06,0,.12.01.19.02-.11.81.21,1.43.78,1.92-.08.05-.13.11-.12.2.29,2.05.66,4.24,1.82,6.11.1.17.46.09.44-.1-.21-1.96-1.04-3.86-1.52-5.78.96.54,2.26.87,3.49,1.11.24.05.48.09.72.13-1.96,2.26-.11,3.85,2.36,4.84-.34,2.4,1.17,3.86,3.66,4.86,0,.01-.01.02-.01.03-.28,1.78.73,3,2.28,3.91-.46,1.49.05,2.73,1.2,3.79,0,0,0,0-.01.01-1.13,1.74-1.6,3.5.06,5.18.23.24.48.46.73.69,1.19,3.36-2.96,6.07-1.97,9.68.16.57.67,1.12,1.24,1.57,1.27,1.6,1.22,2.8,1.02,4.23-.04.05-.06.1-.07.17-.11.67-.43,1.35-.82,2.03-3.97-9.27-3.39-18.32-4.49-27.98-.04-.32-.62-.33-.62,0-.02,9.14-.58,18.95,3.79,27.55-.49-.21-.95-.45-1.43-.67-6.66-5.4-9.58-12.68-12.82-19.77-4.03-8.83-6.67-18.02-9.54-27.13-.11-.34-.74-.2-.65.14,2.86,10.12,5.98,20.03,10.35,29.8,2.22,4.97,4.56,10.53,8.68,14.83-12.91-7.9-19.45-21.5-26.65-32.76-.1-.16-.44-.05-.36.12,3.94,8.09,8.53,15.71,14.71,22.85,3.9,4.51,9.01,10.64,15.75,12.74.34.23.7.45,1.05.67-.31.05-.61.13-.91.2Zm1.78,1.18c-.06-.06-.15-.12-.26-.15-.3-.08-.6-.15-.91-.22.39-.11.76-.25,1.05-.47.05-.04.07-.09.09-.13.34-.04.6-.43.29-.65-.03-.02-.06-.05-.1-.07.04-.03.06-.06.09-.1.17.33.34.65.53.97-.19.31-.37.63-.54.94-.05-.07-.14-.11-.24-.13Zm4.86,12.29c-.06.31-.12.62-.19.94-.05-.04-.08-.08-.14-.12-.42-.25-.83-.45-1.29-.64-.24-.1-.44-.22-.6-.36.03-.05.07-.1.1-.14.23-.37-.24-.7-.62-.59-.35-.91,0-2.06.2-2.93.14-.63.15-1.19.05-1.72.97.81,1.87,1.56,2.28,2.57-.1.14-.21.28-.32.41-.23.29.23.53.53.37.07.54.01,1.16-.23,1.89-.05.14.06.27.21.33Zm-.59-10.18c3.18,1.49,2.59,3.83,1.23,5.97-.32-.43-.73-.84-1.19-1.24-1.98-1.69-4.17-2.74-3.42-5.48.22-.82.64-1.54,1.06-2.25.02.62.12,1.25.51,1.7.53.6,1.03.94,1.81,1.31Zm2.67-11.65c-.05.86-.21,1.69-.42,2.53-.09.34-.21.68-.31,1.02-.2.08-.3.32-.12.46-.01.06-.03.11-.04.17-.75-1.11-1.96-2.09-3.84-3.4-3.6-2.49.17-5.74,1.2-8.14.16-.36.21-.71.19-1.06.55.5,1.09,1,1.57,1.55.05.06.09.11.14.17-.12.21.06.47.36.48,0,0,.01,0,.02,0,1.48,1.97,1.76,3.87,1.54,5.93-.15.04-.28.12-.29.29Zm6.3,13.73c-2.58-1.67-4.03-4.28-4.94-6.91.17.16.33.33.49.49.84.84,1.45,1.96,2.43,2.69.18.13.5.05.49-.16-.03-.97-.91-1.87-1.62-2.6-.58-.59-1.19-1.16-1.81-1.71,3.15,2.17,6.67,4.99,4.96,8.22Zm-5.06-11.42c.62-.07,1.23-.19,1.84-.3-.32.23-.63.47-.96.69-.48.33-1.26.68-1.71,1.12-.02-.02-.03-.05-.06-.06.21-.49.34-1.02.41-1.56.11.09.27.14.47.12Zm-.46-9.15s.04-.01.05-.02c1.29.59,2.54,1.14,3.65,2.01,1.34,1.07,2.15,2.44,2.61,3.9-3.18-.86-5.54-3.26-6.31-5.89Z"/>
        <path class="cls-1" d="m104.66,45.69c-1.63-6.25-4.42-12.27-5.72-18.58-.05-.27-.63-.2-.59.06,1.03,6.4,3.74,12.42,5.79,18.63.09.27.59.16.52-.12Z"/>
        <path class="cls-1" d="m92.39,50.31c-6.55-7.36-13.59-14.09-18.92-22.14-.14-.21-.51-.03-.39.18,4.58,8.06,10.97,16.02,18.99,22.15.16.12.45-.04.32-.2Z"/>
        <path class="cls-1" d="m79.33,41.51c-.24-.31-.84-.03-.6.28,4.12,5.46,10.11,10.58,17.08,13.69.24.11.53-.17.31-.32-6.18-4.27-12.36-8.01-16.79-13.65Z"/>
        <path class="cls-1" d="m109.36,50.39c-.26-2.26-1.51-4.38-1.97-6.62-.06-.27-.64-.21-.6.07.34,2.25,1.01,4.57,2.14,6.65.09.17.45.09.43-.09Z"/>
        <path class="cls-1" d="m110.72,90.87c.8-3.71,1.61-7.48,1.83-11.25.02-.4-.69-.38-.75,0-.54,3.72-1.61,7.44-1.56,11.2,0,.21.43.27.48.05Z"/>
        <path class="cls-1" d="m104.54,82.54c-1.24,1.42-1.99,2.97-2.02,4.73,0,.17.28.18.35.04.66-1.53,1.2-3.12,2.05-4.59.12-.21-.22-.37-.38-.18Z"/>
        <path class="cls-1" d="m104.17,85.31c-.39,1.13-.76,2.43-.62,3.6.01.12.23.2.31.07.69-1.09.48-2.39.76-3.57.06-.24-.37-.34-.45-.1Z"/>
        <path class="cls-1" d="m63.26,15.2c.8,2.83,2.02,5.68,3.69,8.26.15.22.58.07.5-.17-.98-2.79-2.48-5.48-3.77-8.18-.1-.21-.48-.13-.42.09Z"/>
        <path class="cls-1" d="m108.31,35.64c0-.74-.51-1.43-.53-2.18-.01-.35-.69-.35-.68,0,.03.78.28,1.68.88,2.3.11.11.33.01.33-.11Z"/>
        <path class="cls-1" d="m33.26,40.74c-1.03-.05-1.85.38-2.56.95-.4.31.2.79.61.49.59-.43,1.23-.77,2.05-.66.61.08,1.06.47,1.63.64.27.08.41-.18.33-.34-.33-.6-1.24-1.04-2.05-1.07Z"/>
      </g>
      <g>
        <path class="cls-2" d="m59.06,131.36l-3.93,8.73c-.05.12-.19.19-.33.19-.22,0-.38-.22-.3-.39l3.3-7.35c-1.05,1.12-2.22,2.21-3.29,2.23-.65,0-1.01-.31-1.01-.7,0-.16.03-.34.11-.51.06-.12.19-.19.33-.19.05,0,.1.01.14.03.11.04.18.15.18.26,0,.04,0,.07-.02.11-.05.11-.08.22-.08.28,0,.13.11.16.32.16.7-.03,1.55-.82,2.46-1.68,1.36-1.28,1.61-1.87,1.95-1.87.19,0,.32.09.32.23,0,.09-.06.26-.16.47Z"/>
        <path class="cls-2" d="m66.35,132.11c-.18.04-.37-.05-.42-.2-.22-.7-.69-.88-1.44-.88-1.61,0-3.13,1.98-3.91,3.63.75-.42,1.64-.63,2.7-.63,1.29,0,1.98.96,1.98,2.15,0,1.92-1.77,4.02-4.02,4.12-1.47.04-2.2-.92-2.2-2.22,0-.42.06-1.09.16-1.45-.19.23-.37.44-.51.66-.1.13-.3.17-.46.09-.16-.08-.21-.26-.11-.39.35-.51.85-1.1,1.45-1.63.88-2.35,2.79-4.9,4.92-4.9,1.01,0,1.84.42,2.11,1.29.05.16-.05.31-.24.35Zm-6.62,5.96c0,1.04.48,1.67,1.52,1.67,1.8-.05,3.35-1.95,3.35-3.55,0-.89-.46-1.59-1.31-1.59-1.13,0-2.25.34-3.13,1.08-.26.74-.43,1.7-.43,2.4Z"/>
        <path class="cls-2" d="m68.17,139.93c0,.26-.26.46-.56.46s-.54-.2-.54-.46.24-.47.54-.47.56.22.56.47Zm.61-1.96c0,.26-.26.46-.56.46s-.54-.2-.54-.46.24-.47.54-.47.56.22.56.47Z"/>
        <path class="cls-2" d="m72.3,140.3c-1.31,0-1.9-1.04-1.93-2.27-.05-2.87,2.33-7.47,5.31-7.55,1.47-.07,2.27.9,2.27,2.23,0,3.18-2.63,7.59-5.65,7.59Zm3.42-9.26c-2.46,0-4.77,4.47-4.68,6.97.03,1,.35,1.72,1.26,1.72,2.65-.04,4.98-4.23,4.98-7.01,0-1.02-.53-1.68-1.56-1.68Z"/>
        <path class="cls-2" d="m80.25,140.3c-1.31,0-1.9-1.04-1.93-2.27-.05-2.87,2.33-7.47,5.31-7.55,1.47-.07,2.27.9,2.27,2.23,0,3.18-2.63,7.59-5.65,7.59Zm3.42-9.26c-2.46,0-4.77,4.47-4.68,6.97.03,1,.35,1.72,1.26,1.72,2.65-.04,4.98-4.23,4.98-7.01,0-1.02-.53-1.68-1.56-1.68Z"/>
      </g>
    </g>
  </g>
</svg>